<svg xmlns="http://www.w3.org/2000/svg" width="23.667" height="22.502" viewBox="0 0 23.667 22.502">
  <g id="Group_1385" data-name="Group 1385" transform="translate(-233.311 -856.422)" opacity="0.6">
    <path id="Path_3428" data-name="Path 3428" d="M252.9,864.265a8.983,8.983,0,1,1-3.2-3.97q.421-.337.845-.657.519-.39,1.043-.754a11.233,11.233,0,1,0,2.948,3.575C254.013,863,253.468,863.6,252.9,864.265Z" fill="#3a3a3a"/>
    <path id="Path_3429" data-name="Path 3429" d="M260.667,870.934a34.886,34.886,0,0,1,11.8-9.876c.639-.3,1.181.623.659,1.1-2.72,2.492-6.66,5.925-11.314,14.8a1.326,1.326,0,0,1-2.34-.006l-4.416-8.269a.913.913,0,0,1,.294-1.186l.584-.395a.866.866,0,0,1,1.091.1Z" transform="translate(-16.36 -3.459)" fill="#3a3a3a"/>
  </g>
</svg>
