<svg xmlns="http://www.w3.org/2000/svg" width="21.667" height="24.9" viewBox="0 0 21.667 24.9">
  <g id="Group_1384" data-name="Group 1384" transform="translate(-173.75 -375.25)" opacity="0.6">
    <g id="Group_1383" data-name="Group 1383" transform="translate(173.75 375.25)">
      <path id="Path_3426" data-name="Path 3426" d="M189.6,375.25H179.247a5.5,5.5,0,0,0,0,10.995h4.2V384.3a2.91,2.91,0,0,1,2.91-2.91,3.01,3.01,0,0,1,.911.142,2.919,2.919,0,0,1,2,2.823v1.885h.323a5.5,5.5,0,0,0,0-10.995Zm-10.47,4.651,1.315.677a1.986,1.986,0,0,1,1.061,2.111,1.933,1.933,0,0,1-1.138,1.486v.175a.808.808,0,1,1-1.617,0v-.122a2.389,2.389,0,0,1-1.442-1.316.808.808,0,1,1,1.483-.644.781.781,0,0,0,.781.464.343.343,0,0,0,.335-.3.387.387,0,0,0-.2-.418l-1.315-.677a2,2,0,0,1-1.05-2.155,1.937,1.937,0,0,1,1.412-1.548v-.12a.808.808,0,1,1,1.617,0v.3a2.367,2.367,0,0,1,1.153,1.19.809.809,0,0,1-1.483.645.786.786,0,0,0-.781-.465.346.346,0,0,0-.328.3A.372.372,0,0,0,179.126,379.9Zm10.146.038H184.1a.808.808,0,0,1,0-1.617h5.174a.808.808,0,0,1,0,1.617Z" transform="translate(-173.75 -375.25)" fill="#3a3a3a"/>
      <path id="Path_3427" data-name="Path 3427" d="M198.4,393.412a1.821,1.821,0,0,0-1.4.432,1.521,1.521,0,0,0-1.186-1.079,1.8,1.8,0,0,0-1.34.387,1.663,1.663,0,0,0-1.247-1.034,1.813,1.813,0,0,0-1.511.567V388.6a1.325,1.325,0,0,0-.872-1.282,1.3,1.3,0,0,0-1.715,1.227v10.348a1.293,1.293,0,0,1-1.294-1.293V396.43a.449.449,0,0,0-.449-.449H187a1.748,1.748,0,0,0-1.748,1.748v3.193a1.94,1.94,0,0,0,.662,1.459l1.741,1.526a1.938,1.938,0,0,0,1.279.481h7.156a1.94,1.94,0,0,0,1.372-.569l1.45-1.45a1.941,1.941,0,0,0,.568-1.372v-6.241A1.343,1.343,0,0,0,198.4,393.412Z" transform="translate(-177.812 -379.489)" fill="#3a3a3a"/>
    </g>
  </g>
</svg>
