<svg xmlns="http://www.w3.org/2000/svg" width="23.749" height="24.459" viewBox="0 0 23.749 24.459">
  <g id="Group_1382" data-name="Group 1382" transform="translate(-1516.03 -260.132)">
    <path id="Path_3422" data-name="Path 3422" d="M1655.946,260.388a.235.235,0,0,1,.471,0v4.671a.313.313,0,1,0,.62,0v-4.608a.322.322,0,0,1,.644,0v5.1a.3.3,0,1,0,.588,0v-5.1a.322.322,0,0,1,.644,0v4.608a.313.313,0,1,0,.62,0v-4.671a.235.235,0,0,1,.47,0l.3,2.714a6.419,6.419,0,0,1-.016,2.6c-.6,1.5-1.707,1.554-1.781,4.275-.083,3.053.31,8.082.31,11.463,0,.982-1.69.982-1.69,0,0-3.382.393-8.41.31-11.463-.074-2.721-1.184-2.778-1.781-4.275a6.417,6.417,0,0,1-.016-2.6Z" transform="translate(-130.069 0)" fill="#3a3a3a" fill-rule="evenodd"/>
    <path id="Path_3423" data-name="Path 3423" d="M1541.623,312.158c2.19-1.116,4.69,1.678,4.908,3.731.274,2.581-1.021,2.446.245,5.107,1.42,2.986,2.824,5.026,4.486,8.287a.814.814,0,0,1-1.45.739c-1.662-3.262-2.487-5.6-4.068-8.5-1.409-2.588-2.061-1.461-3.988-3.2-1.532-1.383-2.323-5.048-.133-6.164" transform="translate(-22.606 -48.278)" fill="#3a3a3a"/>
    <path id="Path_3424" data-name="Path 3424" d="M1680.885,336.309a.814.814,0,0,1-1.45-.739c.91-1.786,2.929-5.477,3.833-7.251a2.02,2.02,0,0,0-.328-2.231c1.011-1.8,4.2-8.6,6.636-7.259l-4.66,9.146c-1.077,2.114-2.942,6.2-4.031,8.333" transform="translate(-152.296 -54.574)" fill="#3a3a3a" fill-rule="evenodd"/>
    <path id="Path_3425" data-name="Path 3425" d="M1516.634,448.592a.6.6,0,0,1-.6-.6V443.9a.607.607,0,0,1,.658-.616,13.151,13.151,0,0,1,11.216,8.81h0a13.152,13.152,0,0,1,11.216-8.81.607.607,0,0,1,.658.616v4.088a.6.6,0,0,1-.6.6c-4.5,0-7.328,2.01-10,5.409h6.607a.69.69,0,1,1,0,1.381h-15.764a.69.69,0,1,1,0-1.381h6.607c-2.669-3.4-5.5-5.409-10-5.409" transform="translate(0 -170.791)" fill="#3a3a3a" fill-rule="evenodd"/>
  </g>
</svg>
