<svg xmlns="http://www.w3.org/2000/svg" width="25.326" height="21.353" viewBox="0 0 25.326 21.353">
  <g id="Group_1365" data-name="Group 1365" transform="translate(-293.132 -1317.057)">
    <g id="Group_1364" data-name="Group 1364" transform="translate(293.132 1317.057)">
      <path id="Path_3389" data-name="Path 3389" d="M327.391,1316.6l-1.15-.158s-.279-.452-.418-.445a2.023,2.023,0,0,0-2.308-.69,1.629,1.629,0,0,0-1.109,1.136,2.643,2.643,0,0,0-.082,1.632.877.877,0,0,1,.319-.471,1.081,1.081,0,0,0-.27.639.99.99,0,0,1,0,.458h0c0,.015-.008.029-.013.044a2.1,2.1,0,0,0-.067.34q0-.144,0-.243l-1.159-.023s-.027-.036-.258-.048c-.213-.011-1.049-.063-1.174-.071a2.043,2.043,0,0,1-.1.241,1.393,1.393,0,0,0,.04-.594c-.093-.3-.423-.212-.555-.055,0,0-.354-.18-.456-.113a.623.623,0,0,0-.375-.108.552.552,0,0,0-.827-.018.855.855,0,0,1,.35.249c-.232-.175-.407-.25-.527-.224a.274.274,0,0,0-.172.1s-.3-.233-.45.024c0,0-.236-.209-.466.155l-.177.018a.12.12,0,0,0-.145.116,2.67,2.67,0,0,0,.007.338q.041.209.355.113a.365.365,0,0,1-.354.014,2.607,2.607,0,0,0-.131.622.676.676,0,0,1-.1.209.078.078,0,0,0-.019.079.5.5,0,0,1,.624.076c-.29-.127-.486-.128-.589-.006a20.418,20.418,0,0,0-.654,2.244l-.008.032.016-.029c.191-.637.359-1.013.677-1.9a8.55,8.55,0,0,0,.107,2.984c.165,1.355-.523,2.078-.992,2.182a1.313,1.313,0,0,0,.965-.478,1.357,1.357,0,0,1-.7.717,2.377,2.377,0,0,0,1.355-.174c.165-.18.2-.436-.141-.851.21.268.787.754.45,1.04q-1.768.93-2.376.042a.929.929,0,0,0,.952.5,6.551,6.551,0,0,0,1.594-.553,1.862,1.862,0,0,1,.083.376,2.222,2.222,0,0,0,1.614-.9s.048-.365.327-.365a1.036,1.036,0,0,0,.336-.2,3.654,3.654,0,0,1,.186-.806,5.222,5.222,0,0,0-.062.934v0s0,.007,0,.018v-.005a2.6,2.6,0,0,1-.055.58s-.125,1.841-.145,2.546q.284.334.594.639a10.535,10.535,0,0,0,4.913,2.714,11.531,11.531,0,0,0-3.15-5.526,9.349,9.349,0,0,1,2.884,3.682,8.472,8.472,0,0,0-2.213-5.8,5.03,5.03,0,0,1,2.867,4,6.111,6.111,0,0,0-.187-3.885,2.771,2.771,0,0,1,.724,1.4,2.313,2.313,0,0,0-.188-1.085.9.9,0,0,1,.667.412,1.12,1.12,0,0,1,.16.832,3.752,3.752,0,0,0,.724-1.524s.791-1.9-.115-2.913a1.79,1.79,0,0,0-.3-.259,1.893,1.893,0,0,0-.466-.217,1.557,1.557,0,0,0-.743-.027,1.787,1.787,0,0,1,.539-.088.51.51,0,0,0-.014-.214.477.477,0,0,1,.1-.389c.038-.072.139-.12.043-.233l9.551.63s-.008.048.153.063c0,0,.424-.015.477.1.15.28.718,1.627,1.493,1.294.907-.86.438-2.477-.4-2.451a1.148,1.148,0,0,1,.712,1.066,1.165,1.165,0,0,1-.657,1.109c.74-.568.309-1.713-.147-1.345-.251.2-.363.4-.777.224-.082-.039-.163-.075-.243-.111-.213.007-.333-.013-.362-.059.016-.067.144-.1.385-.09,0,0-.553-.06-.627.042l-9.465-.709-.1.11a1.119,1.119,0,0,0,.153-.291.7.7,0,0,0,.021-.078.559.559,0,0,0,.011-.121.334.334,0,0,1,.174-.1.182.182,0,0,0,.086-.272c-.032-.049-.066-.1-.1-.152h0a1.011,1.011,0,0,1-.236-.621.57.57,0,0,0,.1.278c.078.014.256.043.46.061a.893.893,0,0,0,.82-.418c.214-.454.252-.777-.1-.953Zm-8.976,16.22a2.277,2.277,0,0,0-.066.489c.027.211,6.941,0,6.941,0a.979.979,0,0,1-.368-.477l0-.011Zm7.865-15.865a2.652,2.652,0,0,1-1.646-.186,2.551,2.551,0,0,1,1.142-.257,4.445,4.445,0,0,0-1.093.1q-1.486-.264-1.425-.927a3.606,3.606,0,0,0,1.061.328q.5-.561-.815-.543a1.819,1.819,0,0,1,2.225.538,1,1,0,0,0-.44-.119,1.491,1.491,0,0,1,.932.615,2.956,2.956,0,0,1,1.276.24,1.443,1.443,0,0,0-1.216.215Zm-7.5,3.121a12.294,12.294,0,0,1,1.519,1.183l-.018-.011.028.023-.049-.035q-.618-.374-.881-.55a1.146,1.146,0,0,0-.577.36c-.078.089-.419.571-.649.624a1.12,1.12,0,0,0-.617.61.727.727,0,0,1-.252.344c-.294-.045-.626.355-.771.552a7.3,7.3,0,0,1-.181.868,6.576,6.576,0,0,0,.084-.894,9.888,9.888,0,0,1,.294-2.624c.026-.071-.023-.183-.143-.337a.477.477,0,0,1,.181.325c.077-.044.1-.185.1-.185a.67.67,0,0,1,.354-.388.778.778,0,0,0,.659-.41.344.344,0,0,1,.207-.107,1.191,1.191,0,0,1-.242-.673,1.654,1.654,0,0,0,.335.718.263.263,0,0,1,.026.039h0a.354.354,0,0,1,.038.11c.129.7.552.46.552.46Zm3.5-.9a1.075,1.075,0,0,0,.2.466l-.1.359c-.051-.028-.1-.054-.156-.08a2.17,2.17,0,0,0,.8.448,4.3,4.3,0,0,1,.528.1q1.146.391.59,1.719-.1-.6-1.032-.642a3.234,3.234,0,0,1-1.447-.658,3.671,3.671,0,0,0,1.6.1c-.822-.041-4.639-1.178-4.717-1.937q-.254.088-.064.681-.463-.841.14-.98a4.716,4.716,0,0,0,1.308.472q.509.142,1.072.3c-.517-.238-1.164-.308-1.6-.567a1.883,1.883,0,0,0,.69.166,5.9,5.9,0,0,0,1-.008Z" transform="translate(-312.848 -1315.208)" fill="#3a3a3a" fill-rule="evenodd"/>
      <path id="Path_3390" data-name="Path 3390" d="M307.057,1414.97a11.249,11.249,0,0,1-11.463-2.548,10.027,10.027,0,0,1-1.8-2.419,2.991,2.991,0,0,1-.679.148.417.417,0,0,1-.369-.165.548.548,0,0,1-.033-.045,4.616,4.616,0,0,1-1.254.385,1.493,1.493,0,0,1-1.158-.407h0q-1.027-.874.783-5.848a10.2,10.2,0,0,0-1.775,7.859,11.027,11.027,0,0,0,7.785,8.37,12.118,12.118,0,0,0,11.567-2.488,15.1,15.1,0,0,1-13.767.177,14.56,14.56,0,0,0,16.578-4.2,24.118,24.118,0,0,1-8.049,3.413A9.424,9.424,0,0,0,307.057,1414.97Z" transform="translate(-289.132 -1399.477)" fill="#3a3a3a" fill-rule="evenodd"/>
    </g>
  </g>
</svg>
