<svg xmlns="http://www.w3.org/2000/svg" width="27.929" height="25.04" viewBox="0 0 27.929 25.04">
  <g id="Group_2074" data-name="Group 2074" transform="translate(-50 -696.5)">
    <g id="Group_1386" data-name="Group 1386" transform="translate(-72.282 609.375)">
      <path id="Path_3432" data-name="Path 3432" d="M177.368,201.171h3.507v-3.507h-3.507v3.507Zm3.716.418h-3.925a.209.209,0,0,1-.209-.209v-3.925a.209.209,0,0,1,.209-.209h3.925a.209.209,0,0,1,.209.209v3.925A.209.209,0,0,1,181.084,201.589Z" transform="translate(-47.61 -106.656)" fill="#3a3a3a"/>
      <path id="Path_3433" data-name="Path 3433" d="M271.233,244.264a.208.208,0,1,0-.246.336,5.023,5.023,0,0,0,5.461.012.208.208,0,1,0-.209-.361A4.6,4.6,0,0,1,271.233,244.264Z" transform="translate(-135.019 -150.363)" fill="#3a3a3a"/>
      <path id="Path_3434" data-name="Path 3434" d="M275.038,205.383a.721.721,0,1,1-.509.211.718.718,0,0,1,.509-.211Zm.214.507a.3.3,0,1,0,.089.214A.3.3,0,0,0,275.252,205.889Z" transform="translate(-138.197 -114.227)" fill="#3a3a3a"/>
      <path id="Path_3435" data-name="Path 3435" d="M328.65,205.383a.721.721,0,1,1-.51.211.719.719,0,0,1,.51-.211Zm.214.507a.3.3,0,1,0,.089.214A.3.3,0,0,0,328.864,205.889Z" transform="translate(-188.076 -114.227)" fill="#3a3a3a"/>
      <path id="Path_3436" data-name="Path 3436" d="M177.368,319.041h3.507v-3.507h-3.507v3.507Zm3.716.418h-3.925a.209.209,0,0,1-.209-.209v-3.925a.209.209,0,0,1,.209-.209h3.925a.209.209,0,0,1,.209.209v3.925A.209.209,0,0,1,181.084,319.459Z" transform="translate(-47.61 -216.318)" fill="#3a3a3a"/>
      <path id="Path_3437" data-name="Path 3437" d="M270.986,362.891a.208.208,0,0,0,.246.336,4.6,4.6,0,0,1,5.006.012.208.208,0,0,0,.207-.361A5.022,5.022,0,0,0,270.986,362.891Z" transform="translate(-135.019 -260.02)" fill="#3a3a3a"/>
      <path id="Path_3438" data-name="Path 3438" d="M275.038,323.254a.721.721,0,1,1-.509.211.718.718,0,0,1,.509-.211Zm.214.506a.3.3,0,1,0,.089.214A.3.3,0,0,0,275.252,323.76Z" transform="translate(-138.197 -223.89)" fill="#3a3a3a"/>
      <path id="Path_3439" data-name="Path 3439" d="M328.65,323.254a.721.721,0,1,1-.51.211.718.718,0,0,1,.51-.211Zm.214.506a.3.3,0,1,0,.089.214A.3.3,0,0,0,328.864,323.76Z" transform="translate(-188.076 -223.89)" fill="#3a3a3a"/>
      <path id="Path_3442" data-name="Path 3442" d="M177.368,201.171h3.507v-3.507h-3.507v3.507Zm3.716.418h-3.925a.209.209,0,0,1-.209-.209v-3.925a.209.209,0,0,1,.209-.209h3.925a.209.209,0,0,1,.209.209v3.925A.209.209,0,0,1,181.084,201.589Z" transform="translate(-47.61 -106.656)" fill="#3a3a3a"/>
      <path id="Path_3443" data-name="Path 3443" d="M271.233,244.264a.208.208,0,1,0-.246.336,5.023,5.023,0,0,0,5.461.012.208.208,0,1,0-.209-.361A4.6,4.6,0,0,1,271.233,244.264Z" transform="translate(-135.019 -150.363)" fill="#3a3a3a"/>
      <path id="Path_3444" data-name="Path 3444" d="M275.038,205.383a.721.721,0,1,1-.509.211.718.718,0,0,1,.509-.211Zm.214.507a.3.3,0,1,0,.089.214A.3.3,0,0,0,275.252,205.889Z" transform="translate(-138.197 -114.227)" fill="#3a3a3a"/>
      <path id="Path_3445" data-name="Path 3445" d="M328.65,205.383a.721.721,0,1,1-.51.211.719.719,0,0,1,.51-.211Zm.214.507a.3.3,0,1,0,.089.214A.3.3,0,0,0,328.864,205.889Z" transform="translate(-188.076 -114.227)" fill="#3a3a3a"/>
      <path id="Path_3446" data-name="Path 3446" d="M177.368,319.041h3.507v-3.507h-3.507v3.507Zm3.716.418h-3.925a.209.209,0,0,1-.209-.209v-3.925a.209.209,0,0,1,.209-.209h3.925a.209.209,0,0,1,.209.209v3.925A.209.209,0,0,1,181.084,319.459Z" transform="translate(-47.61 -216.318)" fill="#3a3a3a"/>
      <path id="Path_3447" data-name="Path 3447" d="M270.986,362.891a.208.208,0,0,0,.246.336,4.6,4.6,0,0,1,5.006.012.208.208,0,0,0,.207-.361A5.022,5.022,0,0,0,270.986,362.891Z" transform="translate(-135.019 -260.02)" fill="#3a3a3a"/>
      <path id="Path_3448" data-name="Path 3448" d="M275.038,323.254a.721.721,0,1,1-.509.211.718.718,0,0,1,.509-.211Zm.214.506a.3.3,0,1,0,.089.214A.3.3,0,0,0,275.252,323.76Z" transform="translate(-138.197 -223.89)" fill="#3a3a3a"/>
      <path id="Path_3449" data-name="Path 3449" d="M328.65,323.254a.721.721,0,1,1-.51.211.718.718,0,0,1,.51-.211Zm.214.506a.3.3,0,1,0,.089.214A.3.3,0,0,0,328.864,323.76Z" transform="translate(-188.076 -223.89)" fill="#3a3a3a"/>
    </g>
    <g id="Group_1387" data-name="Group 1387" transform="translate(-350 29.215)" style="isolation: isolate">
      <path id="Path_3450" data-name="Path 3450" d="M400,680.784a5.691,5.691,0,0,0,5.359,5.963l5.47.016.017.015,3.487,3.1,2.755,2.447-.426-5.529v-.015h.013l3.747.011,1.4,0,.692,0c.085,0,.169,0,.254-.007a5.725,5.725,0,0,0,5.142-5.924l.023-7.568a5.691,5.691,0,0,0-5.359-5.963l-17.15-.051a5.166,5.166,0,0,0-4.09,2.074,6.308,6.308,0,0,0-1.3,3.857Zm1.4,0,.023-7.568a4.969,4.969,0,0,1,1.017-3.026,3.779,3.779,0,0,1,2.979-1.535l17.15.051A3.713,3.713,0,0,1,425.319,670a4.886,4.886,0,0,1,1.214,3.293l-.023,7.568a4.906,4.906,0,0,1-1.171,3.215,3.75,3.75,0,0,1-2.644,1.341h-.019c-.056,0-.108,0-.163,0l-2.153-.007-.012-.012h-3.814l-1.371,0,.257,3.591-4.036-3.6-2.094-.006-3.928-.012a3.711,3.711,0,0,1-2.754-1.293A4.884,4.884,0,0,1,401.4,680.788Z" transform="translate(0 0)" fill="#3a3a3a"/>
    </g>
  </g>
</svg>
