<svg xmlns="http://www.w3.org/2000/svg" width="28.871" height="23.531" viewBox="0 0 28.871 23.531">
  <g id="Group_1389" data-name="Group 1389" transform="translate(0.5 0.5)">
    <g id="_4" data-name="4" transform="translate(0 0)">
      <path id="Path_3451" data-name="Path 3451" d="M2102.068,214.3v3.827l2.1,1.773m-2.1-6.825v-.815m-2.927.786.406.706M2097,215.2l.7.407m-1.488,2.526h.813m-.029,2.933.7-.407m1.845,1.849-.406.705m2.927.786v-.815m2.521-.677.407.705m2.143-2.147-.7-.407m1.488-2.526h-.813m-.675-2.526.7-.407m-2.549-1.441.407-.706" transform="translate(-2089.987 -206.866)" fill="none" stroke="#3a3a3a" stroke-linecap="round" stroke-linejoin="round" stroke-width="1"/>
      <path id="Path_3452" data-name="Path 3452" d="M2035.519,172a11.275,11.275,0,1,1,0-22.531,11.933,11.933,0,0,1,8.292,3.3m-8.368,17.277a9.341,9.341,0,1,1,6.614-15.946" transform="translate(-2023.793 -149.471)" fill="none" stroke="#3a3a3a" stroke-linecap="round" stroke-linejoin="round" stroke-width="1"/>
    </g>
    <g id="Group_1388" data-name="Group 1388" transform="translate(11.664 5.357)">
      <path id="Path_3453" data-name="Path 3453" d="M2162.006,227.562h.063v.07l-.063-.07h0Zm4.863.793h-.461v-.287a1.518,1.518,0,0,0-.65.137c0,.149.388.219.849.219s.86-.07.86-.219a1.422,1.422,0,0,0-.6-.137Zm.535-16.005a.566.566,0,0,1-.6.58c-.262,0-.461-.288-.461-.65a.49.49,0,0,1,.523-.506.6.6,0,0,1,.535.575Zm-.535,14.855a.276.276,0,0,0,.074-.218c.063-.069.063-.149.126-.218v-.15c.063,0,.063-.069.063-.069v1.15h0l.074-.138v-.069a.5.5,0,0,0,.063-.288,1.164,1.164,0,0,0,.136-.506v-.218a.717.717,0,0,1,.063.218c.063.219.063.356.125.506v.07a1.643,1.643,0,0,0,.136-.576.411.411,0,0,0,.064-.218v.218a1.9,1.9,0,0,0,.136.576v.069a.283.283,0,0,0,.063-.218.223.223,0,0,1,.063-.138.518.518,0,0,0,.136-.288v-.149l.063-.069c.063-.149.063-.219.136-.219v.437a.626.626,0,0,0-.074.356v.644h.136l.063-.138a.266.266,0,0,1,.073-.218v-.138c.063-.08.063-.08.126-.149.063-.137.063-.218.136-.356a1.4,1.4,0,0,0,.126-.218,2.26,2.26,0,0,1,.2-.288,1.318,1.318,0,0,1-.063.288c-.074.069-.074.218-.136.288v.356a.28.28,0,0,1-.063.218v.356h.063v-.138c.063,0,.063,0,.063-.069.074-.081.136-.149.136-.218s.073-.149.136-.219v-.137c.063,0,.063,0,.063-.081V226.7h0l.063.07v.574c0,.069-.063.149,0,.218a.1.1,0,0,0,0,.138v.081h.136a1.122,1.122,0,0,1,.126-.506c0-.149.063-.219.063-.288a.426.426,0,0,1,.074-.288.308.308,0,0,0,.062-.149l.074-.069v.069c0,.069,0,.149-.074.149,0,.138,0,.219.074.288v.793h.189v-.219a.871.871,0,0,0,.062-.218c.074-.138.136-.218.2-.356a.775.775,0,0,1,.073-.218v.218a1,1,0,0,0,.063.425v.149l.2-.943.188,1.162h.136a.862.862,0,0,0,.063-.219c0-.069.073-.218.137-.218a.591.591,0,0,0,.063-.218v.218a.428.428,0,0,0,.073.288v.149a.306.306,0,0,0,.063-.149c0-.07.063-.219.063-.288a.307.307,0,0,1,.063-.218.247.247,0,0,1,.063-.138c0-.069.073-.069.073-.069v.069c0,.069-.073.138,0,.138v.655c.063-.149.136-.219.136-.368a.222.222,0,0,0,.063-.137v.574h.126c0-.069.073-.069.073-.149v-.425c0-.149.063-.149.063-.149l.063.149c0,.069.063.287.063.356a2.421,2.421,0,0,0,.136.288h.2v-.714a.826.826,0,0,1-.062-.287,1.021,1.021,0,0,0,.125.207,2.615,2.615,0,0,0,.2.655V228h.262v-.724s.064.069.137.137c0,.149.063.219.188.368V228c.073,0,.073,0,.073.07.126,0,.189.069.189.137,0,.219-3.218.437-7.169.437s-7.169-.218-7.169-.437c0-.069.136-.137.262-.207h.073a.729.729,0,0,1,.063-.218,1.187,1.187,0,0,1,.2-.437v0c0,.149.063.288.063.437V228a.524.524,0,0,0,.336-.08h0v-.357c0-.069.063-.218.063-.287a3.378,3.378,0,0,1,.2-.576.8.8,0,0,1,.125-.288v.288a2.216,2.216,0,0,0,0,.644v.575l.136-.07v-.069a.416.416,0,0,0,.063-.219c0-.149,0-.218.063-.218v-.425h.074c0,.069.063.137.063.207v.218a.333.333,0,0,1,.063.218.73.73,0,0,1,.063.219v.069h.074v-.218a.629.629,0,0,1,.063-.288v-.218c0-.07.063-.07.063-.138v-.218a.064.064,0,0,0-.063-.07v-.081l.063.081.063.07v.218a.21.21,0,0,0,.073.138c0,.08.063.149.063.218,0,.149.063.218.063.288h0v-.07h0l.136-.436.063.436h.063c0-.149.073-.356.073-.506a.222.222,0,0,0,.063-.137v.137a1.487,1.487,0,0,0,.126.506.28.28,0,0,0,.073.219h0v-.149c0-.07.063-.138.063-.288h.063v-.218c.074,0,.074-.07.074-.138v-.218a.393.393,0,0,0,.063.218.307.307,0,0,0,.063.218v.138h0v.069l.136-.793.189,1.162h.2v-.149c.073-.219.073-.356.136-.506v-.207a.576.576,0,0,0,.063.207,1.728,1.728,0,0,0,.136.506v.149h.063c0-.149.063-.219.063-.288.073-.218.136-.368.2-.574a.655.655,0,0,0,.063-.219v1h0v-.069c.073-.07.073-.07.073-.138v-.081h0v-.069h.063v-.069a.3.3,0,0,1,.063-.149v-.207a.576.576,0,0,0,.063.207v.149a.069.069,0,0,1,.073.069h0l.063.069v.149l.063-.218c0-.138.073-.218.073-.288a.223.223,0,0,0,.063-.137v-.149a1.008,1.008,0,0,0,.126-.219v.793a.427.427,0,0,0,.073.288v.069a.5.5,0,0,1,.063-.288v-.069c.063-.069.063-.069.063-.138,0,0,0-.08.063-.08v-.207a.236.236,0,0,1,.073.137v.07c.063,0,.063.08.063.08v.138a.268.268,0,0,0,.063.149v-.218a2.644,2.644,0,0,1,.073-.356l.063-.219.063.219a.888.888,0,0,0,.063.356c.073.069.073.137.073.287l.063.07v.069h.063v-.069a.656.656,0,0,0,.136-.219.272.272,0,0,1,.063-.207c0-.08.063-.149.063-.287.073,0,.073-.149.073-.219v-.149l.063-.069v.218a.484.484,0,0,1,.063.288v.713h.063l.2-1a1.39,1.39,0,0,0,.063.426l.2-14.052c.073,0,.136.07.2.07.136,0,.2-.07.262-.07Zm3.952-12.694c-1.247-.644-2.232-1.724-3.49-1.006l-.063,4.467c.063,0,.136-.143.262-.218,1.247-.862,2.966.506,4.277.437,1.845-.219,3.427-1.805,4.339-4.324a5.286,5.286,0,0,1-5.325.644Z" transform="translate(-2159.438 -211.775)" fill="#3a3a3a" fill-rule="evenodd"/>
    </g>
  </g>
</svg>
