<svg xmlns="http://www.w3.org/2000/svg" width="28.213" height="20.667" viewBox="0 0 28.213 20.667">
  <g id="Group_2075" data-name="Group 2075" transform="translate(-52 -287)">
    <g id="Group_1366" data-name="Group 1366" transform="translate(-661.985 121.113)" opacity="0.6">
      <path id="Path_3391" data-name="Path 3391" d="M721.832,184.878h0a1.473,1.473,0,0,0,1.453-1.436,1.386,1.386,0,0,0-1.453-1.338,1.283,1.283,0,0,0-1.33,1.338,1.37,1.37,0,0,0,1.33,1.436Zm15.474,0h0a1.381,1.381,0,0,0,1.329-1.436,1.292,1.292,0,0,0-1.329-1.338,1.387,1.387,0,0,0-1.453,1.338,1.474,1.474,0,0,0,1.453,1.436Zm-11.237-5.1h.78c.319,0,.549-.337.549-.886,0-.337-.23-.781-.549-.781h-3.67l-1.9-1.781c0-.327-.567-5.663-.567-7.888h14.019l2.784,8.783h-4.556l-.443,1.214L729.294,176l.32-.674c.23-.221.123-.327,0-.443-.214-.107-.32-.107-.551.116l-.886,1.887c0,.106,0,.336.107.336.23.107.442,0,.442-.116l.337-.442,3.119,2.225c-.779,1.107-1.79,2.773-2.569,3.881h-2.89Zm-4.236,6.22h0a2.556,2.556,0,1,0-2.552-2.552,2.524,2.524,0,0,0,2.552,2.552Zm15.474,0h0a2.556,2.556,0,1,0-2.571-2.552,2.519,2.519,0,0,0,2.571,2.552Zm0-5.662a3.111,3.111,0,0,1,0,6.222,3.111,3.111,0,1,1,0-6.222Zm-18.7-9.668a1.259,1.259,0,0,0-1.33-.222c-.337.444-.78,1-.78,1a2.383,2.383,0,0,0,0,1.223h0v3.66h0l-.23-2.216h0a4.419,4.419,0,0,0-.106-1.116,6.222,6.222,0,0,1-.887-.886c-.106-.116-.673-.116-1.116.443-.23.221-.23.664,0,.779a7.841,7.841,0,0,0,1.559.221l.107.559h.123l.214,2.216h-.78v8.108h3.013v-1.666h-.125a3.7,3.7,0,0,1,3.563-2.995,3.609,3.609,0,0,1,3.563,3.668,3.151,3.151,0,0,1-.107.993h8.561a3.151,3.151,0,0,1-.107-.993,3.609,3.609,0,0,1,3.563-3.668,3.677,3.677,0,0,1,3.545,3.668,3.151,3.151,0,0,1-.107.993H742.2l-.9-5.884-2.889-1.445-2.782-8.667h4.448c.123,0,.231-.221.231-.327a.234.234,0,0,0-.231-.221h-.32a3.887,3.887,0,0,0-2.782-2H718.607a4.451,4.451,0,0,0-2.89,2h-.106a.247.247,0,0,0-.23.221c0,.107.124.327.23.327h4.218v7.781l-2.215.107.213-1.994h0c.123,0,.123-.443.123-.443a4.731,4.731,0,0,0,1.33-.23.546.546,0,0,0,0-.771c-.337-.336-.781-.336-.886-.222a6.421,6.421,0,0,0-.78.664c-.124.107-.124.886-.124,1h0l-.213,1.994h-.337l-.105-3.66a.106.106,0,0,0,.105-.115l.106-.559a3.593,3.593,0,0,0,1.561-.443c.336-.107.336-.664,0-.887Zm3.225,9.668a3.111,3.111,0,1,1-3.119,3.11,3.045,3.045,0,0,1,3.119-3.11Z" transform="translate(0 0)" fill="#3a3a3a" fill-rule="evenodd"/>
    </g>
    <g id="Group_1381" data-name="Group 1381" transform="translate(56.329 291.388) rotate(-31)" opacity="0.7">
      <g id="Group_1367" data-name="Group 1367" transform="translate(1.224 0.133)">
        <path id="Path_3392" data-name="Path 3392" d="M4477.294,1648.172l-1.834,6.9.25.067,1.834-6.9Z" transform="translate(-4475.46 -1646.07)" fill="#3a3a3a"/>
        <path id="Path_3393" data-name="Path 3393" d="M4460.073,1544.661l.163-.085a.25.25,0,0,1,.278.032c.629.539.441,1.023.441,1.023l-.288,1.085-.251-.067.288-1.085a2.368,2.368,0,0,1-.708-.524A.248.248,0,0,1,4460.073,1544.661Z" transform="translate(-4458.581 -1544.547)" fill="#3a3a3a"/>
      </g>
      <g id="Group_1368" data-name="Group 1368" transform="translate(1.677 0)">
        <path id="Path_3394" data-name="Path 3394" d="M4454.12,1641.625l-1.834,6.9.25.067,1.834-6.9Z" transform="translate(-4452.285 -1639.523)" fill="#3a3a3a"/>
        <path id="Path_3395" data-name="Path 3395" d="M4436.9,1538.113l.163-.085a.25.25,0,0,1,.278.032c.628.539.441,1.023.441,1.023l-.289,1.085-.251-.067.289-1.085a2.366,2.366,0,0,1-.708-.524A.248.248,0,0,1,4436.9,1538.113Z" transform="translate(-4435.407 -1538)" fill="#3a3a3a"/>
      </g>
      <path id="Path_3396" data-name="Path 3396" d="M4434.414,2297.9l.524.448c.13-.123.75-.732.907-.918h-1.225C4434.554,2297.577,4434.486,2297.733,4434.414,2297.9Z" transform="translate(-4431.741 -2282.688)" fill="#3a3a3a"/>
      <g id="Group_1369" data-name="Group 1369" transform="translate(2.526 15.179)">
        <rect id="Rectangle_583" data-name="Rectangle 583" width="2.19" height="0.292" transform="translate(0.018 0.625)" fill="#3a3a3a"/>
        <path id="Path_3397" data-name="Path 3397" d="M4404.164,2318.785a.839.839,0,0,1-1.017.038.663.663,0,0,0-.122.587h2.189C4405.171,2319.124,4404.688,2319.039,4404.164,2318.785Z" transform="translate(-4403.007 -2318.785)" fill="#3a3a3a"/>
      </g>
      <g id="Group_1370" data-name="Group 1370" transform="translate(2.259 9.487)">
        <path id="Path_3398" data-name="Path 3398" d="M4368.181,2039.865l1.373,1.525a11.264,11.264,0,0,0-1.233,2.053h1.225a8.091,8.091,0,0,0,1.353-2.134c-.1-.974-2.077-3.124-2.077-3.124S4366.843,2039.667,4368.181,2039.865Z" transform="translate(-4367.717 -2038.185)" fill="#3a3a3a"/>
      </g>
      <path id="Path_3399" data-name="Path 3399" d="M4423.745,1757.794l-1.683,3.387a.784.784,0,0,0,.354,1.051l1.623.773,2.38-4.792-1.623-.773A.784.784,0,0,0,4423.745,1757.794Z" transform="translate(-4421.98 -1753.172)" fill="#3a3a3a"/>
      <rect id="Rectangle_584" data-name="Rectangle 584" width="1.464" height="0.436" transform="matrix(-0.896, -0.445, 0.445, -0.896, 4.026, 5.002)" fill="#3a3a3a"/>
      <rect id="Rectangle_585" data-name="Rectangle 585" width="1.464" height="0.436" transform="translate(1.537 9.966) rotate(-153.579)" fill="#3a3a3a"/>
      <rect id="Rectangle_586" data-name="Rectangle 586" width="0.802" height="2.021" transform="translate(1.622 7.748)" fill="#3a3a3a"/>
      <g id="Group_1374" data-name="Group 1374" transform="translate(3.7 1.57)">
        <path id="Path_3400" data-name="Path 3400" d="M4395.7,1784.785l.233-.663.663.234-.231.664c.051.021-.865-.034-.824-.281C4395.592,1784.753,4395.646,1784.769,4395.7,1784.785Z" transform="translate(-4395.503 -1780.7)" fill="#3a3a3a"/>
        <g id="Group_1372" data-name="Group 1372" transform="translate(0.501 3.08)">
          <g id="Group_1371" data-name="Group 1371">
            <path id="Path_3401" data-name="Path 3401" d="M4387.722,1767.27a.5.5,0,0,0,.014.139l.637.225a.528.528,0,0,0,.1-.1c-.1-.035-.239-.074-.375-.122S4387.823,1767.306,4387.722,1767.27Z" transform="translate(-4387.722 -1767.27)" fill="#3a3a3a"/>
          </g>
          <path id="Path_3402" data-name="Path 3402" d="M4392.535,1774.127a.392.392,0,0,0,.637.225Z" transform="translate(-4392.521 -1773.988)" fill="#3a3a3a"/>
        </g>
        <g id="Group_1373" data-name="Group 1373" transform="translate(0.84 2.783)">
          <path id="Path_3403" data-name="Path 3403" d="M4391.677,1752.729a.437.437,0,0,0,.178.026.193.193,0,0,1-.333-.117A.442.442,0,0,0,4391.677,1752.729Z" transform="translate(-4391.522 -1752.638)" fill="#3a3a3a"/>
        </g>
        <path id="Path_3404" data-name="Path 3404" d="M4298.446,1617.376a.875.875,0,0,1-.377.708,1.4,1.4,0,0,0-.115-.882,1.75,1.75,0,0,1-1.595-.563c-.318.076-.627.571-.642.614a.87.87,0,0,1,.15-.788c-.064-.607.016-1.022.6-.924C4297.563,1615.021,4299.616,1616.2,4298.446,1617.376Z" transform="translate(-4295.678 -1615.416)" fill="#3a3a3a"/>
      </g>
      <g id="Group_1375" data-name="Group 1375" transform="translate(3.358 5.459)">
        <path id="Path_3405" data-name="Path 3405" d="M4316.287,1821.566a.544.544,0,0,0-.752.16,13.549,13.549,0,0,0-.213,2.616c.036,1.018.776,1.065,3.056.508l-.055-.545-2.038-.036c.168-1.457.383-2.456,0-2.7Z" transform="translate(-4315.315 -1821.478)" fill="#3a3a3a"/>
      </g>
      <path id="Path_3406" data-name="Path 3406" d="M4401.5,1806.926l-.733-.3a1.045,1.045,0,0,0-1.031.16c-1.173.749-2.176,4.471-2.176,4.471h2.591s1.41-3.363,1.461-3.682A1.219,1.219,0,0,0,4401.5,1806.926Z" transform="translate(-4396.689 -1801.405)" fill="#3a3a3a"/>
      <g id="Group_1376" data-name="Group 1376" transform="translate(0.843 9.487)">
        <path id="Path_3407" data-name="Path 3407" d="M4445.964,2039.361l.721,2.03a11.209,11.209,0,0,0-1.233,2.053h1.225a8.062,8.062,0,0,0,1.353-2.134c-.1-.974-.511-3.124-.511-3.124h-2.591S4444.626,2039.162,4445.964,2039.361Z" transform="translate(-4444.898 -2038.185)" fill="#3a3a3a"/>
      </g>
      <path id="Path_3408" data-name="Path 3408" d="M4511.585,2297.9l.524.448c.13-.123.749-.732.906-.918h-1.225C4511.725,2297.577,4511.657,2297.733,4511.585,2297.9Z" transform="translate(-4510.431 -2282.688)" fill="#3a3a3a"/>
      <g id="Group_1377" data-name="Group 1377" transform="translate(1.05 15.179)">
        <rect id="Rectangle_587" data-name="Rectangle 587" width="2.19" height="0.292" transform="translate(0.018 0.625)" fill="#3a3a3a"/>
        <path id="Path_3409" data-name="Path 3409" d="M4481.335,2318.785a.839.839,0,0,1-1.017.038.664.664,0,0,0-.121.587h2.189C4482.342,2319.124,4481.859,2319.039,4481.335,2318.785Z" transform="translate(-4480.179 -2318.785)" fill="#3a3a3a"/>
      </g>
      <path id="Path_3410" data-name="Path 3410" d="M4297.422,1949.517l.044-.541.109-.008a.258.258,0,0,1,.3-.236l-.019.109.025,0v.72Z" transform="translate(-4291.102 -1940.744)" fill="#3a3a3a"/>
      <g id="Group_1378" data-name="Group 1378" transform="translate(5.463 4.708)">
        <path id="Path_3411" data-name="Path 3411" d="M4280.5,1917.634l-1.4,7.846.285.051,1.405-7.846Z" transform="translate(-4279.095 -1915.3)" fill="#3a3a3a"/>
        <path id="Path_3412" data-name="Path 3412" d="M4267.571,1802.716l.174-.11a.279.279,0,0,1,.313.01c.749.542.585,1.1.585,1.1l-.221,1.234-.285-.051.221-1.234a2.65,2.65,0,0,1-.837-.518A.278.278,0,0,1,4267.571,1802.716Z" transform="translate(-4266.731 -1802.563)" fill="#3a3a3a"/>
      </g>
      <path id="Path_3413" data-name="Path 3413" d="M4275.4,1951.513a.1.1,0,0,0,.1.1h.292a.1.1,0,0,0,.1-.1h0a.1.1,0,0,0-.1-.1h-.292a.1.1,0,0,0-.1.1Z" transform="translate(-4268.667 -1943.36)" fill="#3a3a3a"/>
      <path id="Path_3414" data-name="Path 3414" d="M4275.4,1961.426a.1.1,0,0,0,.1.1h.292a.1.1,0,0,0,.1-.1h0a.1.1,0,0,0-.1-.1h-.292a.1.1,0,0,0-.1.1Z" transform="translate(-4268.667 -1953.08)" fill="#3a3a3a"/>
      <path id="Path_3415" data-name="Path 3415" d="M4275.4,1971.338a.1.1,0,0,0,.1.1h.292a.1.1,0,0,0,.1-.1h0a.1.1,0,0,0-.1-.1h-.292a.1.1,0,0,0-.1.1Z" transform="translate(-4268.667 -1962.799)" fill="#3a3a3a"/>
      <path id="Path_3416" data-name="Path 3416" d="M4275.4,1981.25a.1.1,0,0,0,.1.1h.292a.1.1,0,0,0,.1-.1h0a.1.1,0,0,0-.1-.1h-.292a.1.1,0,0,0-.1.1Z" transform="translate(-4268.667 -1972.519)" fill="#3a3a3a"/>
      <g id="Group_1379" data-name="Group 1379" transform="translate(0.843 4.624)">
        <path id="Path_3417" data-name="Path 3417" d="M4429.475,1779.19l.058-.117.81.356a1.354,1.354,0,0,1,.666,1.841l-.83,1.67a1.353,1.353,0,0,1-1.781.626l-.727-.337.058-.117.713.329a1.238,1.238,0,0,0,1.628-.574l.816-1.643a1.24,1.24,0,0,0-.613-1.687Z" transform="translate(-4427.67 -1779.073)" fill="#3a3a3a"/>
      </g>
      <path id="Path_3418" data-name="Path 3418" d="M4427.733,1874.425a.135.135,0,0,0,.061.181h0a.134.134,0,0,0,.181-.061l.921-1.855a.135.135,0,0,0-.061-.181h0a.135.135,0,0,0-.181.061Z" transform="translate(-4424.68 -1866.016)" fill="#3a3a3a"/>
      <path id="Path_3419" data-name="Path 3419" d="M4421.887,1881.049l-.108.008-.044.541.766.077a.2.2,0,0,1,.113-.262.09.09,0,1,1,.015-.18.089.089,0,0,0-.082-.1.09.09,0,1,0,.015-.18l-.392-.033.044-.088A.241.241,0,0,0,4421.887,1881.049Z" transform="translate(-4418.298 -1874.156)" fill="#3a3a3a"/>
      <path id="Path_3420" data-name="Path 3420" d="M4495.918,1777.936l.257.128,2.107-4.244-.257-.128Z" transform="translate(-4495.344 -1769.166)" fill="#3a3a3a"/>
      <g id="Group_1380" data-name="Group 1380" transform="translate(1.361 5.298)">
        <path id="Path_3421" data-name="Path 3421" d="M4437.27,1812.57a.544.544,0,0,0-.67-.377,13.457,13.457,0,0,0-1.888,1.824c-.646.788.336,1.57,2.212.337l-.128-.61-.985.365c1.06-.915,1.557-1.219,1.459-1.539Z" transform="translate(-4434.514 -1812.173)" fill="#3a3a3a"/>
      </g>
    </g>
  </g>
</svg>
