<svg xmlns="http://www.w3.org/2000/svg" xmlns:xlink="http://www.w3.org/1999/xlink" width="18.635" height="16.019" viewBox="0 0 18.635 16.019">
  <defs>
    <linearGradient id="linear-gradient" x1="-57.99" y1="51.686" x2="-56.99" y2="51.686" gradientUnits="objectBoundingBox">
      <stop offset="0" stop-color="#fff"/>
      <stop offset="1" stop-color="#e6e6e6"/>
    </linearGradient>
  </defs>
  <g id="Group_2099" data-name="Group 2099" transform="translate(-213.465 -242.113)">
    <g id="Group_2069" data-name="Group 2069" transform="translate(213.465 242.113)">
      <rect id="Rectangle_658" data-name="Rectangle 658" width="18.635" height="16.019" rx="3.801" fill="url(#linear-gradient)"/>
      <rect id="Rectangle_659" data-name="Rectangle 659" width="16.867" height="14.498" rx="3.041" transform="translate(0.884 0.76)" fill="#64b884"/>
      <rect id="Rectangle_660" data-name="Rectangle 660" width="16.867" height="14.498" rx="3.041" transform="translate(0.884 0.76)" fill="#ed1818"/>
      <path id="Path_6671" data-name="Path 6671" d="M3.1,0h9.792a2.9,2.9,0,0,1,3.1,2.661v8.417a2.9,2.9,0,0,1-3.1,2.661H3.1A2.9,2.9,0,0,1,0,11.077V2.661A2.9,2.9,0,0,1,3.1,0Z" transform="translate(1.327 1.14)" fill="#fefffe"/>
    </g>
    <g id="Group_2073" data-name="Group 2073" transform="translate(217.903 249.37)">
      <g id="Group_2070" data-name="Group 2070">
        <path id="Path_6665" data-name="Path 6665" d="M231.9,182.594h-2.529a.991.991,0,1,0,0,1.948h7.408a.991.991,0,1,0,0-1.948H231.9Z" transform="translate(-228.192 -182.594)" fill="#ea1823"/>
      </g>
      <g id="Group_2072" data-name="Group 2072">
        <g id="Group_2071" data-name="Group 2071" opacity="0.1" style="mix-blend-mode: multiply;isolation: isolate">
          <path id="Path_6666" data-name="Path 6666" d="M231.9,182.594h-2.529a.991.991,0,1,0,0,1.948h7.408a.991.991,0,1,0,0-1.948H231.9Z" transform="translate(-228.192 -182.594)"/>
        </g>
      </g>
    </g>
  </g>
</svg>
