<svg id="Group_749" data-name="Group 749" xmlns="http://www.w3.org/2000/svg" width="71.475" height="60.598" viewBox="0 0 71.475 60.598">
  <defs>
    <style>
      .cls-1 {
        fill: #9ec955;
      }
    </style>
  </defs>
  <g id="Group_747" data-name="Group 747" transform="translate(0)">
    <g id="Group_746" data-name="Group 746">
      <g id="Group_737" data-name="Group 737" transform="translate(37.214)">
        <g id="Group_735" data-name="Group 735" transform="translate(9.604)">
          <path id="Path_1557" data-name="Path 1557" class="cls-1" d="M342.876,345.561a4.527,4.527,0,0,1-.441-.415,5.436,5.436,0,0,1-.4-.477,6.751,6.751,0,0,1-.418-.593,2.676,2.676,0,0,1,.336-3.369,3.46,3.46,0,0,1,1.659,1.507,2.065,2.065,0,0,1,.209.827,2.831,2.831,0,0,1-.068.788A4.417,4.417,0,0,1,342.876,345.561Z" transform="translate(-332.146 -338.304)"/>
          <path id="Path_1558" data-name="Path 1558" class="cls-1" d="M334.623,339.746a4.612,4.612,0,0,1-.5-.35,5.485,5.485,0,0,1-.467-.417c-.082-.082-.164-.17-.244-.263s-.169-.18-.249-.278a2.656,2.656,0,0,1-.154-3.374,3.535,3.535,0,0,1,1.866,1.266,2.578,2.578,0,0,1,.365,1.588A4.333,4.333,0,0,1,334.623,339.746Z" transform="translate(-327.318 -335.064)"/>
          <path id="Path_1559" data-name="Path 1559" class="cls-1" d="M342.076,355.344a4.369,4.369,0,0,0-.445-.393,5.1,5.1,0,0,0-.5-.348c-.1-.058-.2-.115-.3-.169s-.23-.092-.351-.131a2.673,2.673,0,0,0-3.188,1.131,2.343,2.343,0,0,0,1.518.981,2.957,2.957,0,0,0,1.53-.127A6.008,6.008,0,0,0,342.076,355.344Z" transform="translate(-329.988 -346.021)"/>
          <path id="Path_1560" data-name="Path 1560" class="cls-1" d="M335.072,349.264a4.5,4.5,0,0,0-.5-.329,4.242,4.242,0,0,0-1.236-.5,2.665,2.665,0,0,0-3,1.547,2.477,2.477,0,0,0,1.643.772,2.952,2.952,0,0,0,1.5-.33A5.96,5.96,0,0,0,335.072,349.264Z" transform="translate(-326.126 -342.714)"/>
          <path id="Path_1561" data-name="Path 1561" class="cls-1" d="M327.362,344.16a4.573,4.573,0,0,0-.544-.257,4.747,4.747,0,0,0-1.3-.329,2.717,2.717,0,0,0-1.543.352,2.972,2.972,0,0,0-1.211,1.581,2.788,2.788,0,0,0,.906.456,2.181,2.181,0,0,0,.429.075,2.024,2.024,0,0,0,.4.017,2.958,2.958,0,0,0,1.443-.53A5.893,5.893,0,0,0,327.362,344.16Z" transform="translate(-321.922 -339.947)"/>
          <path id="Path_1562" data-name="Path 1562" class="cls-1" d="M324.886,338.672a4.156,4.156,0,0,0-.143-.565,4.338,4.338,0,0,0-.566-1.164,2.621,2.621,0,0,0-1.271-.91,3.21,3.21,0,0,0-2.043.121,2.546,2.546,0,0,0,.215.958,2,2,0,0,0,.215.364,1.884,1.884,0,0,0,.243.307,2.92,2.92,0,0,0,1.349.722A6.28,6.28,0,0,0,324.886,338.672Z" transform="translate(-320.864 -335.555)"/>
          <g id="Group_730" data-name="Group 730" transform="translate(10.055 5.329)">
            <path id="Path_1563" data-name="Path 1563" class="cls-1" d="M361.567,369.194a4.4,4.4,0,0,1-.219-.554,5.139,5.139,0,0,1-.323-1.286,3.117,3.117,0,0,1,.237-1.572,2.84,2.84,0,0,1,1.466-1.384,4.825,4.825,0,0,1,.426.525,3.126,3.126,0,0,1,.267.524,2.711,2.711,0,0,1,.2.966,2.4,2.4,0,0,1-.522,1.524A4.7,4.7,0,0,1,361.567,369.194Z" transform="translate(-353.222 -357.236)"/>
            <path id="Path_1564" data-name="Path 1564" class="cls-1" d="M356.483,360.429a4.349,4.349,0,0,1-.3-.518,6.6,6.6,0,0,1-.5-1.235,2.925,2.925,0,0,1,.015-1.592,2.787,2.787,0,0,1,1.253-1.561,3.276,3.276,0,0,1,.83.952,2.717,2.717,0,0,1,.345.927,2.3,2.3,0,0,1-.015.839,2.873,2.873,0,0,1-.292.743A4.6,4.6,0,0,1,356.483,360.429Z" transform="translate(-350.208 -352.14)"/>
            <path id="Path_1565" data-name="Path 1565" class="cls-1" d="M357.579,378.286a4.163,4.163,0,0,0-.23-.536c-.04-.078-.084-.162-.135-.248s-.121-.172-.19-.26a4.1,4.1,0,0,0-.486-.522,2.607,2.607,0,0,0-1.392-.68,3.269,3.269,0,0,0-2,.5,3.76,3.76,0,0,0,.392.9,2,2,0,0,0,.58.577,2.583,2.583,0,0,0,.723.319,3.866,3.866,0,0,0,.756.141A6.111,6.111,0,0,0,357.579,378.286Z" transform="translate(-348.856 -363.912)"/>
            <path id="Path_1566" data-name="Path 1566" class="cls-1" d="M353.441,369.983a4.223,4.223,0,0,0-.31-.5,3.726,3.726,0,0,0-.383-.467,4.169,4.169,0,0,0-.56-.451,2.678,2.678,0,0,0-1.485-.485,3.161,3.161,0,0,0-1.9.746,2.356,2.356,0,0,0,1.176,1.342,3.268,3.268,0,0,0,1.522.265A6.1,6.1,0,0,0,353.441,369.983Z" transform="translate(-346.444 -359.351)"/>
            <path id="Path_1567" data-name="Path 1567" class="cls-1" d="M348.243,362.292a4.338,4.338,0,0,0-.382-.45,3.437,3.437,0,0,0-1.06-.789,2.672,2.672,0,0,0-3.311.7,2.307,2.307,0,0,0,1.355,1.177,3.133,3.133,0,0,0,1.54.069A6.079,6.079,0,0,0,348.243,362.292Z" transform="translate(-343.49 -355.142)"/>
            <path id="Path_1568" data-name="Path 1568" class="cls-1" d="M349.2,350.928a2.95,2.95,0,0,1-.252-1.573,2.785,2.785,0,0,1,1.035-1.776,3.423,3.423,0,0,1,1.313,1.42h0v0c.008.016.017.032.024.049l0,0a2.323,2.323,0,0,1,.162,1.31,3.345,3.345,0,0,1-.429,1.108,4.708,4.708,0,0,1-.837,1.033,4.393,4.393,0,0,1-.353-.442,5.485,5.485,0,0,1-.313-.5,4.953,4.953,0,0,1-.329-.6h0l-.01-.023-.005-.012Z" transform="translate(-346.509 -347.579)"/>
          </g>
          <g id="Group_731" data-name="Group 731" transform="translate(15.807 16.598)">
            <path id="Path_1569" data-name="Path 1569" class="cls-1" d="M368.61,398.851a4.24,4.24,0,0,1,.008-.591,4.709,4.709,0,0,1,.281-1.3,2.8,2.8,0,0,1,2.78-2.048,4.028,4.028,0,0,1,.195,1.227,2.855,2.855,0,0,1-.05.513,2.382,2.382,0,0,1-.16.448,2.7,2.7,0,0,1-1.14,1.194A4.775,4.775,0,0,1,368.61,398.851Z" transform="translate(-363.195 -386.024)"/>
            <path id="Path_1570" data-name="Path 1570" class="cls-1" d="M367.728,388.589s-.007-.059-.027-.161-.039-.249-.053-.425a4.664,4.664,0,0,1,.074-1.325,3.286,3.286,0,0,1,.658-1.446,2.962,2.962,0,0,1,1.812-.951,4.084,4.084,0,0,1,.383,1.188,2.537,2.537,0,0,1-.089.985,2.61,2.61,0,0,1-.944,1.332,4.337,4.337,0,0,1-1.211.635A4.583,4.583,0,0,1,367.728,388.589Z" transform="translate(-362.654 -379.922)"/>
            <path id="Path_1571" data-name="Path 1571" class="cls-1" d="M362.894,405.2a3.789,3.789,0,0,0-.294-1.835,2.554,2.554,0,0,0-1.031-1.158,3.207,3.207,0,0,0-2.021-.316,2.534,2.534,0,0,0-.009.982,2.233,2.233,0,0,0,.125.4,1.9,1.9,0,0,0,.173.351,2.975,2.975,0,0,0,1.159.991A6.087,6.087,0,0,0,362.894,405.2Z" transform="translate(-358.133 -390.012)"/>
            <path id="Path_1572" data-name="Path 1572" class="cls-1" d="M362.381,396.073s0-.059-.007-.16-.04-.244-.08-.414a4.338,4.338,0,0,0-.479-1.2,2.543,2.543,0,0,0-.469-.585,2.484,2.484,0,0,0-.7-.43,3.248,3.248,0,0,0-2.054-.048,2.632,2.632,0,0,0,.144.97,1.88,1.88,0,0,0,.374.709,2.968,2.968,0,0,0,1.3.83,6.1,6.1,0,0,0,1.352.3A5.112,5.112,0,0,0,362.381,396.073Z" transform="translate(-357.633 -384.981)"/>
            <path id="Path_1573" data-name="Path 1573" class="cls-1" d="M360.577,387.043a3.616,3.616,0,0,0-.146-.562,4.419,4.419,0,0,0-.663-1.125,2.4,2.4,0,0,0-1.289-.854,3.269,3.269,0,0,0-2.046.226,2.5,2.5,0,0,0,.751,1.595,3.116,3.116,0,0,0,1.411.648A6.072,6.072,0,0,0,360.577,387.043Z" transform="translate(-356.432 -380.004)"/>
            <path id="Path_1574" data-name="Path 1574" class="cls-1" d="M365.5,375.272a2.876,2.876,0,0,1,1.683-1.228,3.841,3.841,0,0,1,.505.977,2.9,2.9,0,0,1,.116.882,2.678,2.678,0,0,1-1.247,2.112,5,5,0,0,1-1.206.626l-.041-.148c-.027-.094-.048-.232-.093-.393a4.712,4.712,0,0,1-.144-1.251A3.362,3.362,0,0,1,365.5,375.272Z" transform="translate(-361.231 -374.044)"/>
          </g>
          <g id="Group_732" data-name="Group 732" transform="translate(14.999 30.066)">
            <path id="Path_1575" data-name="Path 1575" class="cls-1" d="M363.056,429.237a4.369,4.369,0,0,1,.267-.534,5.209,5.209,0,0,1,.784-1.094,3.16,3.16,0,0,1,1.353-.9,3.048,3.048,0,0,1,2.062.094,3.53,3.53,0,0,1-.338,1.2,2.423,2.423,0,0,1-.6.8,2.71,2.71,0,0,1-1.534.663A4.868,4.868,0,0,1,363.056,429.237Z" transform="translate(-359.305 -417.67)"/>
            <path id="Path_1576" data-name="Path 1576" class="cls-1" d="M366.236,419.389s.064-.23.183-.565a5.727,5.727,0,0,1,.618-1.187,2.927,2.927,0,0,1,3.268-1.253,3.071,3.071,0,0,1-.631,2.106,2.76,2.76,0,0,1-1.429.858,4.487,4.487,0,0,1-1.387.117A4.62,4.62,0,0,1,366.236,419.389Z" transform="translate(-361.071 -411.768)"/>
            <path id="Path_1577" data-name="Path 1577" class="cls-1" d="M356.772,431.5a4.206,4.206,0,0,0,.25-.528,4.155,4.155,0,0,0,.251-1.265,2.443,2.443,0,0,0-.442-1.449,1.086,1.086,0,1,0-2.153-.176,2.18,2.18,0,0,0-.047.8,2.814,2.814,0,0,0,.646,1.352A5.85,5.85,0,0,0,356.772,431.5Z" transform="translate(-354.615 -418.029)"/>
            <path id="Path_1578" data-name="Path 1578" class="cls-1" d="M360.076,423.039l.057-.15c.031-.1.07-.238.106-.408a3.6,3.6,0,0,0,.066-1.286,2.337,2.337,0,0,0-.646-1.376,3.156,3.156,0,0,0-1.859-.828,2.319,2.319,0,0,0-.221,1.738,2.821,2.821,0,0,0,.83,1.252,5.763,5.763,0,0,0,1.11.789A5.073,5.073,0,0,0,360.076,423.039Z" transform="translate(-356.215 -413.32)"/>
            <path id="Path_1579" data-name="Path 1579" class="cls-1" d="M362.138,414.232a4.1,4.1,0,0,0,.083-.575,3.6,3.6,0,0,0-.12-1.283,2.39,2.39,0,0,0-.838-1.278,3.168,3.168,0,0,0-1.955-.575,2.537,2.537,0,0,0-.156.97,2.014,2.014,0,0,0,.177.782,2.979,2.979,0,0,0,1,1.131A6.091,6.091,0,0,0,362.138,414.232Z" transform="translate(-357.134 -408.456)"/>
            <path id="Path_1580" data-name="Path 1580" class="cls-1" d="M368.2,408.647a5.171,5.171,0,0,1,.157-.559,4.8,4.8,0,0,1,.248-.641,3.56,3.56,0,0,1,.427-.687,2.721,2.721,0,0,1,.614-.594,3.032,3.032,0,0,1,2.066-.478,4.146,4.146,0,0,1,.04,1.087,2.709,2.709,0,0,1-.25.852,2.37,2.37,0,0,1-.905,1,3.593,3.593,0,0,1-1.131.452,5.032,5.032,0,0,1-1.355.114A4.2,4.2,0,0,1,368.2,408.647Z" transform="translate(-362.112 -405.672)"/>
          </g>
          <g id="Group_733" data-name="Group 733" transform="translate(8.147 42.548)">
            <path id="Path_1581" data-name="Path 1581" class="cls-1" d="M346.436,454.955a4.572,4.572,0,0,1,.464-.391,6.187,6.187,0,0,1,1.175-.7,3.412,3.412,0,0,1,1.618-.308,3.018,3.018,0,0,1,1.854.884,3.237,3.237,0,0,1-1.695,1.47,2.741,2.741,0,0,1-1.683.017A4.693,4.693,0,0,1,346.436,454.955Z" transform="translate(-343.219 -445.641)"/>
            <path id="Path_1582" data-name="Path 1582" class="cls-1" d="M353.056,447.187s.152-.188.408-.444a5.436,5.436,0,0,1,1.063-.849,3.31,3.31,0,0,1,1.559-.517,3.014,3.014,0,0,1,1.957.629,4.686,4.686,0,0,1-.3.6,3.6,3.6,0,0,1-.361.468,2.683,2.683,0,0,1-.8.617,2.84,2.84,0,0,1-1.663.238A4.8,4.8,0,0,1,353.056,447.187Z" transform="translate(-346.897 -440.949)"/>
            <path id="Path_1583" data-name="Path 1583" class="cls-1" d="M340.156,453.337a4.413,4.413,0,0,0,.445-.394,3.8,3.8,0,0,0,.758-1.063,2.327,2.327,0,0,0,.2-1.5,2.942,2.942,0,0,0-1.131-1.636,2.448,2.448,0,0,0-1.144,1.368,2.817,2.817,0,0,0,.027,1.486A5.608,5.608,0,0,0,340.156,453.337Z" transform="translate(-339.196 -442.886)"/>
            <path id="Path_1584" data-name="Path 1584" class="cls-1" d="M346.711,446.79a3.172,3.172,0,0,0,.388-.445,4,4,0,0,0,.6-1.154,2.34,2.34,0,0,0-.015-1.51,3.02,3.02,0,0,0-1.357-1.476,3.269,3.269,0,0,0-.662.749,2.033,2.033,0,0,0-.271.76,2.689,2.689,0,0,0,.238,1.469,5.314,5.314,0,0,0,.681,1.145A4.872,4.872,0,0,0,346.711,446.79Z" transform="translate(-342.626 -439.131)"/>
            <path id="Path_1585" data-name="Path 1585" class="cls-1" d="M352.288,439.475a4.2,4.2,0,0,0,.315-.5,4.422,4.422,0,0,0,.255-.543,3.836,3.836,0,0,0,.175-.678,2.3,2.3,0,0,0-.23-1.493,3.036,3.036,0,0,0-1.549-1.28,2.634,2.634,0,0,0-.548.828,1.925,1.925,0,0,0-.167.784,2.826,2.826,0,0,0,.444,1.423A5.824,5.824,0,0,0,352.288,439.475Z" transform="translate(-345.498 -434.985)"/>
            <path id="Path_1586" data-name="Path 1586" class="cls-1" d="M358.957,438.1a6.546,6.546,0,0,1,.875-.942,3.9,3.9,0,0,1,.678-.465,2.857,2.857,0,0,1,.813-.307,3.048,3.048,0,0,1,2.094.356,4.215,4.215,0,0,1-.423,1.012,2.769,2.769,0,0,1-.585.685,2.489,2.489,0,0,1-1.251.571,3.655,3.655,0,0,1-1.225-.022,4.956,4.956,0,0,1-1.288-.419A4.374,4.374,0,0,1,358.957,438.1Z" transform="translate(-350.002 -435.754)"/>
          </g>
          <g id="Group_734" data-name="Group 734" transform="translate(0.328 50.839)">
            <path id="Path_1587" data-name="Path 1587" class="cls-1" d="M321.6,471.73l.16-.055c.1-.035.248-.082.427-.127a6.615,6.615,0,0,1,1.37-.193,3.754,3.754,0,0,1,.809.07,2.755,2.755,0,0,1,2.134,1.786,4.17,4.17,0,0,1-1.147.579,3.042,3.042,0,0,1-1.02.124,2.741,2.741,0,0,1-1.551-.631,4.2,4.2,0,0,1-.891-1.019A4.262,4.262,0,0,1,321.6,471.73Z" transform="translate(-321.601 -464.158)"/>
            <path id="Path_1588" data-name="Path 1588" class="cls-1" d="M330.557,467.355a4.715,4.715,0,0,1,.559-.253,6.008,6.008,0,0,1,1.33-.371,3.342,3.342,0,0,1,1.644.122,2.905,2.905,0,0,1,1.534,1.327,3.314,3.314,0,0,1-2.045.979,2.723,2.723,0,0,1-1.625-.419A4.549,4.549,0,0,1,330.557,467.355Z" transform="translate(-326.577 -461.477)"/>
            <path id="Path_1589" data-name="Path 1589" class="cls-1" d="M324.542,463.593a4.523,4.523,0,0,0,.541-.26,4.179,4.179,0,0,0,1.031-.827,2.425,2.425,0,0,0,.615-1.389,2.889,2.889,0,0,0-.63-1.872,3.266,3.266,0,0,0-.919.433,2.333,2.333,0,0,0-.566.589,2.818,2.818,0,0,0-.393,1.438A5.468,5.468,0,0,0,324.542,463.593Z" transform="translate(-323.056 -457.206)"/>
            <path id="Path_1590" data-name="Path 1590" class="cls-1" d="M332.723,458.97a2.91,2.91,0,0,0,.5-.331,3.887,3.887,0,0,0,.9-.955,2.421,2.421,0,0,0-.479-3.228,2.465,2.465,0,0,0-1.322,1.212,2.691,2.691,0,0,0-.186,1.473,5.318,5.318,0,0,0,.335,1.282A4.751,4.751,0,0,0,332.723,458.97Z" transform="translate(-327.439 -454.456)"/>
            <path id="Path_1591" data-name="Path 1591" class="cls-1" d="M339.018,461.639l.355-.218a6.121,6.121,0,0,1,1.2-.529h0l.005,0,.006,0h0a3.5,3.5,0,0,1,1.677-.134,2.928,2.928,0,0,1,1.767,1.125,3.416,3.416,0,0,1-1.6,1.162h0l-.007,0-.022.008,0,0a3.033,3.033,0,0,1-2.5-.441,4.809,4.809,0,0,1-1.011-.882Z" transform="translate(-331.205 -458.045)"/>
          </g>
        </g>
        <g id="Group_736" data-name="Group 736" transform="translate(0 2.42)">
          <path id="Path_1592" data-name="Path 1592" class="cls-1" d="M299.276,398.67l-.024-.837a32.477,32.477,0,0,0,10.156-1.887,31.55,31.55,0,0,0,8.948-5,30.751,30.751,0,0,0,6.754-7.542,29.4,29.4,0,0,0,3.785-9.263,29.7,29.7,0,0,0,.621-4.96c.006-.417.039-.834.023-1.251l-.044-1.251c0-.836-.14-1.662-.221-2.493a28.2,28.2,0,0,0-3.05-9.53,29.64,29.64,0,0,0-6.16-8.05,32.229,32.229,0,0,0-8.582-5.685l.086-.178a32.494,32.494,0,0,1,8.7,5.664,29.978,29.978,0,0,1,6.292,8.088,28.6,28.6,0,0,1,3.17,9.634c.089.842.238,1.68.245,2.528l.055,1.269c.02.423-.01.847-.013,1.27a29.091,29.091,0,0,1-4.369,14.514,31.366,31.366,0,0,1-6.834,7.755,32.283,32.283,0,0,1-9.122,5.186A33.323,33.323,0,0,1,299.276,398.67Z" transform="translate(-299.252 -340.747)"/>
        </g>
      </g>
      <g id="Group_745" data-name="Group 745">
        <g id="Group_743" data-name="Group 743">
          <path id="Path_1593" data-name="Path 1593" class="cls-1" d="M248.4,345.561a4.526,4.526,0,0,0,.441-.415,5.35,5.35,0,0,0,.4-.477,6.741,6.741,0,0,0,.418-.593,2.676,2.676,0,0,0-.336-3.369,3.46,3.46,0,0,0-1.659,1.507,2.073,2.073,0,0,0-.209.827,2.832,2.832,0,0,0,.069.788A4.413,4.413,0,0,0,248.4,345.561Z" transform="translate(-234.472 -338.304)"/>
          <path id="Path_1594" data-name="Path 1594" class="cls-1" d="M256.505,339.746a4.635,4.635,0,0,0,.5-.35,5.471,5.471,0,0,0,.467-.417c.082-.082.164-.17.245-.263s.168-.18.248-.278a2.656,2.656,0,0,0,.154-3.374,3.531,3.531,0,0,0-1.866,1.266,2.577,2.577,0,0,0-.366,1.588A4.337,4.337,0,0,0,256.505,339.746Z" transform="translate(-239.154 -335.064)"/>
          <path id="Path_1595" data-name="Path 1595" class="cls-1" d="M246.527,355.344a4.35,4.35,0,0,1,.445-.393,4.989,4.989,0,0,1,.5-.348c.1-.058.2-.115.3-.169s.229-.092.351-.131a2.672,2.672,0,0,1,3.187,1.131,2.343,2.343,0,0,1-1.519.981,2.958,2.958,0,0,1-1.53-.127A6.016,6.016,0,0,1,246.527,355.344Z" transform="translate(-233.96 -346.021)"/>
          <path id="Path_1596" data-name="Path 1596" class="cls-1" d="M253.6,349.264a4.494,4.494,0,0,1,.5-.329,4.244,4.244,0,0,1,1.236-.5,2.665,2.665,0,0,1,3,1.547,2.477,2.477,0,0,1-1.643.772,2.95,2.95,0,0,1-1.5-.33A5.956,5.956,0,0,1,253.6,349.264Z" transform="translate(-237.888 -342.714)"/>
          <path id="Path_1597" data-name="Path 1597" class="cls-1" d="M261.488,344.16a4.558,4.558,0,0,1,.544-.257,4.739,4.739,0,0,1,1.295-.329,2.717,2.717,0,0,1,1.543.352,2.972,2.972,0,0,1,1.211,1.581,2.778,2.778,0,0,1-.906.456,2.181,2.181,0,0,1-.429.075,2.018,2.018,0,0,1-.4.017,2.959,2.959,0,0,1-1.443-.53A5.9,5.9,0,0,1,261.488,344.16Z" transform="translate(-242.272 -339.947)"/>
          <path id="Path_1598" data-name="Path 1598" class="cls-1" d="M264.678,338.672a4.123,4.123,0,0,1,.143-.565,4.312,4.312,0,0,1,.566-1.164,2.617,2.617,0,0,1,1.27-.91,3.209,3.209,0,0,1,2.043.121,2.538,2.538,0,0,1-.215.958,2,2,0,0,1-.215.364,1.911,1.911,0,0,1-.243.307,2.92,2.92,0,0,1-1.349.722A6.279,6.279,0,0,1,264.678,338.672Z" transform="translate(-244.045 -335.555)"/>
          <g id="Group_738" data-name="Group 738" transform="translate(4.198 5.329)">
            <path id="Path_1599" data-name="Path 1599" class="cls-1" d="M229.754,369.194a4.324,4.324,0,0,0,.219-.554,5.138,5.138,0,0,0,.323-1.286,3.123,3.123,0,0,0-.237-1.572,2.838,2.838,0,0,0-1.466-1.384,4.822,4.822,0,0,0-.426.525,3.123,3.123,0,0,0-.267.524,2.7,2.7,0,0,0-.2.966,2.4,2.4,0,0,0,.522,1.524A4.7,4.7,0,0,0,229.754,369.194Z" transform="translate(-227.696 -357.236)"/>
            <path id="Path_1600" data-name="Path 1600" class="cls-1" d="M234.888,360.429a4.347,4.347,0,0,0,.3-.518,6.566,6.566,0,0,0,.5-1.235,2.925,2.925,0,0,0-.015-1.592,2.787,2.787,0,0,0-1.253-1.561,3.267,3.267,0,0,0-.829.952,2.718,2.718,0,0,0-.346.927,2.292,2.292,0,0,0,.015.839,2.874,2.874,0,0,0,.292.743A4.6,4.6,0,0,0,234.888,360.429Z" transform="translate(-230.761 -352.14)"/>
            <path id="Path_1601" data-name="Path 1601" class="cls-1" d="M231.475,378.286a4.146,4.146,0,0,1,.231-.536c.04-.078.084-.162.135-.248s.121-.172.19-.26a4.064,4.064,0,0,1,.485-.522,2.609,2.609,0,0,1,1.392-.68,3.269,3.269,0,0,1,2,.5,3.758,3.758,0,0,1-.392.9,1.993,1.993,0,0,1-.58.577,2.583,2.583,0,0,1-.723.319,3.865,3.865,0,0,1-.756.141A6.111,6.111,0,0,1,231.475,378.286Z" transform="translate(-229.796 -363.912)"/>
            <path id="Path_1602" data-name="Path 1602" class="cls-1" d="M235.358,369.983a4.221,4.221,0,0,1,.31-.5,3.806,3.806,0,0,1,.383-.467,4.147,4.147,0,0,1,.561-.451,2.675,2.675,0,0,1,1.484-.485,3.16,3.16,0,0,1,1.9.746,2.357,2.357,0,0,1-1.175,1.342,3.27,3.27,0,0,1-1.522.265A6.1,6.1,0,0,1,235.358,369.983Z" transform="translate(-231.953 -359.351)"/>
            <path id="Path_1603" data-name="Path 1603" class="cls-1" d="M240.408,362.292a4.335,4.335,0,0,1,.382-.45,3.438,3.438,0,0,1,1.061-.789,2.671,2.671,0,0,1,3.31.7,2.306,2.306,0,0,1-1.355,1.177,3.132,3.132,0,0,1-1.54.069A6.079,6.079,0,0,1,240.408,362.292Z" transform="translate(-234.759 -355.142)"/>
            <path id="Path_1604" data-name="Path 1604" class="cls-1" d="M242.16,350.928a2.95,2.95,0,0,0,.252-1.573,2.788,2.788,0,0,0-1.036-1.776,3.426,3.426,0,0,0-1.313,1.42h0v0c-.008.016-.017.032-.024.049l0,0a2.319,2.319,0,0,0-.162,1.31,3.326,3.326,0,0,0,.429,1.108,4.693,4.693,0,0,0,.837,1.033,4.428,4.428,0,0,0,.353-.442,5.557,5.557,0,0,0,.314-.5,5.012,5.012,0,0,0,.329-.6h0l.01-.023.005-.012Z" transform="translate(-234.448 -347.579)"/>
          </g>
          <g id="Group_739" data-name="Group 739" transform="translate(0.169 16.598)">
            <path id="Path_1605" data-name="Path 1605" class="cls-1" d="M221.894,398.851a4.26,4.26,0,0,0-.008-.591,4.729,4.729,0,0,0-.281-1.3,2.8,2.8,0,0,0-2.78-2.048,4.056,4.056,0,0,0-.195,1.227,2.86,2.86,0,0,0,.05.513,2.391,2.391,0,0,0,.16.448,2.705,2.705,0,0,0,1.14,1.194A4.775,4.775,0,0,0,221.894,398.851Z" transform="translate(-218.63 -386.024)"/>
            <path id="Path_1606" data-name="Path 1606" class="cls-1" d="M223.167,388.589s.007-.059.027-.161.039-.249.053-.425a4.648,4.648,0,0,0-.074-1.325,3.281,3.281,0,0,0-.658-1.446,2.961,2.961,0,0,0-1.811-.951,4.085,4.085,0,0,0-.384,1.188,2.529,2.529,0,0,0,.09.985,2.607,2.607,0,0,0,.943,1.332,4.337,4.337,0,0,0,1.211.635A4.575,4.575,0,0,0,223.167,388.589Z" transform="translate(-219.561 -379.922)"/>
            <path id="Path_1607" data-name="Path 1607" class="cls-1" d="M227.432,405.2a3.8,3.8,0,0,1,.294-1.835,2.554,2.554,0,0,1,1.031-1.158,3.207,3.207,0,0,1,2.022-.316,2.542,2.542,0,0,1,.009.982,2.238,2.238,0,0,1-.125.4,1.9,1.9,0,0,1-.173.351,2.976,2.976,0,0,1-1.159.991A6.091,6.091,0,0,1,227.432,405.2Z" transform="translate(-223.513 -390.012)"/>
            <path id="Path_1608" data-name="Path 1608" class="cls-1" d="M227.476,396.073s0-.059.007-.16.04-.244.081-.414a4.319,4.319,0,0,1,.479-1.2,2.541,2.541,0,0,1,.468-.585,2.483,2.483,0,0,1,.7-.43,3.249,3.249,0,0,1,2.054-.048,2.632,2.632,0,0,1-.144.97,1.879,1.879,0,0,1-.374.709,2.966,2.966,0,0,1-1.3.83,6.1,6.1,0,0,1-1.352.3A5.113,5.113,0,0,1,227.476,396.073Z" transform="translate(-223.545 -384.981)"/>
            <path id="Path_1609" data-name="Path 1609" class="cls-1" d="M228.835,387.043a3.592,3.592,0,0,1,.147-.562,4.4,4.4,0,0,1,.663-1.125,2.407,2.407,0,0,1,1.289-.854,3.269,3.269,0,0,1,2.046.226,2.5,2.5,0,0,1-.751,1.595,3.113,3.113,0,0,1-1.411.648A6.072,6.072,0,0,1,228.835,387.043Z" transform="translate(-224.3 -380.004)"/>
            <path id="Path_1610" data-name="Path 1610" class="cls-1" d="M225.678,375.272a2.875,2.875,0,0,0-1.683-1.228,3.826,3.826,0,0,0-.505.977,2.9,2.9,0,0,0-.116.882,2.678,2.678,0,0,0,1.247,2.112,5,5,0,0,0,1.206.626l.041-.148c.027-.094.048-.232.094-.393a4.729,4.729,0,0,0,.143-1.251A3.362,3.362,0,0,0,225.678,375.272Z" transform="translate(-221.265 -374.044)"/>
          </g>
          <g id="Group_740" data-name="Group 740" transform="translate(0 30.066)">
            <path id="Path_1611" data-name="Path 1611" class="cls-1" d="M225.954,429.237a4.365,4.365,0,0,0-.267-.534,5.211,5.211,0,0,0-.784-1.094,3.158,3.158,0,0,0-1.353-.9,3.048,3.048,0,0,0-2.062.094,3.53,3.53,0,0,0,.338,1.2,2.424,2.424,0,0,0,.6.8,2.711,2.711,0,0,0,1.534.663A4.866,4.866,0,0,0,225.954,429.237Z" transform="translate(-220.048 -417.67)"/>
            <path id="Path_1612" data-name="Path 1612" class="cls-1" d="M223.267,419.389s-.064-.23-.184-.565a5.71,5.71,0,0,0-.618-1.187,2.927,2.927,0,0,0-3.268-1.253,3.073,3.073,0,0,0,.631,2.106,2.76,2.76,0,0,0,1.429.858,4.488,4.488,0,0,0,1.387.117A4.635,4.635,0,0,0,223.267,419.389Z" transform="translate(-218.774 -411.768)"/>
            <path id="Path_1613" data-name="Path 1613" class="cls-1" d="M234.5,431.5a4.2,4.2,0,0,1-.25-.528A4.141,4.141,0,0,1,234,429.71a2.449,2.449,0,0,1,.442-1.449,3.139,3.139,0,0,1,1.728-1.068,3.127,3.127,0,0,1,.424.892,2.18,2.18,0,0,1,.047.8,2.806,2.806,0,0,1-.646,1.352A5.852,5.852,0,0,1,234.5,431.5Z" transform="translate(-226.998 -418.029)"/>
            <path id="Path_1614" data-name="Path 1614" class="cls-1" d="M230.963,423.039l-.058-.15c-.031-.1-.07-.238-.106-.408a3.6,3.6,0,0,1-.066-1.286,2.34,2.34,0,0,1,.646-1.376,3.156,3.156,0,0,1,1.859-.828,2.32,2.32,0,0,1,.221,1.738,2.821,2.821,0,0,1-.83,1.252,5.748,5.748,0,0,1-1.11.789A5.1,5.1,0,0,1,230.963,423.039Z" transform="translate(-225.167 -413.32)"/>
            <path id="Path_1615" data-name="Path 1615" class="cls-1" d="M228.6,414.232a4.1,4.1,0,0,1-.083-.575,3.6,3.6,0,0,1,.12-1.283,2.389,2.389,0,0,1,.838-1.278,3.17,3.17,0,0,1,1.955-.575,2.546,2.546,0,0,1,.156.97,2.02,2.02,0,0,1-.177.782,2.973,2.973,0,0,1-1,1.131A6.091,6.091,0,0,1,228.6,414.232Z" transform="translate(-223.944 -408.456)"/>
            <path id="Path_1616" data-name="Path 1616" class="cls-1" d="M221.82,408.647a5.16,5.16,0,0,0-.157-.559,4.807,4.807,0,0,0-.248-.641,3.562,3.562,0,0,0-.427-.687,2.727,2.727,0,0,0-.614-.594,3.034,3.034,0,0,0-2.066-.478,4.163,4.163,0,0,0-.04,1.087,2.708,2.708,0,0,0,.25.852,2.37,2.37,0,0,0,.905,1,3.594,3.594,0,0,0,1.131.452,5.034,5.034,0,0,0,1.355.114A4.251,4.251,0,0,0,221.82,408.647Z" transform="translate(-218.249 -405.672)"/>
          </g>
          <g id="Group_741" data-name="Group 741" transform="translate(3.094 42.548)">
            <path id="Path_1617" data-name="Path 1617" class="cls-1" d="M241.768,454.955a4.589,4.589,0,0,0-.463-.391,6.207,6.207,0,0,0-1.175-.7,3.411,3.411,0,0,0-1.617-.308,3.019,3.019,0,0,0-1.854.884,3.237,3.237,0,0,0,1.694,1.47,2.741,2.741,0,0,0,1.683.017A4.693,4.693,0,0,0,241.768,454.955Z" transform="translate(-231.571 -445.641)"/>
            <path id="Path_1618" data-name="Path 1618" class="cls-1" d="M235.3,447.187s-.152-.188-.408-.444a5.434,5.434,0,0,0-1.063-.849,3.31,3.31,0,0,0-1.558-.517,3.014,3.014,0,0,0-1.957.629,4.73,4.73,0,0,0,.3.6,3.639,3.639,0,0,0,.361.468,2.682,2.682,0,0,0,.8.617,2.84,2.84,0,0,0,1.663.238A4.8,4.8,0,0,0,235.3,447.187Z" transform="translate(-228.046 -440.949)"/>
            <path id="Path_1619" data-name="Path 1619" class="cls-1" d="M251.424,453.337a4.415,4.415,0,0,1-.445-.394,3.811,3.811,0,0,1-.758-1.063,2.329,2.329,0,0,1-.2-1.5,2.944,2.944,0,0,1,1.131-1.636,2.446,2.446,0,0,1,1.144,1.368,2.815,2.815,0,0,1-.027,1.486A5.613,5.613,0,0,1,251.424,453.337Z" transform="translate(-238.97 -442.886)"/>
            <path id="Path_1620" data-name="Path 1620" class="cls-1" d="M244.822,446.79a3.187,3.187,0,0,1-.388-.445,4.009,4.009,0,0,1-.6-1.154,2.344,2.344,0,0,1,.015-1.51,3.02,3.02,0,0,1,1.357-1.476,3.271,3.271,0,0,1,.662.749,2.033,2.033,0,0,1,.271.76,2.684,2.684,0,0,1-.238,1.469,5.314,5.314,0,0,1-.681,1.145A4.829,4.829,0,0,1,244.822,446.79Z" transform="translate(-235.493 -439.131)"/>
            <path id="Path_1621" data-name="Path 1621" class="cls-1" d="M239.142,439.475a4.273,4.273,0,0,1-.315-.5,4.431,4.431,0,0,1-.255-.543,3.879,3.879,0,0,1-.175-.678,2.3,2.3,0,0,1,.23-1.493,3.037,3.037,0,0,1,1.549-1.28,2.617,2.617,0,0,1,.548.828,1.924,1.924,0,0,1,.167.784,2.826,2.826,0,0,1-.444,1.423A5.823,5.823,0,0,1,239.142,439.475Z" transform="translate(-232.517 -434.985)"/>
            <path id="Path_1622" data-name="Path 1622" class="cls-1" d="M229.671,438.1a6.52,6.52,0,0,0-.875-.942,3.888,3.888,0,0,0-.678-.465,2.854,2.854,0,0,0-.812-.307,3.048,3.048,0,0,0-2.094.356,4.234,4.234,0,0,0,.423,1.012,2.769,2.769,0,0,0,.585.685,2.49,2.49,0,0,0,1.251.571,3.654,3.654,0,0,0,1.225-.022,4.949,4.949,0,0,0,1.288-.419A4.376,4.376,0,0,0,229.671,438.1Z" transform="translate(-225.211 -435.754)"/>
          </g>
          <g id="Group_742" data-name="Group 742" transform="translate(11.511 50.839)">
            <path id="Path_1623" data-name="Path 1623" class="cls-1" d="M266.866,471.73l-.16-.055c-.1-.035-.248-.082-.427-.127a6.615,6.615,0,0,0-1.37-.193,3.754,3.754,0,0,0-.809.07,2.756,2.756,0,0,0-2.134,1.786,4.168,4.168,0,0,0,1.147.579,3.042,3.042,0,0,0,1.02.124,2.741,2.741,0,0,0,1.551-.631,4.482,4.482,0,0,0,1.182-1.552Z" transform="translate(-254.049 -464.158)"/>
            <path id="Path_1624" data-name="Path 1624" class="cls-1" d="M257.7,467.355a4.711,4.711,0,0,0-.559-.253,6.008,6.008,0,0,0-1.33-.371,3.342,3.342,0,0,0-1.644.122,2.905,2.905,0,0,0-1.534,1.327,3.315,3.315,0,0,0,2.045.979,2.723,2.723,0,0,0,1.625-.419A4.55,4.55,0,0,0,257.7,467.355Z" transform="translate(-248.865 -461.477)"/>
            <path id="Path_1625" data-name="Path 1625" class="cls-1" d="M266.907,463.593a4.527,4.527,0,0,1-.541-.26,4.17,4.17,0,0,1-1.03-.827,2.419,2.419,0,0,1-.615-1.389,2.888,2.888,0,0,1,.63-1.872,3.265,3.265,0,0,1,.919.433,2.342,2.342,0,0,1,.566.589,2.813,2.813,0,0,1,.393,1.438A5.468,5.468,0,0,1,266.907,463.593Z" transform="translate(-255.576 -457.206)"/>
            <path id="Path_1626" data-name="Path 1626" class="cls-1" d="M258.831,458.97a2.926,2.926,0,0,1-.5-.331,3.894,3.894,0,0,1-.9-.955,2.421,2.421,0,0,1,.479-3.228,2.463,2.463,0,0,1,1.323,1.212,2.686,2.686,0,0,1,.187,1.473,5.343,5.343,0,0,1-.335,1.282A4.676,4.676,0,0,1,258.831,458.97Z" transform="translate(-251.299 -454.456)"/>
            <path id="Path_1627" data-name="Path 1627" class="cls-1" d="M249.156,461.639l-.354-.218a6.148,6.148,0,0,0-1.2-.529h0l-.005,0-.005,0h0a3.5,3.5,0,0,0-1.677-.134,2.929,2.929,0,0,0-1.767,1.125,3.416,3.416,0,0,0,1.6,1.162h0l.008,0,.022.008,0,0a3.032,3.032,0,0,0,2.5-.441,4.809,4.809,0,0,0,1.011-.882Z" transform="translate(-244.152 -458.045)"/>
          </g>
        </g>
        <g id="Group_744" data-name="Group 744" transform="translate(3.457 2.397)">
          <path id="Path_1628" data-name="Path 1628" class="cls-1" d="M256.942,397.805l-.021.837a33.312,33.312,0,0,1-10.423-1.978,32.232,32.232,0,0,1-9.147-5.155,31.3,31.3,0,0,1-6.869-7.735,29.833,29.833,0,0,1-3.82-9.461,30.233,30.233,0,0,1-.613-5.052c-.006-.424-.028-.848-.02-1.272l.053-1.271a24.7,24.7,0,0,1,.236-2.532c.028-.21.044-.422.082-.631l.123-.625.247-1.249c.083-.416.219-.821.325-1.232s.217-.822.352-1.225a30.136,30.136,0,0,1,2.006-4.7c.2-.376.4-.755.609-1.128l.688-1.086c.435-.738.979-1.409,1.481-2.1.244-.353.541-.668.816-1l.84-.981.907-.924c.3-.307.6-.623.931-.9a32.577,32.577,0,0,1,8.693-5.706l.086.178a32.3,32.3,0,0,0-8.579,5.727c-.328.279-.616.594-.914.9l-.891.922-.823.978c-.269.33-.561.643-.8,1-.491.693-1.024,1.359-1.447,2.093l-.671,1.079c-.2.37-.4.747-.593,1.119a29.8,29.8,0,0,0-1.942,4.654c-.13.4-.223.809-.337,1.212s-.233.806-.311,1.217L226.963,363l-.117.617c-.036.206-.05.415-.076.622a24.258,24.258,0,0,0-.212,2.5l-.042,1.252c0,.418.02.835.029,1.252a29.752,29.752,0,0,0,.644,4.964,29.322,29.322,0,0,0,3.826,9.259,30.7,30.7,0,0,0,6.788,7.523,31.509,31.509,0,0,0,8.972,4.966A32.467,32.467,0,0,0,256.942,397.805Z" transform="translate(-226.028 -340.693)"/>
        </g>
      </g>
    </g>
  </g>
</svg>
