<?xml version="1.0" encoding="UTF-8" standalone="no"?>
<svg
   xmlns:dc="http://purl.org/dc/elements/1.1/"
   xmlns:cc="http://creativecommons.org/ns#"
   xmlns:rdf="http://www.w3.org/1999/02/22-rdf-syntax-ns#"
   xmlns:svg="http://www.w3.org/2000/svg"
   xmlns="http://www.w3.org/2000/svg"
   xmlns:sodipodi="http://sodipodi.sourceforge.net/DTD/sodipodi-0.dtd"
   xmlns:inkscape="http://www.inkscape.org/namespaces/inkscape"
   width="110.06667mm"
   height="161.39108mm"
   viewBox="0 0 110.06667 161.39108"
   version="1.1"
   id="svg8"
   inkscape:version="1.0.1 (3bc2e813f5, 2020-09-07)"
   sodipodi:docname="holes_played.svg">
  <defs
     id="defs2" />
  <sodipodi:namedview
     id="base"
     pagecolor="#ffffff"
     bordercolor="#666666"
     borderopacity="1.0"
     inkscape:pageopacity="0.0"
     inkscape:pageshadow="2"
     inkscape:zoom="0.35"
     inkscape:cx="-108.15586"
     inkscape:cy="527.23736"
     inkscape:document-units="mm"
     inkscape:current-layer="layer1"
     inkscape:document-rotation="0"
     showgrid="false"
     inkscape:window-width="1920"
     inkscape:window-height="1017"
     inkscape:window-x="-8"
     inkscape:window-y="383"
     inkscape:window-maximized="1"
     fit-margin-top="0"
     fit-margin-left="0"
     fit-margin-right="0"
     fit-margin-bottom="0" />
  <metadata
     id="metadata5">
    <rdf:RDF>
      <cc:Work
         rdf:about="">
        <dc:format>image/svg+xml</dc:format>
        <dc:type
           rdf:resource="http://purl.org/dc/dcmitype/StillImage" />
        <dc:title></dc:title>
      </cc:Work>
    </rdf:RDF>
  </metadata>
  <g
     inkscape:label="Layer 1"
     inkscape:groupmode="layer"
     id="layer1"
     transform="translate(-53.067855,-53.219046)">
    <path
       fill="currentColor"
       d="m 78.467855,163.28572 h 59.266665 c 0,4.68312 -3.78354,8.46666 -8.46666,8.46666 h -4.23334 c -4.68312,0 -8.46666,3.78354 -8.46666,8.46667 v 30.61607 c 0,1.74625 -1.42875,3.175 -3.175,3.175 0,0 -7.3241,1.35002 -10.58334,0 -1.38278,-0.57277 -3.174998,-1.42875 -3.174998,-3.175 v -30.61607 c 0,-4.68313 -3.783542,-8.46667 -8.466667,-8.46667 h -4.233333 c -4.683125,0 -8.466667,-3.78354 -8.466667,-8.46666 z m 84.666675,-55.03334 c 0,19.63208 -10.31876,36.83 -25.79688,46.56667 H 78.86473 c -15.478125,-9.73667 -25.796875,-26.93459 -25.796875,-46.56667 0,-30.400626 24.632708,-55.033334 55.033335,-55.033334 30.40062,0 55.03334,24.632708 55.03334,55.033334 z m -47.65147,11.61521 c 4.84188,0 8.75771,-3.91584 8.75771,-8.75771 0,-3.81 -2.46062,-6.95854 -5.84729,-8.17563 2.54,7.09084 -4.1275,13.57313 -11.08604,11.08605 1.21708,3.38666 4.36562,5.84729 8.17562,5.84729 z m 12.99105,12.40896 c 0,-3.81 -2.46063,-6.95855 -5.8473,-8.17563 2.54,7.09083 -4.1275,13.57313 -11.08604,11.08604 1.21709,3.38667 4.36563,5.84729 8.17563,5.84729 4.84187,0 8.75771,-3.94229 8.75771,-8.7577 z m 16.93333,-16.93334 c 0,-3.81 -2.46063,-6.95854 -5.84729,-8.17562 2.54,7.09083 -4.1275,13.57312 -11.08604,11.08604 1.21708,3.38667 4.36562,5.84729 8.17562,5.84729 4.84188,0 8.75771,-3.94229 8.75771,-8.75771 z"
       id="path84"
       style="stroke-width:0.264583"
       sodipodi:nodetypes="ccsssssssssscsccsssssccssccsssccss" />
  </g>
</svg>
