<svg xmlns="http://www.w3.org/2000/svg" xmlns:xlink="http://www.w3.org/1999/xlink" width="133.145" height="120.875" viewBox="0 0 133.145 120.875"><defs><linearGradient id="a" x1="0.073" y1="0.775" x2="0.073" y2="2.454" gradientUnits="objectBoundingBox"><stop offset="0.377" stop-color="#fff"/><stop offset="0.521" stop-color="#fafafa"/><stop offset="0.668" stop-color="#eee"/><stop offset="0.738" stop-color="#e6e6e6"/></linearGradient><linearGradient id="b" x1="0.5" y1="-0.233" x2="0.5" y2="1.446" gradientUnits="objectBoundingBox"><stop offset="0" stop-color="#fff"/><stop offset="0.398" stop-color="#fafafa"/><stop offset="0.806" stop-color="#eee"/><stop offset="1" stop-color="#e6e6e6"/></linearGradient><filter id="c" x="0" y="0" width="133.145" height="120.875" filterUnits="userSpaceOnUse"><feOffset dy="6" input="SourceAlpha"/><feGaussianBlur stdDeviation="5" result="d"/><feFlood flood-opacity="0.161"/><feComposite operator="in" in2="d"/><feComposite in="SourceGraphic"/></filter><linearGradient id="e" x1="0.5" y1="0" x2="0.5" y2="1" xlink:href="#b"/><linearGradient id="f" x1="0.5" y1="-0.441" x2="0.5" y2="1.534" gradientUnits="objectBoundingBox"><stop offset="0" stop-color="#ddf6d6"/><stop offset="0.186" stop-color="#50916c"/><stop offset="1" stop-color="#53f51a" stop-opacity="0.388"/></linearGradient></defs><g transform="translate(-5869.713 -3438.713)"><g transform="translate(5884 3447)"><path d="M983.373,1304.958H917.315a18.738,18.738,0,0,1-18.543-18.927v-53.021a18.738,18.738,0,0,1,18.543-18.926h66.058a18.737,18.737,0,0,1,18.543,18.926v53.021A18.738,18.738,0,0,1,983.373,1304.958Z" transform="translate(-898.772 -1214.083)" fill="url(#a)"/><g transform="matrix(1, 0, 0, 1, -14.29, -8.29)" filter="url(#c)"><path d="M918.8,1215.083h66.058a18.738,18.738,0,0,1,18.543,18.926v53.021a18.738,18.738,0,0,1-18.543,18.927H918.8a18.738,18.738,0,0,1-18.543-18.927v-53.021A18.738,18.738,0,0,1,918.8,1215.083Z" transform="translate(-885.26 -1206.08)" fill="url(#b)"/></g><g transform="translate(97.393 86.327) rotate(180)"><path d="M15.019,0H74.527A15.072,15.072,0,0,1,89.548,15.019V65.6A15.072,15.072,0,0,1,74.527,80.622H15.019A15.071,15.071,0,0,1,0,65.6V15.019A15.07,15.07,0,0,1,15.019,0Z" stroke="#5fbc81" stroke-width="1" fill-rule="evenodd" fill="url(#e)"/></g></g><g transform="translate(5910.751 3468.87)"><g transform="translate(0 0)"><g transform="translate(6.901 0)"><path d="M164.347,152.439v5.571a18.136,18.136,0,0,0,11.919,16.9c1.4.688,4.112,2.308,4.125,4.52v6.891c0,1.876-2.188,3.348-2.188,3.348h0a7.668,7.668,0,0,0-3.405,6.316h15.342a7.663,7.663,0,0,0-3.928-6.635c-.007-.029-.086-.074-.27-.144h0c-.1-.052-.2-.1-.308-.148a3.084,3.084,0,0,1-1.253-2.57V180.05a5.677,5.677,0,0,1,3.013-4.731,18.131,18.131,0,0,0,13.2-17.309v-5.571Z" transform="translate(-164.347 -152.439)" fill="url(#f)"/></g><g transform="translate(14.603 40.702)"><path d="M210.937,296.591H190.1l2.107-8.064h16.626Z" transform="translate(-190.099 -288.527)" fill="url(#f)"/></g><g transform="translate(0 6.238)"><path d="M154.043,185.842a7.585,7.585,0,0,1-3.424-.665c-3.873-1.6-6.4-9.881-1.863-9.614s-.528-1.737-.528-1.737a2.93,2.93,0,0,0-4.284,1.07s-2.269-.263-2.67-1.6c0,0-.115,18.262,14.962,14.271h0A18.3,18.3,0,0,1,154.043,185.842Z" transform="translate(-141.273 -173.295)" fill="url(#f)"/></g><g transform="translate(35.101 6.238)"><path d="M273.6,173.295c-.4,1.338-2.669,1.6-2.669,1.6a2.931,2.931,0,0,0-4.285-1.07s-5.063,2.005-.528,1.737,2.007,8.012-1.864,9.614a7.556,7.556,0,0,1-3.444.663,18.09,18.09,0,0,1-2.175,1.712v.014C273.716,191.557,273.6,173.295,273.6,173.295Z" transform="translate(-258.636 -173.295)" fill="url(#f)"/></g></g></g></g></svg>