<svg id="Group_1962" data-name="Group 1962" xmlns="http://www.w3.org/2000/svg" xmlns:xlink="http://www.w3.org/1999/xlink" width="60.636" height="32.785" viewBox="0 0 60.636 32.785">
  <defs>
    <linearGradient id="linear-gradient" x1="0.5" y1="-3.765" x2="0.5" y2="5.24" gradientUnits="objectBoundingBox">
      <stop offset="0" stop-color="#ddf6d6"/>
      <stop offset="0.2" stop-color="#50916c"/>
      <stop offset="1" stop-color="#53f51a" stop-opacity="0.388"/>
    </linearGradient>
  </defs>
  <path id="Path_4339" data-name="Path 4339" d="M495.083,1135.416h0a6.107,6.107,0,1,0-.024-12.214h0a6.125,6.125,0,0,0-6.095,6.119h0a6.125,6.125,0,0,0,6.119,6.1Z" transform="translate(-464.794 -1123.202)" fill-rule="evenodd" fill="url(#linear-gradient)"/>
  <path id="Path_4340" data-name="Path 4340" d="M499.066,1169.9h0a2.172,2.172,0,0,1-2.169-2.161l-.005-2.607-.005-2.626a7.245,7.245,0,0,0-7.232-7.2h0a7.245,7.245,0,0,0-7.2,7.232l.005,2.6v2.749a2.173,2.173,0,0,1-2.156,2.02h0a2.172,2.172,0,0,1-2.169-2.161l-.01-5.2a11.576,11.576,0,0,1,11.526-11.571h0a11.578,11.578,0,0,1,11.571,11.526l.005,2.635v2.749a2.173,2.173,0,0,1-2.156,2.02Z" transform="translate(-459.356 -1137.131)" fill-rule="evenodd" fill="url(#linear-gradient)"/>
  <path id="Path_4341" data-name="Path 4341" d="M452,1143.573h0a6.107,6.107,0,1,0-.023-12.214h0a6.125,6.125,0,0,0-6.1,6.119h0a6.124,6.124,0,0,0,6.119,6.1Zm-7.2,14.492a2.165,2.165,0,0,1-4.323-.174l0-1.155v-.012h0A11.577,11.577,0,0,1,452,1145.2h0a11.578,11.578,0,0,1,11.571,11.526v1.349a2.165,2.165,0,0,1-4.323-.173l0-1.155v-.013h-.005a7.245,7.245,0,0,0-7.232-7.2h0a7.245,7.245,0,0,0-7.2,7.2H444.8v1.329Zm-2.153,1.987Zm18.772.013Z" transform="translate(-440.474 -1127.293)" fill-rule="evenodd" fill="url(#linear-gradient)"/>
  <path id="Path_4342" data-name="Path 4342" d="M527.31,1143.6h0a6.108,6.108,0,1,0-.023-12.215h0a6.125,6.125,0,0,0-6.1,6.12h0a6.124,6.124,0,0,0,6.118,6.1Zm-7.2,14.491a2.165,2.165,0,0,1-4.323-.174l0-1.155v-.013h0a11.577,11.577,0,0,1,11.526-11.522h0a11.576,11.576,0,0,1,11.571,11.527v1.349a2.165,2.165,0,0,1-4.323-.174l0-1.155v-.012h-.005a7.245,7.245,0,0,0-7.232-7.2h0a7.245,7.245,0,0,0-7.2,7.2h-.005v1.328Zm-2.154,1.988Zm18.772.012Z" transform="translate(-478.247 -1127.306)" fill-rule="evenodd" fill="url(#linear-gradient)"/>
</svg>
