<svg xmlns="http://www.w3.org/2000/svg" xmlns:xlink="http://www.w3.org/1999/xlink" width="133.145" height="120.875" viewBox="0 0 133.145 120.875"><defs><linearGradient id="a" x1="0.073" y1="0.775" x2="0.073" y2="2.454" gradientUnits="objectBoundingBox"><stop offset="0.377" stop-color="#fff"/><stop offset="0.521" stop-color="#fafafa"/><stop offset="0.668" stop-color="#eee"/><stop offset="0.738" stop-color="#e6e6e6"/></linearGradient><linearGradient id="b" x1="0.5" y1="-0.233" x2="0.5" y2="1.446" gradientUnits="objectBoundingBox"><stop offset="0" stop-color="#fff"/><stop offset="0.398" stop-color="#fafafa"/><stop offset="0.806" stop-color="#eee"/><stop offset="1" stop-color="#e6e6e6"/></linearGradient><filter id="c" x="0" y="0" width="133.145" height="120.875" filterUnits="userSpaceOnUse"><feOffset dy="6" input="SourceAlpha"/><feGaussianBlur stdDeviation="5" result="d"/><feFlood flood-opacity="0.161"/><feComposite operator="in" in2="d"/><feComposite in="SourceGraphic"/></filter><linearGradient id="e" x1="0.5" y1="0" x2="0.5" y2="1" xlink:href="#b"/><linearGradient id="f" x1="0.439" y1="-0.311" x2="0.555" y2="1.286" gradientUnits="objectBoundingBox"><stop offset="0" stop-color="#ddf6d6"/><stop offset="0.379" stop-color="#50916c"/><stop offset="1" stop-color="#53f51a" stop-opacity="0.388"/></linearGradient><linearGradient id="g" x1="1.782" y1="-0.489" x2="-0.512" y2="0.997" gradientUnits="objectBoundingBox"><stop offset="0" stop-color="#ddf6d6"/><stop offset="0.371" stop-color="#50916c"/><stop offset="1" stop-color="#53f51a" stop-opacity="0.388"/></linearGradient></defs><g transform="translate(-5924.713 -3573.713)"><path d="M983.373,1304.958H917.315a18.738,18.738,0,0,1-18.543-18.927v-53.021a18.738,18.738,0,0,1,18.543-18.926h66.058a18.737,18.737,0,0,1,18.543,18.926v53.021A18.738,18.738,0,0,1,983.373,1304.958Z" transform="translate(5040.228 2367.917)" fill="url(#a)"/><g transform="matrix(1, 0, 0, 1, 5924.71, 3573.71)" filter="url(#c)"><path d="M918.8,1215.083h66.058a18.738,18.738,0,0,1,18.543,18.926v53.021a18.738,18.738,0,0,1-18.543,18.927H918.8a18.738,18.738,0,0,1-18.543-18.927v-53.021A18.738,18.738,0,0,1,918.8,1215.083Z" transform="translate(-885.26 -1206.08)" fill="url(#b)"/></g><path d="M15.019,0H74.527A15.072,15.072,0,0,1,89.548,15.019V65.6A15.072,15.072,0,0,1,74.527,80.622H15.019A15.071,15.071,0,0,1,0,65.6V15.019A15.07,15.07,0,0,1,15.019,0Z" transform="translate(6036.394 3668.327) rotate(180)" stroke="#5fbc81" stroke-width="1" fill-rule="evenodd" fill="url(#e)"/><g transform="translate(4 -1)"><path d="M44.159,21.319l-.644-.078.333-2.737-1.04-.127.7-5.787a1.666,1.666,0,0,0-1.452-1.855A1.018,1.018,0,0,1,41.175,9.6l.151-1.241a1.668,1.668,0,0,0-1.452-1.855l-1.261-.153.069-.568a1.946,1.946,0,0,0-1.7-2.167L7.4.014a1.948,1.948,0,0,0-2.168,1.7L.015,44.534a1.947,1.947,0,0,0,1.7,2.168l29.589,3.6a1.947,1.947,0,0,0,2.167-1.7L38.535,7l1.26.154a1.018,1.018,0,0,1,.887,1.132l-.151,1.242a1.668,1.668,0,0,0,1.453,1.855,1.018,1.018,0,0,1,.887,1.132L42.165,18.3l-.329-.04-.966-.117h0l-1.046-.127-.333,2.737-.886-.108-.108.885.886.108L36.555,44.849l1.16,6.238,1.037-2.079h0l1.829-3.669,2.827-23.212.644.078ZM35.9,7.626a1.268,1.268,0,1,1,.306-2.517,1.252,1.252,0,0,1,1.08,1.082L36.573,6.1a.324.324,0,1,0-.079.644l.716.087A1.25,1.25,0,0,1,35.9,7.626Z" transform="translate(5962.937 3606.87) rotate(-7)" fill="#1c4e07" opacity="0.5" style="mix-blend-mode:multiply;isolation:isolate"/><g transform="translate(5961.032 3605.116) rotate(-7)" style="isolation:isolate"><g transform="translate(0 0)"><path d="M36.985,3.618,7.4.014a1.948,1.948,0,0,0-2.168,1.7L.015,44.534a1.947,1.947,0,0,0,1.7,2.168l29.589,3.6a1.947,1.947,0,0,0,2.167-1.7L38.682,5.785A1.946,1.946,0,0,0,36.985,3.618ZM35.9,7.626a1.268,1.268,0,1,1,1.411-1.1A1.268,1.268,0,0,1,35.9,7.626Z" fill="url(#f)"/><g transform="translate(2.181 7.558)"><g transform="translate(0 0)"><path d="M25.249,39.264,0,36.189,4.407,0,33.78,3.577,29.848,35.86Z" fill="#fefffe"/></g></g><g transform="translate(4.19 9.987)" opacity="0.79"><g transform="translate(0 0)"><g transform="translate(0)"><path d="M25.893,34.907,0,31.753,3.867,0,29.76,3.153ZM.723,31.187l24.6,3,3.71-30.466-24.6-3Z" fill="#52b677"/></g></g><g transform="translate(0.953 25.963)"><g transform="translate(0 0)"><rect width="0.649" height="25.436" transform="matrix(0.121, -0.993, 0.993, 0.121, 0, 0.644)" fill="#52b677"/></g></g><g transform="translate(1.585 20.778)"><g transform="translate(0 0)"><rect width="0.649" height="25.436" transform="matrix(0.121, -0.993, 0.993, 0.121, 0, 0.644)" fill="#52b677"/></g></g><g transform="translate(2.216 15.593)"><g transform="translate(0 0)"><rect width="0.649" height="25.436" transform="matrix(0.121, -0.993, 0.993, 0.121, 0, 0.644)" fill="#52b677"/></g></g><g transform="translate(2.848 10.409)"><g transform="translate(0 0)"><rect width="0.649" height="25.436" transform="matrix(0.121, -0.993, 0.993, 0.121, 0, 0.644)" fill="#52b677"/></g></g><g transform="translate(3.479 5.224)"><g transform="translate(0 0)"><rect width="0.649" height="25.436" transform="translate(0 0.644) rotate(-83.056)" fill="#52b677"/></g></g><g transform="translate(21.079 2.885)"><g transform="translate(0 0)"><rect width="31.339" height="0.649" transform="matrix(0.121, -0.993, 0.993, 0.121, 0, 31.109)" fill="#52b677"/></g></g><g transform="translate(16.87 2.372)"><g transform="translate(0 0)"><rect width="31.339" height="0.649" transform="matrix(0.121, -0.993, 0.993, 0.121, 0, 31.109)" fill="#52b677"/></g></g><g transform="translate(12.664 1.859)"><g transform="translate(0 0)"><rect width="31.339" height="0.649" transform="translate(0 31.11) rotate(-83.059)" fill="#52b677"/></g></g><g transform="translate(8.456 1.347)"><g transform="translate(0 0)"><rect width="31.339" height="0.649" transform="matrix(0.121, -0.993, 0.993, 0.121, 0, 31.109)" fill="#52b677"/></g></g><g transform="translate(4.247 0.834)"><g transform="translate(0 0)"><rect width="31.339" height="0.649" transform="matrix(0.121, -0.993, 0.993, 0.121, 0, 31.109)" fill="#52b677"/></g></g></g><g transform="translate(27.43 42.959)"><g transform="translate(0 0)"><path d="M4.6.459.831,0,0,3.862Z" transform="translate(0 0)" fill="#bdc3c7"/></g></g><g transform="translate(8.062 10.535)"><g transform="translate(0 0)"><path d="M1.73,5.1c-.324-.039-.6-.346-1.73-2.71l1.172-.559c.246.515.535,1.093.765,1.524C2.413,2.781,3.264,1.777,4.8,0l.983.847C4.324,2.536,2.694,4.45,2.465,4.765L2.308,5.1l-.427.012A1.247,1.247,0,0,1,1.73,5.1Z" transform="translate(0 0)" fill="#89b899"/></g></g><g transform="translate(18.53 27.595)"><g transform="translate(0 0)"><path d="M1.729,5.1c-.324-.039-.6-.347-1.729-2.71l1.172-.559c.246.515.535,1.093.764,1.524C2.412,2.781,3.263,1.776,4.8,0l.983.847c-1.457,1.688-3.086,3.6-3.315,3.918l-.157.33-.425.013A1.277,1.277,0,0,1,1.729,5.1Z" fill="#89b899"/></g></g><g transform="translate(8.497 37.2)"><g transform="translate(0 0)"><path d="M1.73,5.1c-.324-.039-.6-.347-1.73-2.71l1.171-.559c.247.515.537,1.093.766,1.524C2.413,2.781,3.265,1.777,4.8,0l.982.847c-1.456,1.688-3.086,3.6-3.314,3.918l-.158.33-.425.013A1.263,1.263,0,0,1,1.73,5.1Z" transform="translate(0)" fill="#86b398"/></g></g><g transform="translate(28.477 18.311)"><g transform="translate(0 0)"><rect width="1.297" height="5.928" transform="translate(0 0.606) rotate(-27.858)" fill="#9fe089"/></g></g><g transform="translate(27.871 19.025)"><g transform="translate(0 0)"><rect width="5.607" height="1.297" transform="matrix(0.83, -0.558, 0.558, 0.83, 0, 3.13)" fill="#9fe089"/></g></g><g transform="translate(10.969 21.454)"><g transform="translate(0 0)"><rect width="1.297" height="5.928" transform="translate(0 0.606) rotate(-27.853)" fill="#9fe089"/></g></g><g transform="translate(10.362 22.167)"><g transform="translate(0 0)"><rect width="5.608" height="1.297" transform="translate(0 3.131) rotate(-33.939)" fill="#9fe089"/></g></g><g transform="translate(11.6 3.008)"><g transform="translate(0 0)"><path d="M17.52,6.477,2.025,4.589A2.3,2.3,0,0,1,.017,2.025h0A2.3,2.3,0,0,1,2.581.017L18.078,1.9a2.3,2.3,0,0,1,2.007,2.564h0A2.3,2.3,0,0,1,17.52,6.477Z" fill="#fff"/></g></g><g transform="translate(14.965 5.738)"><g transform="translate(0 0)"><path d="M10.233,5.59l-8.208-1A2.3,2.3,0,0,1,.017,2.026h0A2.3,2.3,0,0,1,2.582.017l8.207,1A2.3,2.3,0,0,1,12.8,3.581h0A2.3,2.3,0,0,1,10.233,5.59Z" fill="#fff"/></g></g><g transform="translate(28.362 6.163)"><g transform="translate(0 0)"><path d="M2.064,1.161a1.036,1.036,0,1,1-.9-1.153A1.035,1.035,0,0,1,2.064,1.161Z" fill="#89b899"/></g></g><g transform="translate(13 4.292)"><g transform="translate(0 0)"><path d="M2.064,1.161a1.036,1.036,0,1,1-.9-1.153A1.036,1.036,0,0,1,2.064,1.161Z" fill="#89b899"/></g></g><g transform="translate(16.133 4.444)"><g transform="translate(0 0)"><path d="M9.895,1.037,1.455.01A1.3,1.3,0,0,0,.01,1.141h0A1.3,1.3,0,0,0,1.14,2.586L9.581,3.613a1.3,1.3,0,0,0,1.445-1.131h0A1.3,1.3,0,0,0,9.895,1.037Z" fill="#89b899"/></g></g></g><g transform="translate(36.556 18.014)"><g transform="translate(0 0)"><g transform="translate(0 0)"><rect width="27.033" height="4.054" transform="matrix(0.121, -0.993, 0.993, 0.121, 0, 26.834)" fill="url(#g)"/></g></g><g transform="translate(1.047 0.127)"><g transform="translate(0 0)"><rect width="27.033" height="1.946" transform="matrix(0.121, -0.993, 0.993, 0.121, 0, 26.834)" fill="url(#g)"/></g></g><g transform="translate(0 26.834)"><path d="M0,0,1.16,6.238,4.025.49Z" fill="url(#g)"/></g><g transform="translate(0.74 30.816)"><g transform="translate(0 0)"><path d="M0,0,.42,2.257,1.456.177Z" fill="url(#g)"/></g></g></g><g transform="translate(38.497 20.643)"><g transform="translate(0 0)"><rect width="0.892" height="5.595" transform="translate(0 0.885) rotate(-83.056)" fill="#26326a"/></g></g><g transform="translate(36.209 6.102)"><g transform="translate(0 0)"><path d="M5.73,16.738a.324.324,0,0,1-.282-.361L6.662,6.409a1.018,1.018,0,0,0-.887-1.132A1.668,1.668,0,0,1,4.322,3.422L4.473,2.18a1.018,1.018,0,0,0-.887-1.132l-3.3-.4A.324.324,0,1,1,.364,0l3.3.4A1.668,1.668,0,0,1,5.117,2.259L4.966,3.5a1.018,1.018,0,0,0,.887,1.133A1.666,1.666,0,0,1,7.3,6.488L6.092,16.455A.324.324,0,0,1,5.73,16.738Z" fill="#0a121b"/></g></g><g transform="translate(40.768 20.186)"><g transform="translate(0 0)"><path d="M1.171,2.654A1.332,1.332,0,1,1,2.654,1.493,1.334,1.334,0,0,1,1.171,2.654Zm.244-2a.683.683,0,1,0,.6.76A.684.684,0,0,0,1.414.654Z" fill="#0a121b"/></g></g></g></g></g></svg>