<svg id="Group_1972" data-name="Group 1972" xmlns="http://www.w3.org/2000/svg" xmlns:xlink="http://www.w3.org/1999/xlink" width="50.066" height="48.766" viewBox="0 0 50.066 48.766">
  <defs>
    <linearGradient id="linear-gradient" x1="0.5" y1="-0.441" x2="0.5" y2="1.534" gradientUnits="objectBoundingBox">
      <stop offset="0" stop-color="#ddf6d6"/>
      <stop offset="0.186" stop-color="#50916c"/>
      <stop offset="1" stop-color="#53f51a" stop-opacity="0.388"/>
    </linearGradient>
  </defs>
  <g id="Group_1971" data-name="Group 1971" transform="translate(0 0)">
    <g id="Group_1966" data-name="Group 1966" transform="translate(6.901 0)">
      <path id="Path_6533" data-name="Path 6533" d="M164.347,152.439v5.571a18.136,18.136,0,0,0,11.919,16.9c1.4.688,4.112,2.308,4.125,4.52v6.891c0,1.876-2.188,3.348-2.188,3.348h0a7.668,7.668,0,0,0-3.405,6.316h15.342a7.663,7.663,0,0,0-3.928-6.635c-.007-.029-.086-.074-.27-.144h0c-.1-.052-.2-.1-.308-.148a3.084,3.084,0,0,1-1.253-2.57V180.05a5.677,5.677,0,0,1,3.013-4.731,18.131,18.131,0,0,0,13.2-17.309v-5.571Z" transform="translate(-164.347 -152.439)" fill="url(#linear-gradient)"/>
    </g>
    <g id="Group_1967" data-name="Group 1967" transform="translate(14.603 40.702)">
      <path id="Path_6534" data-name="Path 6534" d="M210.937,296.591H190.1l2.107-8.064h16.626Z" transform="translate(-190.099 -288.527)" fill="url(#linear-gradient)"/>
    </g>
    <g id="Group_1969" data-name="Group 1969" transform="translate(0 6.238)">
      <path id="Path_6535" data-name="Path 6535" d="M154.043,185.842a7.585,7.585,0,0,1-3.424-.665c-3.873-1.6-6.4-9.881-1.863-9.614s-.528-1.737-.528-1.737a2.93,2.93,0,0,0-4.284,1.07s-2.269-.263-2.67-1.6c0,0-.115,18.262,14.962,14.271h0A18.3,18.3,0,0,1,154.043,185.842Z" transform="translate(-141.273 -173.295)" fill="url(#linear-gradient)"/>
    </g>
    <g id="Group_1970" data-name="Group 1970" transform="translate(35.101 6.238)">
      <path id="Path_6536" data-name="Path 6536" d="M273.6,173.295c-.4,1.338-2.669,1.6-2.669,1.6a2.931,2.931,0,0,0-4.285-1.07s-5.063,2.005-.528,1.737,2.007,8.012-1.864,9.614a7.556,7.556,0,0,1-3.444.663,18.09,18.09,0,0,1-2.175,1.712v.014C273.716,191.557,273.6,173.295,273.6,173.295Z" transform="translate(-258.636 -173.295)" fill="url(#linear-gradient)"/>
    </g>
  </g>
</svg>
