<svg id="Group_1963" data-name="Group 1963" xmlns="http://www.w3.org/2000/svg" xmlns:xlink="http://www.w3.org/1999/xlink" width="66.771" height="52.521" viewBox="0 0 66.771 52.521">
  <defs>
    <linearGradient id="linear-gradient" x1="0.5" y1="-1.54" x2="0.5" y2="3.387" gradientUnits="objectBoundingBox">
      <stop offset="0" stop-color="#ddf6d6"/>
      <stop offset="0.248" stop-color="#50916c"/>
      <stop offset="1" stop-color="#53f51a" stop-opacity="0.388"/>
    </linearGradient>
  </defs>
  <g id="Group_1683" data-name="Group 1683" transform="translate(0 19.16)">
    <rect id="Rectangle_645" data-name="Rectangle 645" width="9.39" height="22.119" transform="translate(0 0)" fill="url(#linear-gradient)"/>
  </g>
  <g id="Group_1684" data-name="Group 1684" transform="translate(13.107 6.571)">
    <rect id="Rectangle_646" data-name="Rectangle 646" width="9.39" height="34.95" transform="translate(0 0)" fill="url(#linear-gradient)"/>
  </g>
  <g id="Group_1685" data-name="Group 1685" transform="translate(26.235 11.838)">
    <rect id="Rectangle_647" data-name="Rectangle 647" width="9.39" height="29.684" transform="translate(0 0)" fill="url(#linear-gradient)"/>
  </g>
  <g id="Group_1686" data-name="Group 1686" transform="translate(39.364 0)">
    <rect id="Rectangle_648" data-name="Rectangle 648" width="9.39" height="41.522" transform="translate(0 0)" fill="url(#linear-gradient)"/>
  </g>
  <g id="Group_1687" data-name="Group 1687" transform="translate(51.155 37.426)">
    <path id="Path_4381" data-name="Path 4381" d="M778.5,705.009a15.054,15.054,0,0,0,10.339-4.653l-10.91-10.442Z" transform="translate(-777.932 -689.914)" fill="url(#linear-gradient)"/>
  </g>
  <path id="Path_4382" data-name="Path 4382" d="M790.423,668.262a15.091,15.091,0,0,0,1.072-19.634l-11.983,9.192Z" transform="translate(-727.848 -624.517)" fill="url(#linear-gradient)"/>
  <path id="Path_4383" data-name="Path 4383" d="M721.328,643.644a15.478,15.478,0,0,0,.212,1.978q.063.368.143.729a15.3,15.3,0,0,0,.423,1.53c.071.215.147.427.228.637q.265.691.592,1.347c.094.191.193.379.3.565q.339.616.732,1.2c.115.17.231.338.352.5q.451.61.958,1.174.2.223.411.44.471.484.984.926c.151.13.306.258.463.383q.532.424,1.1.8c.169.113.34.223.514.328.4.242.8.467,1.22.672q.282.139.571.266a15.137,15.137,0,0,0,1.514.574c.212.068.425.133.641.191a15.449,15.449,0,0,0,1.532.334q.359.059.724.1a15.491,15.491,0,0,0,1.749.1c.205,0,.411,0,.619-.008a.3.3,0,0,0,.288-.311l-.024-.634-.072-1.909-.032-.848-.072-1.908-.032-.849-.08-2.121-.032-.848-.072-1.908-.032-.849-.072-1.908-.032-.849-.012-.311,1.039-.8,2.834-2.174,6.378-4.893,1.609-1.235a.3.3,0,0,0,.115-.2.3.3,0,0,0-.06-.223c-.02-.026-.041-.049-.061-.074-.28-.36-.577-.7-.885-1.033-.137-.147-.274-.292-.417-.433q-.481-.478-1-.908c-.155-.129-.311-.254-.47-.376-.4-.309-.814-.6-1.242-.868-.174-.109-.354-.209-.532-.31q-.61-.348-1.248-.64c-.193-.087-.387-.174-.584-.253-.455-.185-.92-.344-1.392-.485-.216-.064-.432-.125-.651-.18a15.209,15.209,0,0,0-1.552-.313c-.245-.035-.493-.061-.74-.084a15.291,15.291,0,0,0-1.988-.063h-.042c-.278.01-.553.029-.826.054a15.312,15.312,0,0,0-2.173.358c-.375.09-.743.195-1.106.311a15.315,15.315,0,0,0-3.153,1.414,15.61,15.61,0,0,0-5.971,6.442,15.308,15.308,0,0,0-1.172,3.25c-.088.372-.165.747-.226,1.128a15.432,15.432,0,0,0-.193,2.193c0,.275,0,.55.009.828C721.326,643.615,721.327,643.63,721.328,643.644Z" transform="translate(-688.418 -610.28)" fill="url(#linear-gradient)"/>
</svg>
