<svg xmlns="http://www.w3.org/2000/svg" xmlns:xlink="http://www.w3.org/1999/xlink" width="133.145" height="120.875" viewBox="0 0 133.145 120.875"><defs><linearGradient id="a" x1="0.073" y1="0.775" x2="0.073" y2="2.454" gradientUnits="objectBoundingBox"><stop offset="0.377" stop-color="#fff"/><stop offset="0.521" stop-color="#fafafa"/><stop offset="0.668" stop-color="#eee"/><stop offset="0.738" stop-color="#e6e6e6"/></linearGradient><linearGradient id="b" x1="0.5" y1="-0.233" x2="0.5" y2="1.446" gradientUnits="objectBoundingBox"><stop offset="0" stop-color="#fff"/><stop offset="0.398" stop-color="#fafafa"/><stop offset="0.806" stop-color="#eee"/><stop offset="1" stop-color="#e6e6e6"/></linearGradient><filter id="c" x="0" y="0" width="133.145" height="120.875" filterUnits="userSpaceOnUse"><feOffset dy="6" input="SourceAlpha"/><feGaussianBlur stdDeviation="5" result="d"/><feFlood flood-opacity="0.161"/><feComposite operator="in" in2="d"/><feComposite in="SourceGraphic"/></filter><linearGradient id="e" x1="0.5" y1="0" x2="0.5" y2="1" xlink:href="#b"/><linearGradient id="f" x1="0.5" y1="-3.765" x2="0.5" y2="5.24" gradientUnits="objectBoundingBox"><stop offset="0" stop-color="#ddf6d6"/><stop offset="0.2" stop-color="#50916c"/><stop offset="1" stop-color="#53f51a" stop-opacity="0.388"/></linearGradient></defs><g transform="translate(-5835.713 -3713.713)"><g transform="translate(5850 3722)"><path d="M983.373,1304.958H917.315a18.738,18.738,0,0,1-18.543-18.927v-53.021a18.738,18.738,0,0,1,18.543-18.926h66.058a18.737,18.737,0,0,1,18.543,18.926v53.021A18.738,18.738,0,0,1,983.373,1304.958Z" transform="translate(-898.772 -1214.083)" fill="url(#a)"/><g transform="matrix(1, 0, 0, 1, -14.29, -8.29)" filter="url(#c)"><path d="M918.8,1215.083h66.058a18.738,18.738,0,0,1,18.543,18.926v53.021a18.738,18.738,0,0,1-18.543,18.927H918.8a18.738,18.738,0,0,1-18.543-18.927v-53.021A18.738,18.738,0,0,1,918.8,1215.083Z" transform="translate(-885.26 -1206.08)" fill="url(#b)"/></g><g transform="translate(97.393 86.327) rotate(180)"><path d="M15.019,0H74.527A15.072,15.072,0,0,1,89.548,15.019V65.6A15.072,15.072,0,0,1,74.527,80.622H15.019A15.071,15.071,0,0,1,0,65.6V15.019A15.07,15.07,0,0,1,15.019,0Z" stroke="#5fbc81" stroke-width="1" fill-rule="evenodd" fill="url(#e)"/></g></g><g transform="translate(5872.181 3750.992)"><path d="M495.083,1135.416h0a6.107,6.107,0,1,0-.024-12.214h0a6.125,6.125,0,0,0-6.095,6.119h0a6.125,6.125,0,0,0,6.119,6.1Z" transform="translate(-464.794 -1123.202)" fill-rule="evenodd" fill="url(#f)"/><path d="M499.066,1169.9h0a2.172,2.172,0,0,1-2.169-2.161l-.005-2.607-.005-2.626a7.245,7.245,0,0,0-7.232-7.2h0a7.245,7.245,0,0,0-7.2,7.232l.005,2.6v2.749a2.173,2.173,0,0,1-2.156,2.02h0a2.172,2.172,0,0,1-2.169-2.161l-.01-5.2a11.576,11.576,0,0,1,11.526-11.571h0a11.578,11.578,0,0,1,11.571,11.526l.005,2.635v2.749a2.173,2.173,0,0,1-2.156,2.02Z" transform="translate(-459.356 -1137.131)" fill-rule="evenodd" fill="url(#f)"/><path d="M452,1143.573h0a6.107,6.107,0,1,0-.023-12.214h0a6.125,6.125,0,0,0-6.1,6.119h0a6.124,6.124,0,0,0,6.119,6.1Zm-7.2,14.492a2.165,2.165,0,0,1-4.323-.174l0-1.155v-.012h0A11.577,11.577,0,0,1,452,1145.2h0a11.578,11.578,0,0,1,11.571,11.526v1.349a2.165,2.165,0,0,1-4.323-.173l0-1.155v-.013h-.005a7.245,7.245,0,0,0-7.232-7.2h0a7.245,7.245,0,0,0-7.2,7.2H444.8v1.329Zm-2.153,1.987Zm18.772.013Z" transform="translate(-440.474 -1127.293)" fill-rule="evenodd" fill="url(#f)"/><path d="M527.31,1143.6h0a6.108,6.108,0,1,0-.023-12.215h0a6.125,6.125,0,0,0-6.1,6.12h0a6.124,6.124,0,0,0,6.118,6.1Zm-7.2,14.491a2.165,2.165,0,0,1-4.323-.174l0-1.155v-.013h0a11.577,11.577,0,0,1,11.526-11.522h0a11.576,11.576,0,0,1,11.571,11.527v1.349a2.165,2.165,0,0,1-4.323-.174l0-1.155v-.012h-.005a7.245,7.245,0,0,0-7.232-7.2h0a7.245,7.245,0,0,0-7.2,7.2h-.005v1.328Zm-2.154,1.988Zm18.772.012Z" transform="translate(-478.247 -1127.306)" fill-rule="evenodd" fill="url(#f)"/></g></g></svg>