<svg xmlns="http://www.w3.org/2000/svg" xmlns:xlink="http://www.w3.org/1999/xlink" width="76.756" height="33.767" viewBox="0 0 76.756 33.767">
  <defs>
    <linearGradient id="linear-gradient" x1="0.5" y1="-0.299" x2="0.5" y2="1.208" gradientUnits="objectBoundingBox">
      <stop offset="0" stop-color="#ddf6d6"/>
      <stop offset="0.366" stop-color="#50916c"/>
      <stop offset="1" stop-color="#53f51a" stop-opacity="0.388"/>
    </linearGradient>
  </defs>
  <g id="Group_2035" data-name="Group 2035" transform="translate(-63.264 -458.233)">
    <text id="ID" transform="translate(97 489)" fill="#95e284" font-size="8" font-family="MicrosoftTaiLe-Bold, Microsoft Tai Le" font-weight="700" opacity="0.8"><tspan x="0" y="0">ID</tspan></text>
    <g id="Group_1973" data-name="Group 1973" transform="translate(114.615 458.233)">
      <path id="Path_6537" data-name="Path 6537" d="M266,208.287a4.846,4.846,0,0,0-1.372-1.184c-.989-.585-1.131-1.136-1.131-1.136a7.924,7.924,0,0,0-.243,2.182c-.024,1.55.7,2.158,1.873,2.8.29.158.513.295.681.41-.052.375-.112.749-.179,1.119a4.793,4.793,0,0,0-1.415-1.286c-.983-.6-1.117-1.151-1.117-1.151a7.958,7.958,0,0,0-.27,2.18c-.043,1.55.67,2.166,1.838,2.822.115.064.22.126.314.184q-.174.59-.374,1.169a4.662,4.662,0,0,0-1.357-1.573c-.917-.7-.994-1.259-.994-1.259a8,8,0,0,0-.491,2.141c-.2,1.536.445,2.222,1.542,2.993.106.076.2.145.29.211-.169.366-.346.728-.532,1.082a4.571,4.571,0,0,0-1.3-1.849,2.265,2.265,0,0,1-.9-1.331,8.047,8.047,0,0,0-.65,2.1c-.317,1.518.276,2.249,1.312,3.1.086.073.166.14.239.2q-.309.479-.638.941a4.44,4.44,0,0,0-1.111-2.22,2.266,2.266,0,0,1-.728-1.428,7.986,7.986,0,0,0-.9,2c-.5,1.467,0,2.268.924,3.238.115.122.216.233.3.332-.345.4-.7.794-1.07,1.174a4.33,4.33,0,0,0-.928-2.483,2.268,2.268,0,0,1-.608-1.485,8,8,0,0,0-1.063,1.922c-.617,1.422-.186,2.26.654,3.3.1.122.183.233.259.335q-.707.615-1.456,1.179a4.159,4.159,0,0,0-.518-2.924,2.259,2.259,0,0,1-.4-1.554,8.06,8.06,0,0,0-1.315,1.761c-.8,1.323-.491,2.212.2,3.362.128.213.229.4.308.552q-.75.477-1.53.9a3.938,3.938,0,0,0-.067-3.421,2.266,2.266,0,0,1-.264-1.582,8.028,8.028,0,0,0-1.46,1.64c-.917,1.251-.681,2.163-.092,3.367a7.415,7.415,0,0,1,.337.779c-.558.26-1.128.5-1.7.724a3.763,3.763,0,0,0,.281-3.894,2.259,2.259,0,0,1-.249-1.584,7.955,7.955,0,0,0-1.476,1.625c-.93,1.24-.7,2.155-.127,3.364a7.123,7.123,0,0,1,.373.916l-.918,1.422a5.911,5.911,0,0,1,.533,1.008c.541,1.225,1.084,2,2.63,2.1a7.988,7.988,0,0,0,2.2-.058s-.538-.186-1.038-1.221a3.892,3.892,0,0,0-2.692-2.283q.7-.22,1.39-.476a6.767,6.767,0,0,1,.489.92c.551,1.22,1.1,1.985,2.65,2.075a8.016,8.016,0,0,0,2.2-.079s-.54-.183-1.05-1.213a3.842,3.842,0,0,0-2.867-2.276c.633-.277,1.254-.58,1.862-.9a6.429,6.429,0,0,1,.6.919c.656,1.169,1.273,1.882,2.821,1.84a7.98,7.98,0,0,0,2.18-.267s-.552-.136-1.149-1.117a3.769,3.769,0,0,0-3.307-2.02,27.215,27.215,0,0,0,2.34-1.565,5.539,5.539,0,0,1,.8.9c.808,1.068,1.515,1.692,3.044,1.439a7.991,7.991,0,0,0,2.123-.563s-.565-.059-1.292-.951a3.706,3.706,0,0,0-3.816-1.491,27.243,27.243,0,0,0,2.2-1.988,7,7,0,0,1,.722.713c.893,1,1.65,1.563,3.153,1.184a7.953,7.953,0,0,0,2.069-.736,2.259,2.259,0,0,1-1.366-.841,3.762,3.762,0,0,0-3.7-1.242q.83-.918,1.573-1.911a6.263,6.263,0,0,1,.863.659c1.008.883,1.829,1.35,3.274.791a7.908,7.908,0,0,0,1.966-.981,2.257,2.257,0,0,1-1.459-.669,3.72,3.72,0,0,0-3.993-.709,27.186,27.186,0,0,0,1.455-2.373,6.912,6.912,0,0,1,.762.512c1.073.8,1.926,1.208,3.324.541a7.953,7.953,0,0,0,1.885-1.127,2.26,2.26,0,0,1-1.5-.558,3.761,3.761,0,0,0-3.894-.483,26.749,26.749,0,0,0,1.1-2.611,8.375,8.375,0,0,1,.737.4c1.148.691,2.038,1.006,3.361.2a7.979,7.979,0,0,0,1.76-1.313,2.258,2.258,0,0,1-1.552-.4,3.76,3.76,0,0,0-3.9-.1q.392-1.273.663-2.6l.163.093c1.156.678,2.049.982,3.363.159a8,8,0,0,0,1.745-1.334,2.259,2.259,0,0,1-1.558-.382,3.933,3.933,0,0,0-3.412-.318c.023-.18.046-.359.068-.541a.058.058,0,0,0,0-.01c.174-.029.385-.055.637-.079,1.334-.119,2.239-.389,2.831-1.822a7.946,7.946,0,0,0,.646-2.1,2.263,2.263,0,0,1-1.49.594,4.505,4.505,0,0,0-2.212.863,2.365,2.365,0,0,0-1.017,1.415h0A2.652,2.652,0,0,0,266,208.287Zm.684,1.822Z" transform="translate(-246.784 -205.967)" fill-rule="evenodd" fill="url(#linear-gradient)"/>
    </g>
    <g id="Group_1974" data-name="Group 1974" transform="translate(63.264 458.233)">
      <path id="Path_6537-2" data-name="Path 6537" d="M252.974,208.287a4.846,4.846,0,0,1,1.372-1.184c.989-.585,1.131-1.136,1.131-1.136a7.926,7.926,0,0,1,.243,2.182c.024,1.55-.7,2.158-1.873,2.8-.29.158-.513.295-.681.41.052.375.112.749.179,1.119a4.793,4.793,0,0,1,1.415-1.286c.983-.6,1.117-1.151,1.117-1.151a7.958,7.958,0,0,1,.27,2.18c.043,1.55-.67,2.166-1.838,2.822-.115.064-.22.126-.314.184q.174.59.374,1.169a4.662,4.662,0,0,1,1.357-1.573c.917-.7.994-1.259.994-1.259a8,8,0,0,1,.491,2.141c.2,1.536-.445,2.222-1.542,2.993-.106.076-.2.145-.29.211.169.366.346.728.532,1.082a4.571,4.571,0,0,1,1.3-1.849,2.265,2.265,0,0,0,.9-1.331,8.047,8.047,0,0,1,.65,2.1c.317,1.518-.276,2.249-1.312,3.1-.086.073-.166.14-.239.2q.309.479.638.941a4.439,4.439,0,0,1,1.111-2.22,2.267,2.267,0,0,0,.728-1.428,7.985,7.985,0,0,1,.9,2c.5,1.467,0,2.268-.924,3.238-.115.122-.216.233-.3.332.345.4.7.794,1.07,1.174a4.33,4.33,0,0,1,.928-2.483,2.268,2.268,0,0,0,.608-1.485,8,8,0,0,1,1.063,1.922c.617,1.422.186,2.26-.654,3.3-.1.122-.183.233-.259.335q.707.615,1.456,1.179a4.159,4.159,0,0,1,.518-2.924,2.26,2.26,0,0,0,.4-1.554,8.059,8.059,0,0,1,1.315,1.761c.8,1.323.491,2.212-.2,3.362-.128.213-.229.4-.308.552q.75.477,1.53.9a3.938,3.938,0,0,1,.067-3.421,2.266,2.266,0,0,0,.264-1.582,8.03,8.03,0,0,1,1.46,1.64c.917,1.251.681,2.163.092,3.367a7.427,7.427,0,0,0-.337.779c.558.26,1.128.5,1.7.724a3.763,3.763,0,0,1-.281-3.894,2.259,2.259,0,0,0,.249-1.584,7.955,7.955,0,0,1,1.476,1.625c.93,1.24.7,2.155.127,3.364a7.119,7.119,0,0,0-.373.916l.918,1.422a5.912,5.912,0,0,0-.533,1.008c-.541,1.225-1.084,2-2.63,2.1a7.988,7.988,0,0,1-2.2-.058s.538-.186,1.038-1.221a3.892,3.892,0,0,1,2.692-2.283q-.7-.22-1.389-.476a6.765,6.765,0,0,0-.489.92c-.551,1.22-1.1,1.985-2.65,2.075a8.016,8.016,0,0,1-2.2-.079s.54-.183,1.05-1.213a3.842,3.842,0,0,1,2.867-2.276c-.633-.277-1.254-.58-1.862-.9a6.429,6.429,0,0,0-.6.919c-.656,1.169-1.273,1.882-2.821,1.84a7.981,7.981,0,0,1-2.18-.267s.552-.136,1.149-1.117a3.769,3.769,0,0,1,3.307-2.02,27.2,27.2,0,0,1-2.34-1.565,5.536,5.536,0,0,0-.8.9c-.808,1.068-1.515,1.692-3.044,1.439a7.992,7.992,0,0,1-2.123-.563s.565-.059,1.292-.951a3.706,3.706,0,0,1,3.816-1.491,27.243,27.243,0,0,1-2.2-1.988,7.009,7.009,0,0,0-.722.713c-.893,1-1.65,1.563-3.153,1.184a7.954,7.954,0,0,1-2.069-.736,2.259,2.259,0,0,0,1.366-.841,3.762,3.762,0,0,1,3.7-1.242q-.83-.918-1.573-1.911a6.263,6.263,0,0,0-.863.659c-1.008.883-1.829,1.35-3.274.791a7.909,7.909,0,0,1-1.966-.981,2.257,2.257,0,0,0,1.459-.669,3.719,3.719,0,0,1,3.992-.709,27.188,27.188,0,0,1-1.455-2.373,6.906,6.906,0,0,0-.762.512c-1.074.8-1.926,1.208-3.324.541a7.954,7.954,0,0,1-1.885-1.127,2.261,2.261,0,0,0,1.5-.558,3.761,3.761,0,0,1,3.894-.483,26.758,26.758,0,0,1-1.1-2.611,8.374,8.374,0,0,0-.737.4c-1.148.691-2.038,1.006-3.361.2a7.979,7.979,0,0,1-1.76-1.313,2.258,2.258,0,0,0,1.552-.4,3.76,3.76,0,0,1,3.9-.1q-.392-1.273-.663-2.6l-.163.093c-1.156.678-2.049.982-3.363.16a8,8,0,0,1-1.745-1.334,2.259,2.259,0,0,0,1.558-.382,3.933,3.933,0,0,1,3.412-.318c-.023-.18-.046-.359-.068-.541a.06.06,0,0,1,0-.01c-.174-.029-.385-.055-.637-.079-1.334-.119-2.239-.389-2.831-1.822a7.946,7.946,0,0,1-.646-2.1,2.263,2.263,0,0,0,1.49.594,4.505,4.505,0,0,1,2.212.863,2.365,2.365,0,0,1,1.017,1.415h0A2.652,2.652,0,0,1,252.974,208.287Zm-.684,1.822Z" transform="translate(-246.784 -205.967)" fill-rule="evenodd" fill="url(#linear-gradient)"/>
    </g>
  </g>
</svg>
