<svg xmlns="http://www.w3.org/2000/svg" xmlns:xlink="http://www.w3.org/1999/xlink" width="61.626" height="70.595" viewBox="0 0 61.626 70.595">
  <defs>
    <linearGradient id="linear-gradient" x1="0.5" y1="-2.71" x2="0.5" y2="4.404" gradientUnits="objectBoundingBox">
      <stop offset="0" stop-color="#ddf6d6"/>
      <stop offset="0.205" stop-color="#50916c"/>
      <stop offset="1" stop-color="#53f51a" stop-opacity="0.388"/>
    </linearGradient>
  </defs>
  <g id="Group_2006" data-name="Group 2006" transform="translate(-315.846 -0.952)">
    <g id="Group_1995" data-name="Group 1995" transform="translate(312.734 0.952)">
      <path id="Path_6551" data-name="Path 6551" d="M522.144,150.1l2.955,5.909,6.8-12.03-3.838-5.118-6.16,10.951A.812.812,0,0,1,522.144,150.1Z" transform="translate(-467.162 -138.865)" fill="url(#linear-gradient)"/>
      <path id="Path_6552" data-name="Path 6552" d="M231.379,278.511V274.46a.812.812,0,0,1,.215-.549,8.188,8.188,0,1,1,12.671,0,.813.813,0,0,1,.215.549v4.05a15.856,15.856,0,0,0,13.595-9.915,8.574,8.574,0,0,1,.5-1.016l8.894-15.736,0,0L264.7,244.92l-.929,1.652a11.354,11.354,0,0,1-9.885,5.781h-32.41a4.836,4.836,0,0,0-4.831,4.831v5.486A15.97,15.97,0,0,0,231.379,278.511Z" transform="translate(-213.53 -227.106)" fill="url(#linear-gradient)"/>
      <path id="Path_6553" data-name="Path 6553" d="M509.656,218.824a.82.82,0,0,1-.216-.27l-2.97-5.941-2.069,3.678,2.771,6.928Z" transform="translate(-452.391 -200.154)" fill="url(#linear-gradient)"/>
      <path id="Path_6554" data-name="Path 6554" d="M309.59,346.1a6.549,6.549,0,0,0-4.115,11.645,6.484,6.484,0,0,0,2.458,1.246q.133.035.269.064.27.058.547.093a6.707,6.707,0,0,0,.841.053,6.586,6.586,0,0,0,1.657-.209,6.568,6.568,0,0,0,4.893-6.341A6.557,6.557,0,0,0,309.59,346.1Z" transform="translate(-285.654 -311.101)" fill="url(#linear-gradient)"/>
      <path id="Path_6555" data-name="Path 6555" d="M223.068,445.159l.182-.321V429.446h1.439a2.438,2.438,0,0,0,2.409-2.461l0-4.09-.021.016-.116.085c-.051.038-.1.076-.155.112l-.123.083c-.051.035-.1.069-.155.1l-.129.079c-.052.032-.1.063-.156.093l-.133.075-.159.086-.136.069-.162.079-.139.064-.164.072-.142.058-.167.064-.144.052-.17.057-.145.046-.173.05-.146.04-.177.043-.146.033-.181.036-.144.027c-.062.011-.125.02-.188.029l-.14.021c-.066.008-.133.015-.2.022l-.131.014c-.074.006-.148.011-.223.015l-.11.007c-.111,0-.222.007-.333.007s-.223,0-.333-.007l-.11-.007c-.074,0-.148-.008-.223-.015-.044,0-.087-.009-.131-.014-.066-.007-.133-.013-.2-.022l-.14-.021c-.063-.009-.125-.018-.188-.029l-.144-.027-.182-.036-.146-.033-.176-.043-.146-.04-.173-.05-.145-.046-.17-.057-.144-.052-.167-.065-.142-.058-.165-.072-.139-.064-.162-.079-.136-.069-.16-.087-.132-.074c-.053-.031-.106-.063-.158-.095l-.127-.078c-.053-.034-.106-.069-.158-.1s-.081-.053-.12-.081-.106-.076-.159-.115l-.112-.082-.022-.016h0v4.09a2.438,2.438,0,0,0,2.409,2.461h1.76v15.393l1.021.721c-.443,0,0-.652,0-.2s-.643.2-.2.2h.4c.443,0-.2.252-.2-.2S223.51,445.159,223.068,445.159Z" transform="translate(-198.401 -375.035)" fill="url(#linear-gradient)"/>
    </g>
  </g>
</svg>
