<svg xmlns="http://www.w3.org/2000/svg" xmlns:xlink="http://www.w3.org/1999/xlink" width="133.145" height="120.875" viewBox="0 0 133.145 120.875"><defs><linearGradient id="a" x1="0.073" y1="0.775" x2="0.073" y2="2.454" gradientUnits="objectBoundingBox"><stop offset="0.377" stop-color="#fff"/><stop offset="0.521" stop-color="#fafafa"/><stop offset="0.668" stop-color="#eee"/><stop offset="0.738" stop-color="#e6e6e6"/></linearGradient><linearGradient id="b" x1="0.5" y1="-0.233" x2="0.5" y2="1.446" gradientUnits="objectBoundingBox"><stop offset="0" stop-color="#fff"/><stop offset="0.398" stop-color="#fafafa"/><stop offset="0.806" stop-color="#eee"/><stop offset="1" stop-color="#e6e6e6"/></linearGradient><filter id="c" x="0" y="0" width="133.145" height="120.875" filterUnits="userSpaceOnUse"><feOffset dy="6" input="SourceAlpha"/><feGaussianBlur stdDeviation="5" result="d"/><feFlood flood-opacity="0.161"/><feComposite operator="in" in2="d"/><feComposite in="SourceGraphic"/></filter><linearGradient id="e" x1="0.5" y1="0" x2="0.5" y2="1" xlink:href="#b"/><linearGradient id="f" x1="0.5" y1="-1.54" x2="0.5" y2="3.387" gradientUnits="objectBoundingBox"><stop offset="0" stop-color="#ddf6d6"/><stop offset="0.248" stop-color="#50916c"/><stop offset="1" stop-color="#53f51a" stop-opacity="0.388"/></linearGradient></defs><g transform="translate(-5514.713 -3763.713)"><g transform="translate(5529 3772)"><path d="M983.373,1304.958H917.315a18.738,18.738,0,0,1-18.543-18.927v-53.021a18.738,18.738,0,0,1,18.543-18.926h66.058a18.737,18.737,0,0,1,18.543,18.926v53.021A18.738,18.738,0,0,1,983.373,1304.958Z" transform="translate(-898.772 -1214.083)" fill="url(#a)"/><g transform="matrix(1, 0, 0, 1, -14.29, -8.29)" filter="url(#c)"><path d="M918.8,1215.083h66.058a18.738,18.738,0,0,1,18.543,18.926v53.021a18.738,18.738,0,0,1-18.543,18.927H918.8a18.738,18.738,0,0,1-18.543-18.927v-53.021A18.738,18.738,0,0,1,918.8,1215.083Z" transform="translate(-885.26 -1206.08)" fill="url(#b)"/></g><g transform="translate(97.393 86.327) rotate(180)"><path d="M15.019,0H74.527A15.072,15.072,0,0,1,89.548,15.019V65.6A15.072,15.072,0,0,1,74.527,80.622H15.019A15.071,15.071,0,0,1,0,65.6V15.019A15.07,15.07,0,0,1,15.019,0Z" stroke="#5fbc81" stroke-width="1" fill-rule="evenodd" fill="url(#e)"/></g></g><g transform="translate(5547.641 3791.913)"><g transform="translate(0 19.16)"><rect width="9.39" height="22.119" transform="translate(0 0)" fill="url(#f)"/></g><g transform="translate(13.107 6.571)"><rect width="9.39" height="34.95" transform="translate(0 0)" fill="url(#f)"/></g><g transform="translate(26.235 11.838)"><rect width="9.39" height="29.684" transform="translate(0 0)" fill="url(#f)"/></g><g transform="translate(39.364 0)"><rect width="9.39" height="41.522" transform="translate(0 0)" fill="url(#f)"/></g><g transform="translate(51.155 37.426)"><path d="M778.5,705.009a15.054,15.054,0,0,0,10.339-4.653l-10.91-10.442Z" transform="translate(-777.932 -689.914)" fill="url(#f)"/></g><path d="M790.423,668.262a15.091,15.091,0,0,0,1.072-19.634l-11.983,9.192Z" transform="translate(-727.848 -624.517)" fill="url(#f)"/><path d="M721.328,643.644a15.478,15.478,0,0,0,.212,1.978q.063.368.143.729a15.3,15.3,0,0,0,.423,1.53c.071.215.147.427.228.637q.265.691.592,1.347c.094.191.193.379.3.565q.339.616.732,1.2c.115.17.231.338.352.5q.451.61.958,1.174.2.223.411.44.471.484.984.926c.151.13.306.258.463.383q.532.424,1.1.8c.169.113.34.223.514.328.4.242.8.467,1.22.672q.282.139.571.266a15.137,15.137,0,0,0,1.514.574c.212.068.425.133.641.191a15.449,15.449,0,0,0,1.532.334q.359.059.724.1a15.491,15.491,0,0,0,1.749.1c.205,0,.411,0,.619-.008a.3.3,0,0,0,.288-.311l-.024-.634-.072-1.909-.032-.848-.072-1.908-.032-.849-.08-2.121-.032-.848-.072-1.908-.032-.849-.072-1.908-.032-.849-.012-.311,1.039-.8,2.834-2.174,6.378-4.893,1.609-1.235a.3.3,0,0,0,.115-.2.3.3,0,0,0-.06-.223c-.02-.026-.041-.049-.061-.074-.28-.36-.577-.7-.885-1.033-.137-.147-.274-.292-.417-.433q-.481-.478-1-.908c-.155-.129-.311-.254-.47-.376-.4-.309-.814-.6-1.242-.868-.174-.109-.354-.209-.532-.31q-.61-.348-1.248-.64c-.193-.087-.387-.174-.584-.253-.455-.185-.92-.344-1.392-.485-.216-.064-.432-.125-.651-.18a15.209,15.209,0,0,0-1.552-.313c-.245-.035-.493-.061-.74-.084a15.291,15.291,0,0,0-1.988-.063h-.042c-.278.01-.553.029-.826.054a15.312,15.312,0,0,0-2.173.358c-.375.09-.743.195-1.106.311a15.315,15.315,0,0,0-3.153,1.414,15.61,15.61,0,0,0-5.971,6.442,15.308,15.308,0,0,0-1.172,3.25c-.088.372-.165.747-.226,1.128a15.432,15.432,0,0,0-.193,2.193c0,.275,0,.55.009.828C721.326,643.615,721.327,643.63,721.328,643.644Z" transform="translate(-688.418 -610.28)" fill="url(#f)"/></g></g></svg>