<svg xmlns="http://www.w3.org/2000/svg" width="18.42" height="17.541" viewBox="0 0 18.42 17.541">
  <g id="Group_1314" data-name="Group 1314" transform="translate(0.15 0.151)">
    <g id="Group_1312" data-name="Group 1312" transform="translate(0 0)">
      <path id="Path_3354" data-name="Path 3354" d="M45.5,107.515a2.057,2.057,0,0,1-1.956-1.995,1.715,1.715,0,0,1,.082-.518,1.983,1.983,0,0,1-1.209-1.793,1.837,1.837,0,0,1,.312-1.035,1.9,1.9,0,0,1-.543-1.326,1.675,1.675,0,0,1,.611-1.338,1.937,1.937,0,0,1-.476-1.351,1.844,1.844,0,0,1,1.807-1.843H48.8a8.789,8.789,0,0,1-.163-2.6c.19-1.995,1.236-3.371,2.595-3.421a3.484,3.484,0,0,1,1.725.24.414.414,0,0,1,.2.455,9.315,9.315,0,0,0-.353,3A7.959,7.959,0,0,0,55.048,97.2c.856.884,1.522,1.6,1.522,2.273V106a1.586,1.586,0,0,1-1.644,1.528H45.647ZM55.673,106V99.473c0-.366-.652-1.048-1.291-1.717a8.659,8.659,0,0,1-2.446-3.586,8.2,8.2,0,0,1,.258-2.992,3.709,3.709,0,0,0-.924-.051c-.87.025-1.6,1.136-1.753,2.651a7.646,7.646,0,0,0,.285,2.828.394.394,0,0,1-.068.366.515.515,0,0,1-.367.164H44.125A1.01,1.01,0,0,0,43.2,98.16a1.051,1.051,0,0,0,.408.934.565.565,0,0,1,.245.505.6.6,0,0,1-.34.454.831.831,0,0,0-.435.8,1.112,1.112,0,0,0,.5.934.5.5,0,0,1,.19.3.408.408,0,0,1-.122.316,1.172,1.172,0,0,0-.353.808,1.211,1.211,0,0,0,1.005,1.136.423.423,0,0,1,.312.24.389.389,0,0,1-.014.366,1.1,1.1,0,0,0-.163.568,1.216,1.216,0,0,0,1.155,1.174h9.334A.72.72,0,0,0,55.673,106Z" transform="translate(-42.182 -90.287)" fill="#52b677" stroke="#52b677" stroke-width="0.3"/>
    </g>
    <g id="Group_1313" data-name="Group 1313" transform="translate(15.364 9.311)">
      <path id="Path_3355" data-name="Path 3355" d="M43.226,90.954a1.387,1.387,0,0,1,1.384,1.373V97.5a1.378,1.378,0,1,1-2.757,0V92.327A1.377,1.377,0,0,1,43.226,90.954ZM42.6,97.5a.63.63,0,1,0,1.259,0V92.327a.63.63,0,0,0-1.259,0Z" transform="translate(-41.853 -90.954)" fill="#52b677" stroke="#52b677" stroke-width="0.3"/>
    </g>
  </g>
</svg>
