<svg xmlns="http://www.w3.org/2000/svg" width="11.245" height="12.837" viewBox="0 0 11.245 12.837">
  <g id="Group_1085" data-name="Group 1085" transform="translate(-106.341 -50.49)">
    <g id="Group_1083" data-name="Group 1083" transform="translate(106.341 50.49)">
      <path id="Path_3132" data-name="Path 3132" d="M111.959,50.49a5.844,5.844,0,0,0,0,11.68,5.491,5.491,0,0,0,2.567-.645l2.594,1.746a.262.262,0,0,0,.155.057.291.291,0,0,0,.155-.038.346.346,0,0,0,.155-.285v-6.68A5.739,5.739,0,0,0,111.959,50.49Zm5.024,11.946L114.708,60.9a.362.362,0,0,0-.164-.047.261.261,0,0,0-.146.038,4.9,4.9,0,0,1-2.439.655,5.217,5.217,0,1,1,5.024-5.218Z" transform="translate(-106.341 -50.49)" fill="red"/>
    </g>
    <g id="Group_1084" data-name="Group 1084" transform="translate(109.526 53.766)">
      <path id="Path_3133" data-name="Path 3133" d="M110.728,52.239h-.92v-.926a.585.585,0,0,0-.582-.582h-.563a.586.586,0,0,0-.588.582v.926h-.92a.585.585,0,0,0-.582.582v.563a.581.581,0,0,0,.582.582h.92v.926a.581.581,0,0,0,.588.576h.563a.579.579,0,0,0,.582-.576v-.926h.92a.581.581,0,0,0,.582-.582v-.563A.585.585,0,0,0,110.728,52.239Zm.175,1.145a.174.174,0,0,1-.175.169H109.6a.2.2,0,0,0-.206.206v1.133a.168.168,0,0,1-.169.169h-.563a.174.174,0,0,1-.175-.169V53.759a.2.2,0,0,0-.206-.206h-1.126a.168.168,0,0,1-.169-.169v-.563a.168.168,0,0,1,.169-.169h1.126a.208.208,0,0,0,.206-.206V51.313a.174.174,0,0,1,.175-.169h.563a.168.168,0,0,1,.169.169v1.133a.208.208,0,0,0,.206.206h1.126a.174.174,0,0,1,.175.169Z" transform="translate(-106.573 -50.731)" fill="red"/>
    </g>
  </g>
</svg>
