<svg xmlns="http://www.w3.org/2000/svg" width="11.752" height="26" viewBox="0 0 11.752 26">
  <g id="Group_1300" data-name="Group 1300" opacity="0.6">
    <g id="Group_1283" data-name="Group 1283" transform="translate(1.97 0.206)">
      <path id="Path_3300" data-name="Path 3300" d="M4478.307,1648.172l-2.846,10.705.388.1,2.847-10.705Z" transform="translate(-4475.46 -1644.91)" fill="#b2b6b8"/>
      <path id="Path_3301" data-name="Path 3301" d="M4460.146,1544.723l.253-.133a.388.388,0,0,1,.432.05c.975.837.684,1.588.684,1.588l-.448,1.684-.389-.1.448-1.684a3.669,3.669,0,0,1-1.1-.813A.386.386,0,0,1,4460.146,1544.723Z" transform="translate(-4457.833 -1544.547)" fill="#83888c"/>
    </g>
    <g id="Group_1284" data-name="Group 1284" transform="translate(2.699)">
      <path id="Path_3302" data-name="Path 3302" d="M4455.131,1641.625l-2.846,10.705.388.1,2.847-10.705Z" transform="translate(-4452.285 -1638.363)" fill="#b2b6b8"/>
      <path id="Path_3303" data-name="Path 3303" d="M4436.972,1538.176l.253-.133a.388.388,0,0,1,.432.05c.975.836.684,1.588.684,1.588l-.448,1.684-.388-.1.448-1.684a3.671,3.671,0,0,1-1.1-.813A.385.385,0,0,1,4436.972,1538.176Z" transform="translate(-4434.659 -1538)" fill="#989ea4"/>
    </g>
    <path id="Path_3304" data-name="Path 3304" d="M4434.415,2298.163l.813.694c.2-.191,1.163-1.136,1.407-1.424h-1.9C4434.631,2297.657,4434.526,2297.9,4434.415,2298.163Z" transform="translate(-4430.138 -2273.529)" fill="#fcc27d"/>
    <g id="Group_1285" data-name="Group 1285" transform="translate(4.058 24.577)">
      <rect id="Rectangle_546" data-name="Rectangle 546" width="3.398" height="0.453" transform="translate(0.029 0.97)" fill="#634b45"/>
      <path id="Path_3305" data-name="Path 3305" d="M4404.8,2318.785a1.3,1.3,0,0,1-1.578.058,1.031,1.031,0,0,0-.189.912h3.4C4406.365,2319.311,4405.614,2319.179,4404.8,2318.785Z" transform="translate(-4403.007 -2318.785)" fill="#b2b6b8"/>
    </g>
    <g id="Group_1286" data-name="Group 1286" transform="translate(3.658 15.744)">
      <path id="Path_3306" data-name="Path 3306" d="M4368.437,2040.792l2.131,2.367a17.363,17.363,0,0,0-1.913,3.186h1.9a12.506,12.506,0,0,0,2.1-3.312c-.153-1.512-3.222-4.848-3.222-4.848S4366.36,2040.484,4368.437,2040.792Z" transform="translate(-4367.716 -2038.185)" fill="#4e4e4e"/>
    </g>
    <path id="Path_3307" data-name="Path 3307" d="M4424.719,1758.034l-2.61,5.256a1.217,1.217,0,0,0,.548,1.631l2.519,1.2,3.693-7.436-2.519-1.2A1.216,1.216,0,0,0,4424.719,1758.034Z" transform="translate(-4421.981 -1750.453)" fill="#52b677"/>
    <rect id="Rectangle_547" data-name="Rectangle 547" width="2.272" height="0.676" transform="matrix(-0.896, -0.445, 0.445, -0.896, 6.38, 8.03)" fill="#8d7870"/>
    <rect id="Rectangle_548" data-name="Rectangle 548" width="2.271" height="0.676" transform="translate(2.385 16.072) rotate(-153.579)" fill="#8d7870"/>
    <rect id="Rectangle_549" data-name="Rectangle 549" width="1.244" height="3.137" transform="translate(2.587 12.587)" fill="#8d7870"/>
    <g id="Group_1293" data-name="Group 1293" transform="translate(5.295 2.437)">
      <path id="Path_3308" data-name="Path 3308" d="M4395.788,1785.151l.361-1.029,1.029.363-.36,1.03c.08.032-1.342-.053-1.279-.436C4395.621,1785.1,4395.705,1785.126,4395.788,1785.151Z" transform="translate(-4394.753 -1778.812)" fill="#fbb461"/>
      <path id="Path_3309" data-name="Path 3309" d="M4310.08,1650.246a2.212,2.212,0,0,1,4.153,1.465.4.4,0,0,1,.265.521l-.138.391a.4.4,0,0,1-.552.232,2.2,2.2,0,0,1-4.115-1.452.4.4,0,0,1-.285-.528l.138-.39a.4.4,0,0,1,.533-.239Z" transform="translate(-4309.385 -1647.926)" fill="#fcc27d"/>
      <g id="Group_1288" data-name="Group 1288" transform="translate(1.508 4.78)">
        <g id="Group_1287" data-name="Group 1287">
          <path id="Path_3310" data-name="Path 3310" d="M4387.722,1767.27a.8.8,0,0,0,.021.216l.989.349a.827.827,0,0,0,.151-.155c-.154-.054-.37-.115-.581-.189S4387.879,1767.325,4387.722,1767.27Z" transform="translate(-4387.721 -1767.27)" fill="#fff"/>
        </g>
        <path id="Path_3311" data-name="Path 3311" d="M4392.535,1774.127a.608.608,0,0,0,.989.349Z" transform="translate(-4392.512 -1773.911)" fill="#d13127"/>
      </g>
      <g id="Group_1291" data-name="Group 1291" transform="translate(1.045 3.022)">
        <g id="Group_1289" data-name="Group 1289" transform="translate(2.046 0.722)">
          <path id="Path_3312" data-name="Path 3312" d="M4346.956,1734.359a.454.454,0,0,1,.278.577l-.856-.3A.454.454,0,0,1,4346.956,1734.359Z" transform="translate(-4346.376 -1734.333)" fill="#5e5e5e"/>
          <path id="Path_3313" data-name="Path 3313" d="M4350.169,1737.293l.747.263a.33.33,0,0,0-.048-.3.445.445,0,0,0-.365-.182A.346.346,0,0,0,4350.169,1737.293Z" transform="translate(-4350.169 -1736.991)" fill="#fff"/>
          <path id="Path_3314" data-name="Path 3314" d="M4352.175,1737.367l.381.135a.249.249,0,0,0,.1-.242.444.444,0,0,0-.365-.182A.247.247,0,0,0,4352.175,1737.367Z" transform="translate(-4351.964 -1736.991)" fill="#333232"/>
          <path id="Path_3315" data-name="Path 3315" d="M4360.282,1739.219a.067.067,0,1,0,.085-.041A.067.067,0,0,0,4360.282,1739.219Z" transform="translate(-4359.967 -1739.022)" fill="#fff"/>
        </g>
        <g id="Group_1290" data-name="Group 1290" transform="translate(0)">
          <path id="Path_3316" data-name="Path 3316" d="M4411.926,1711.435a.455.455,0,0,0-.58.275l.858.3A.455.455,0,0,0,4411.926,1711.435Z" transform="translate(-4411.347 -1711.409)" fill="#5e5e5e"/>
          <path id="Path_3317" data-name="Path 3317" d="M4412.38,1715.823l-.746-.263a.33.33,0,0,1,.225-.2.441.441,0,0,1,.4.087A.344.344,0,0,1,4412.38,1715.823Z" transform="translate(-4411.523 -1715.219)" fill="#fff"/>
          <path id="Path_3318" data-name="Path 3318" d="M4415.846,1715.754l-.382-.135a.249.249,0,0,1,.07-.254.443.443,0,0,1,.4.087A.248.248,0,0,1,4415.846,1715.754Z" transform="translate(-4415.2 -1715.225)" fill="#333232"/>
          <path id="Path_3319" data-name="Path 3319" d="M4417.863,1718.992a.067.067,0,0,1-.126-.044.067.067,0,0,1,.126.044Z" transform="translate(-4417.186 -1718.667)" fill="#fff"/>
        </g>
      </g>
      <g id="Group_1292" data-name="Group 1292" transform="translate(2.035 4.319)">
        <path id="Path_3320" data-name="Path 3320" d="M4391.763,1752.779a.681.681,0,0,0,.276.041.3.3,0,0,1-.518-.182A.687.687,0,0,0,4391.763,1752.779Z" transform="translate(-4391.521 -1752.638)" fill="#f68e49"/>
      </g>
      <path id="Path_3321" data-name="Path 3321" d="M4299.973,1618.457a1.358,1.358,0,0,1-.586,1.1,2.166,2.166,0,0,0-.178-1.368,2.717,2.717,0,0,1-2.475-.873c-.494.118-.974.886-1,.953a1.356,1.356,0,0,1,.234-1.222c-.1-.942.025-1.585.935-1.433C4298.6,1614.8,4301.788,1616.638,4299.973,1618.457Z" transform="translate(-4294.947 -1615.416)" fill="#222324"/>
    </g>
    <g id="Group_1294" data-name="Group 1294" transform="translate(5.496 8.923)">
      <path id="Path_3322" data-name="Path 3322" d="M4316.822,1821.615a.843.843,0,0,0-1.167.248,20.966,20.966,0,0,0-.331,4.06c.056,1.58,1.2,1.654,4.741.788l-.085-.846-3.163-.057c.262-2.26.595-3.811,0-4.193Z" transform="translate(-4315.315 -1821.478)" fill="#f9a449"/>
    </g>
    <path id="Path_3323" data-name="Path 3323" d="M4403.674,1807.13l-1.138-.47a1.62,1.62,0,0,0-1.6.248c-1.821,1.162-3.377,6.938-3.377,6.938h4.021s2.188-5.219,2.268-5.714A1.892,1.892,0,0,0,4403.674,1807.13Z" transform="translate(-4396.207 -1798.102)" fill="#8ec471"/>
    <g id="Group_1295" data-name="Group 1295" transform="translate(1.308 15.744)">
      <path id="Path_3324" data-name="Path 3324" d="M4446.551,2040.01l1.117,3.149a17.5,17.5,0,0,0-1.913,3.186h1.9a12.5,12.5,0,0,0,2.1-3.312c-.154-1.512-.793-4.848-.793-4.848h-4.02S4444.474,2039.7,4446.551,2040.01Z" transform="translate(-4444.897 -2038.185)" fill="#686566"/>
    </g>
    <path id="Path_3325" data-name="Path 3325" d="M4511.585,2298.163l.814.694c.2-.191,1.162-1.136,1.406-1.424h-1.9C4511.8,2297.657,4511.7,2297.9,4511.585,2298.163Z" transform="translate(-4509.738 -2273.529)" fill="#fcc27d"/>
    <g id="Group_1296" data-name="Group 1296" transform="translate(1.63 24.577)">
      <rect id="Rectangle_550" data-name="Rectangle 550" width="3.398" height="0.453" transform="translate(0.029 0.97)" fill="#8d7870"/>
      <path id="Path_3326" data-name="Path 3326" d="M4481.973,2318.785a1.3,1.3,0,0,1-1.578.058,1.029,1.029,0,0,0-.187.912h3.4C4483.535,2319.311,4482.785,2319.179,4481.973,2318.785Z" transform="translate(-4480.178 -2318.785)" fill="#ebebeb"/>
    </g>
    <path id="Path_3327" data-name="Path 3327" d="M4297.421,1949.951l.069-.839.168-.013a.4.4,0,0,1,.469-.365l-.03.169.04,0v1.117Z" transform="translate(-4287.33 -1935.802)" fill="#f9a449"/>
    <g id="Group_1297" data-name="Group 1297" transform="translate(8.763 8.328)">
      <path id="Path_3328" data-name="Path 3328" d="M4281.275,1917.634l-2.18,12.176.442.079,2.18-12.176Z" transform="translate(-4279.095 -1914.012)" fill="#b2b6b8"/>
      <path id="Path_3329" data-name="Path 3329" d="M4267.643,1802.8l.269-.171a.434.434,0,0,1,.485.015c1.162.841.908,1.7.908,1.7l-.343,1.915-.442-.079.343-1.916a4.124,4.124,0,0,1-1.3-.8A.43.43,0,0,1,4267.643,1802.8Z" transform="translate(-4266.34 -1802.562)" fill="#83888c"/>
    </g>
    <path id="Path_3330" data-name="Path 3330" d="M4275.4,1951.568a.156.156,0,0,0,.156.156h.453a.156.156,0,0,0,.156-.156h0a.156.156,0,0,0-.156-.156h-.453a.156.156,0,0,0-.156.156Z" transform="translate(-4264.666 -1938.399)" fill="#fcc27d"/>
    <path id="Path_3331" data-name="Path 3331" d="M4275.4,1961.481a.156.156,0,0,0,.156.156h.453a.156.156,0,0,0,.156-.156h0a.156.156,0,0,0-.156-.156h-.453a.156.156,0,0,0-.156.156Z" transform="translate(-4264.666 -1948)" fill="#fcc27d"/>
    <path id="Path_3332" data-name="Path 3332" d="M4275.4,1971.393a.156.156,0,0,0,.156.156h.453a.156.156,0,0,0,.156-.156h0a.156.156,0,0,0-.156-.156h-.453a.156.156,0,0,0-.156.156Z" transform="translate(-4264.666 -1957.6)" fill="#fcc27d"/>
    <path id="Path_3333" data-name="Path 3333" d="M4275.4,1981.306a.156.156,0,0,0,.156.156h.453a.156.156,0,0,0,.156-.156h0a.156.156,0,0,0-.156-.156h-.453a.156.156,0,0,0-.156.156Z" transform="translate(-4264.666 -1967.201)" fill="#fcc27d"/>
    <g id="Group_1298" data-name="Group 1298" transform="translate(1.308 7.588)">
      <path id="Path_3334" data-name="Path 3334" d="M4430.469,1779.255l.091-.182,1.255.553a2.1,2.1,0,0,1,1.035,2.857l-1.287,2.592a2.1,2.1,0,0,1-2.766.972l-1.127-.523.09-.182,1.105.51a1.923,1.923,0,0,0,2.528-.891l1.267-2.55a1.924,1.924,0,0,0-.952-2.617Z" transform="translate(-4427.668 -1779.073)" fill="#8d7870"/>
    </g>
    <path id="Path_3335" data-name="Path 3335" d="M4427.741,1875.49a.21.21,0,0,0,.095.281h0a.208.208,0,0,0,.28-.094l1.431-2.879a.21.21,0,0,0-.095-.281h0a.21.21,0,0,0-.281.094Z" transform="translate(-4422.861 -1861.966)" fill="#d13127"/>
    <path id="Path_3336" data-name="Path 3336" d="M4421.97,1881.174l-.169.012-.068.839,1.189.119a.311.311,0,0,1,.175-.406.14.14,0,1,1,.023-.279.14.14,0,1,1,.024-.279.141.141,0,0,0-.127-.152l-.608-.052.069-.137A.375.375,0,0,0,4421.97,1881.174Z" transform="translate(-4416.249 -1870.03)" fill="#fcc27d"/>
    <path id="Path_3337" data-name="Path 3337" d="M4495.917,1780.277l.4.2,3.271-6.585-.4-.2Z" transform="translate(-4495.026 -1766.274)" fill="#cbb286"/>
    <g id="Group_1299" data-name="Group 1299" transform="translate(2.196 8.63)">
      <path id="Path_3338" data-name="Path 3338" d="M4438.791,1812.789a.844.844,0,0,0-1.041-.585,20.957,20.957,0,0,0-2.93,2.831c-1,1.224.522,2.436,3.433.523l-.2-.947-1.529.566c1.645-1.419,2.417-1.893,2.264-2.388Z" transform="translate(-4434.514 -1812.173)" fill="#fcc27d"/>
    </g>
  </g>
</svg>
