<svg id="Group_9" data-name="Group 9" xmlns="http://www.w3.org/2000/svg" width="154.714" height="123.13" viewBox="0 0 154.714 123.13">
  <g id="Group_2" data-name="Group 2" transform="translate(0 0)">
    <path id="Path_1" data-name="Path 1" d="M1420.469,265.2c2.851-.949,5.648-2.591,4.46-5.516,0,0-1.559-3.813-6.816-2.224,0,0-12.258,3.812-8.4,12.355l20.924,46.354,1.443-.713c-.49-1.082-.984-2.167-1.469-3.25q-1.823-4.038-3.651-8.072-2.385-5.3-4.775-10.589-2.433-5.388-4.866-10.78-2.244-4.977-4.492-9.952-.423-.933-.839-1.869c-1.312-2.927,2.413-4.284,4.511-4.731A36.534,36.534,0,0,0,1420.469,265.2Z" transform="translate(-1392.313 -257.069)" fill="#4da04e"/>
    <path id="Path_2" data-name="Path 2" d="M1442.261,299.092c2.1-.7,4.166-1.911,3.283-4.065,0,0-1.141-2.807-5.018-1.638,0,0-9.025,2.81-6.188,9.1l15.412,34.144,1.065-.524q-.543-1.2-1.084-2.4-1.341-2.974-2.687-5.948-1.76-3.9-3.522-7.8-1.786-3.97-3.583-7.943-1.655-3.664-3.306-7.331c-.2-.458-.413-.918-.619-1.377-.962-2.156,1.774-3.155,3.324-3.486A26.334,26.334,0,0,0,1442.261,299.092Z" transform="translate(-1410.854 -283.981)" fill="#4da04e"/>
    <path id="Path_3" data-name="Path 3" d="M1349.12,373.937c-1.3,1.787-3.079,3.39-4.866,1.9,0,0-2.328-1.942-.039-5.28,0,0,5.411-7.753,10.549-3.141l27.866,25.038-.822.852-1.958-1.755q-2.422-2.183-4.854-4.362-3.175-2.86-6.36-5.719-3.242-2.912-6.485-5.825-2.983-2.684-5.98-5.372c-.374-.336-.75-.672-1.124-1.008-1.762-1.574-3.544.737-4.333,2.111A25.6,25.6,0,0,1,1349.12,373.937Z" transform="translate(-1343.208 -338.383)" fill="#4da04e"/>
    <path id="Path_4" data-name="Path 4" d="M1354.736,315.648c-1.728,1.378-3.868,2.444-5.2.532,0,0-1.725-2.494,1.37-5.1,0,0,7.286-6.027,11.009-.215l20.184,31.562-1.021.6q-.714-1.107-1.417-2.214-1.758-2.747-3.515-5.5-2.3-3.6-4.61-7.208-2.347-3.669-4.694-7.339-2.168-3.388-4.334-6.777-.4-.635-.818-1.272c-1.276-1.985-3.612-.233-4.734.883A26.438,26.438,0,0,1,1354.736,315.648Z" transform="translate(-1347.579 -295.356)" fill="#4da04e"/>
    <path id="Path_5" data-name="Path 5" d="M1388.411,401.771c-5.865,7.193-2,20.066,8.648,28.753s24.033,9.9,29.9,2.7,2-20.062-8.646-28.748S1394.284,394.581,1388.411,401.771Zm35.93,28.458c-4.943,6.058-16.215,5.037-25.181-2.278s-12.227-18.159-7.284-24.217,16.219-5.037,25.183,2.281S1429.285,424.171,1424.341,430.229Z" transform="translate(-1374.922 -361.632)" fill="#4da04e"/>
    <g id="Group_1" data-name="Group 1" transform="translate(13.49 24.344)">
      <path id="Path_6" data-name="Path 6" d="M1428.328,367.625l-21.6,15.8s10,13.674,24.468,33.464l21.6-15.8s-7.915-22.455-24.47-33.464" transform="translate(-1404.137 -363.979)" fill="gray"/>
      <path id="Path_7" data-name="Path 7" d="M1420.73,356.829l-21.6,15.8-2.641-3.61,21.6-15.794Z" transform="translate(-1396.488 -353.223)" fill="#4da04e"/>
      <path id="Path_8" data-name="Path 8" d="M1527.811,503.258l-21.6,15.8-2.64-3.607,21.6-15.8Z" transform="translate(-1476.462 -462.579)" fill="#4da04e"/>
    </g>
  </g>
  <g id="Group_8" data-name="Group 8" transform="translate(18.437 14.387)">
    <path id="Path_9" data-name="Path 9" d="M1572.866,367.363h-8.639c.067.228.134.457.184.7l17.477,51.923c0,3.535-2.583,6.4-5.771,6.4H1514.2c-3.187,0-5.769-2.868-5.769-6.4l2.717-51.923c0-.238.014-.474.033-.7h-8.329l-4.133,61.18c0,4.556,3.337,8.252,7.446,8.252h79.843c4.106,0,7.439-3.7,7.439-8.252Z" transform="translate(-1477.787 -353.826)" fill="#4da04e"/>
    <path id="Path_10" data-name="Path 10" d="M1566.61,469.105l-3.6-23.765a3.443,3.443,0,0,1,2.893-3.924h0a3.454,3.454,0,0,1,3.925,2.894l3.6,23.763s.271,11.1,21.057,9.451c0,0,2.348,3.352-1.174,4.228h-23.957Z" transform="translate(-1525.77 -409.101)" fill="#4da04e"/>
    <g id="Group_3" data-name="Group 3" transform="translate(75.873 39.705)">
      <path id="Path_11" data-name="Path 11" d="M1749.086,508l2.9-3.316-13.166-11.524-2.9,3.312Z" transform="translate(-1730.805 -487.475)" fill="#4da04e"/>
      <path id="Path_12" data-name="Path 12" d="M1728.86,472.509l-2.247-1.79-10.9,13.686,2.251,1.789Z" transform="translate(-1715.711 -470.719)" fill="#4da04e"/>
    </g>
    <path id="Path_13" data-name="Path 13" d="M1552.307,552.44v8.776a6.189,6.189,0,0,1-6.333,6.035h-123.6a6.192,6.192,0,0,1-6.339-6.035V537.755a6.193,6.193,0,0,1,6.339-6.036H1458.5c3.5,0,6.144,1.652,6.332,6.036,0,0-3.568,14.331,17.806,16.745,24.715-1.147,20.865-16.745,20.865-16.745a6.19,6.19,0,0,1,6.331-6.036S1547.75,532.812,1552.307,552.44Z" transform="translate(-1416.031 -476.57)" fill="#8acb8c"/>
    <path id="Path_14" data-name="Path 14" d="M1812.038,608.961c.007-.087.009-.175.009-.263a18.059,18.059,0,1,0-36.118,0c0,.185.007.369.013.551a3.44,3.44,0,0,1-1.341.81,2.043,2.043,0,0,1-1.585-.762c0-.188-.016-.372-.016-.559a20.99,20.99,0,1,1,41.97,0c0,.026,0,.05,0,.08A3.3,3.3,0,0,1,1812.038,608.961Z" transform="translate(-1682.622 -518.057)" fill="#333"/>
    <g id="Group_5" data-name="Group 5" transform="translate(93.307 72.625)">
      <path id="Path_15" data-name="Path 15" d="M1784.57,618.8a18.059,18.059,0,1,0,18.057-18.058A18.059,18.059,0,0,0,1784.57,618.8Z" transform="translate(-1784.57 -600.746)" fill="#1a1a1a"/>
      <path id="Path_16" data-name="Path 16" d="M1818.68,644.28a9.421,9.421,0,1,0,9.418-9.421A9.418,9.418,0,0,0,1818.68,644.28Z" transform="translate(-1810.044 -626.222)" fill="#4d4d4d"/>
      <g id="Group_4" data-name="Group 4" transform="translate(8.636 8.637)">
        <rect id="Rectangle_2" data-name="Rectangle 2" width="2.217" height="18.842" transform="translate(8.31)" fill="#fff"/>
        <rect id="Rectangle_3" data-name="Rectangle 3" width="18.843" height="2.216" transform="translate(0 8.313)" fill="#fff"/>
        <rect id="Rectangle_4" data-name="Rectangle 4" width="18.844" height="2.215" transform="matrix(0.633, -0.774, 0.774, 0.633, 2.597, 16.015)" fill="#fff"/>
        <path id="Path_17" data-name="Path 17" d="M1825.695,645.148l-1.405,1.716,14.6,11.917,1.4-1.715Z" transform="translate(-1822.869 -642.543)" fill="#fff"/>
      </g>
    </g>
    <path id="Path_18" data-name="Path 18" d="M1486.97,608.962c0-.088,0-.176,0-.264a18.056,18.056,0,1,0-36.113,0c0,.184,0,.369.014.551a3.424,3.424,0,0,1-1.34.81,2.025,2.025,0,0,1-1.583-.762c-.012-.187-.016-.372-.016-.559a20.989,20.989,0,1,1,41.966,0c0,.026,0,.05,0,.08A3.3,3.3,0,0,1,1486.97,608.962Z" transform="translate(-1439.857 -518.057)" fill="#4da04e"/>
    <g id="Group_7" data-name="Group 7" transform="translate(11.002 72.625)">
      <path id="Path_19" data-name="Path 19" d="M1459.488,618.8a18.056,18.056,0,1,0,18.059-18.058A18.058,18.058,0,0,0,1459.488,618.8Z" transform="translate(-1459.488 -600.746)" fill="#1a1a1a"/>
      <path id="Path_20" data-name="Path 20" d="M1493.6,644.28a9.421,9.421,0,1,0,9.422-9.421A9.418,9.418,0,0,0,1493.6,644.28Z" transform="translate(-1484.965 -626.222)" fill="#4d4d4d"/>
      <g id="Group_6" data-name="Group 6" transform="translate(8.637 8.637)">
        <rect id="Rectangle_5" data-name="Rectangle 5" width="2.218" height="18.842" transform="translate(8.311)" fill="#fff"/>
        <rect id="Rectangle_6" data-name="Rectangle 6" width="18.842" height="2.216" transform="translate(0 8.313)" fill="#fff"/>
        <path id="Path_21" data-name="Path 21" d="M1517.51,641.883l-1.711-1.4-11.92,14.593,1.72,1.4Z" transform="translate(-1501.277 -639.057)" fill="#fff"/>
        <path id="Path_22" data-name="Path 22" d="M1500.621,645.148l-1.4,1.716,14.592,11.917,1.4-1.715Z" transform="translate(-1497.797 -642.543)" fill="#fff"/>
      </g>
    </g>
    <path id="Path_23" data-name="Path 23" d="M1479.166,313.895H1554.5l7.49,13.537h-90.506Z" transform="translate(-1457.442 -313.895)" fill="#8acb8c"/>
  </g>
</svg>
