<svg xmlns="http://www.w3.org/2000/svg" width="67.049" height="76.609" viewBox="0 0 67.049 76.609">
  <g id="Group_2089" data-name="Group 2089" transform="translate(2.276 -1.206)" opacity="0.52">
    <path id="Path_3349" data-name="Path 3349" d="M418.692,102.459V62.98a16.967,16.967,0,0,0-16.765-17.065H385.557A16.967,16.967,0,0,0,368.792,62.98V75.262l-6.065,3.564L356.1,82.72l6.625,3.893,6.065,3.564v12.282a16.967,16.967,0,0,0,16.765,17.065h16.369A16.967,16.967,0,0,0,418.692,102.459Z" transform="translate(-355.114 -43.795)" fill="#ffb0b0"/>
    <path id="Path_3350" data-name="Path 3350" d="M417.785,104.175V64.7A16.967,16.967,0,0,0,401.02,47.631H384.651A16.967,16.967,0,0,0,367.886,64.7V76.978l-6.065,3.564L355.2,84.436l6.625,3.893,6.065,3.564v12.283a16.967,16.967,0,0,0,16.765,17.065H401.02A16.967,16.967,0,0,0,417.785,104.175Z" transform="translate(-354.511 -44.925)" fill="#fff" stroke="red" stroke-width="3"/>
    <path id="Path_3351" data-name="Path 3351" d="M458.836,101.982q-1.532-6.337-2.461-10.688a34.2,34.2,0,0,1-.93-6.337q0-1.986,2.351-3.4a14.654,14.654,0,0,1,12.581,0q2.35,1.418,2.352,3.4a34.458,34.458,0,0,1-.928,6.337q-.935,4.35-2.463,10.688t-2.3,10.435h-5.906Q460.367,108.319,458.836,101.982Zm-.711,22.762q-2.461-1.419-2.462-3.436t2.462-3.436a13.234,13.234,0,0,1,11.923,0q2.463,1.418,2.461,3.436t-2.461,3.436a13.234,13.234,0,0,1-11.923,0Z" transform="translate(-426.111 -63.335)" fill="red"/>
  </g>
</svg>
