<svg xmlns="http://www.w3.org/2000/svg" width="65.156" height="128.324" viewBox="0 0 65.156 128.324">
  <g id="Group_17" data-name="Group 17" transform="translate(-897.687 -267.129)">
    <path id="Path_115" data-name="Path 115" d="M900.73,389.541c0,1.462-.681,2.646-1.522,2.646h0c-.84,0-1.521-1.184-1.521-2.646V269.774c0-1.462.681-2.645,1.521-2.645h0c.841,0,1.522,1.183,1.522,2.645Z" fill="#26120b"/>
    <g id="Group_15" data-name="Group 15" transform="translate(900.49 267.485)">
      <path id="Path_116" data-name="Path 116" d="M908.09,268.449s2.686,16.05,30.679,8.726c0,0,22.34-9.587,31.673,3.138-.262-.359-1.988-.265-2.351-.277a48.606,48.606,0,0,0-5.729.214c-5.991.519-11.754,2.038-16.358,6.1a34.826,34.826,0,0,0-4.044,4.315c-3.02,3.745-5.172,7.379-9.639,9.487a19.669,19.669,0,0,1-13.72,1.262,30.184,30.184,0,0,1-5.053-1.84c-.654-.3-5.459-2.284-5.459-2.861Z" transform="translate(-908.09 -268.449)" fill="#4da04e"/>
      <path id="Path_117" data-name="Path 117" d="M908.09,268.449V296.71c0,.577,4.806,2.564,5.459,2.861a30.184,30.184,0,0,0,5.053,1.84,19.669,19.669,0,0,0,13.72-1.262c4.467-2.108,6.619-5.742,9.639-9.487C941.961,290.662,915.718,289.926,908.09,268.449Z" transform="translate(-908.09 -268.449)" fill="#8acb8c"/>
    </g>
    <g id="Group_16" data-name="Group 16" transform="translate(897.687 387.929)">
      <path id="Path_118" data-name="Path 118" d="M922.66,719.239c0,2.078-5.594,3.761-12.485,3.761s-12.488-1.684-12.488-3.761,5.592-3.762,12.488-3.762S922.66,717.162,922.66,719.239Z" transform="translate(-897.687 -715.477)" fill="#ccc"/>
      <path id="Path_119" data-name="Path 119" d="M910.175,716.672c6.077,0,11.139,1.413,12.252,3.286a1.316,1.316,0,0,0,.234-.719c0-2.078-5.594-3.762-12.485-3.762s-12.488,1.685-12.488,3.762a1.336,1.336,0,0,0,.231.719C899.03,718.086,904.095,716.672,910.175,716.672Z" transform="translate(-897.687 -715.477)" fill="#3a470e"/>
    </g>
  </g>
</svg>
