<svg xmlns="http://www.w3.org/2000/svg" width="16" height="16" viewBox="0 0 16 16">
  <g id="Group_2093" data-name="Group 2093" transform="translate(0)" opacity="0.6">
    <path id="Path_3391" data-name="Path 3391" d="M718.436,180.59h0c.443,0,.824-.514.824-1.112a.937.937,0,0,0-.824-1.036c-.442,0-.754.432-.754,1.036s.312,1.112.754,1.112Zm8.775,0h0c.432,0,.754-.514.754-1.112s-.322-1.036-.754-1.036a.937.937,0,0,0-.824,1.036c0,.6.382,1.112.824,1.112Zm-6.373-3.951h.442c.181,0,.311-.261.311-.686,0-.261-.13-.6-.311-.6H719.2l-1.075-1.379c0-.254-.322-4.384-.322-6.107h7.95l1.579,6.8h-2.584l-.251.94-1.829-1.886.181-.522a.229.229,0,0,0,0-.343c-.121-.083-.181-.083-.312.089l-.5,1.461c0,.082,0,.26.061.26.131.083.251,0,.251-.089l.191-.342,1.769,1.722c-.442.857-1.015,2.147-1.457,3H721.21Zm-2.4,4.816h0c.824,0,1.458-.864,1.458-1.976s-.633-1.982-1.458-1.982-1.447.865-1.447,1.982.633,1.976,1.447,1.976Zm8.775,0h0c.814,0,1.447-.864,1.447-1.976s-.633-1.982-1.447-1.982-1.458.865-1.458,1.982.634,1.976,1.458,1.976Zm0-4.384c.945,0,1.759,1.029,1.759,2.408s-.814,2.409-1.759,2.409c-1.015,0-1.77-1.036-1.77-2.409s.754-2.408,1.77-2.408Zm-10.6-7.485a.568.568,0,0,0-.754-.171c-.191.344-.442.775-.442.775a2.5,2.5,0,0,0,0,.947h0v2.834h0l-.131-1.715h0a4.637,4.637,0,0,0-.06-.864,4.381,4.381,0,0,1-.5-.686c-.06-.089-.382-.089-.633.343-.13.171-.13.514,0,.6a3.349,3.349,0,0,0,.884.171l.061.432h.07l.121,1.715h-.442v6.277h1.709v-1.29h-.071c.192-1.29,1.015-2.319,2.021-2.319,1.136,0,2.021,1.29,2.021,2.84a3.294,3.294,0,0,1-.061.769h4.855a3.294,3.294,0,0,1-.061-.769c0-1.55.885-2.84,2.021-2.84,1.065,0,2.01,1.29,2.01,2.84a3.29,3.29,0,0,1-.061.769h.825l-.513-4.555-1.638-1.119-1.578-6.71h2.523c.07,0,.131-.171.131-.254s-.061-.171-.131-.171H728.6a2.46,2.46,0,0,0-1.578-1.551H716.606c-.945.172-1.508,1.29-1.639,1.551h-.06c-.06,0-.13.083-.13.171s.07.254.13.254H717.3v6.024l-1.256.083.121-1.544h0c.07,0,.07-.343.07-.343a2.049,2.049,0,0,0,.754-.178.538.538,0,0,0,0-.6c-.191-.26-.443-.26-.5-.171a4.272,4.272,0,0,0-.442.514,2.866,2.866,0,0,0-.07.775h0l-.121,1.544h-.191l-.06-2.834s.06,0,.06-.089l.06-.432a1.654,1.654,0,0,0,.885-.343c.191-.083.191-.514,0-.687Zm1.829,7.485c1.005,0,1.769,1.029,1.769,2.408s-.764,2.409-1.769,2.409-1.769-1.036-1.769-2.409.764-2.408,1.769-2.408Z" transform="translate(-713.985 -165.887)" fill="#00953a" fill-rule="evenodd"/>
  </g>
</svg>
