<svg xmlns="http://www.w3.org/2000/svg" width="79.742" height="128.371" viewBox="0 0 79.742 128.371">
  <g id="Group_14" data-name="Group 14" transform="translate(-882.234 -871.254)">
    <path id="Path_24" data-name="Path 24" d="M976.266,1167.781s8.7,3.563,23.511,0l-2.869,41.671H980.455Z" transform="translate(-66.538 -209.827)" fill="#8acb8c"/>
    <g id="Group_13" data-name="Group 13" transform="translate(882.234 871.254)">
      <g id="Group_11" data-name="Group 11" transform="translate(0 0)">
        <path id="Path_25" data-name="Path 25" d="M886.062,913.837a38.754,38.754,0,1,0,38.757-38.751A38.752,38.752,0,0,0,886.062,913.837Z" transform="translate(-884.943 -873.966)" fill="#fff"/>
        <path id="Path_26" data-name="Path 26" d="M922.1,951h0a39.873,39.873,0,1,1,39.875-39.872A39.916,39.916,0,0,1,922.1,951Zm.009-77.5a37.633,37.633,0,1,0,37.629,37.633A37.678,37.678,0,0,0,922.11,873.495Z" transform="translate(-882.234 -871.254)" fill="#4da04e"/>
      </g>
      <g id="Group_12" data-name="Group 12" transform="translate(7.914 3.911)">
        <path id="Path_27" data-name="Path 27" d="M1072.149,886.585c1.1.6,2.146,1.279,3.237,1.89a.407.407,0,0,0-.083-.071,37.968,37.968,0,0,0-3.863-2.293q-1.471-.768-3.021-1.4c-.038-.015-.082-.036-.118-.05,1.125.655,2.345,1.115,3.489,1.73.11.061.255.137.359.2" transform="translate(-1021.812 -884.648)" fill="#8acb8c"/>
        <path id="Path_28" data-name="Path 28" d="M1068.8,886.566c1.947,1.15,3.365,1.962,3.7,1.89a.066.066,0,0,0,.025-.034c-.217-.793-5.6-3.646-6.858-3.793a.108.108,0,0,0-.026.032,27.518,27.518,0,0,0,2.823,1.706c.1.06.231.137.336.2" transform="translate(-1019.932 -884.629)" fill="#8acb8c"/>
        <path id="Path_29" data-name="Path 29" d="M1061.41,886.571c2.743,1.9,3.986,2.149,3.986,1.723,0-.346-.84-1.187-2.448-2.119-1.78-1.029-3.689-1.691-3.824-1.51-.036.046-.143.18,2,1.706.082.061.2.137.287.2" transform="translate(-1015.308 -884.634)" fill="#8acb8c"/>
        <path id="Path_30" data-name="Path 30" d="M1100.437,903.914c.912.855,1.763,1.774,2.726,2.578a.265.265,0,0,0-.056-.093c-.5-.564-1.016-1.111-1.551-1.642a38.48,38.48,0,0,0-4.156-3.606,1.122,1.122,0,0,0-.1-.073c.028.046.028.046.438.4,1.031.9,1.575,1.391,2.395,2.152.094.084.216.2.3.281" transform="translate(-1042.333 -896.269)" fill="#8acb8c"/>
        <path id="Path_31" data-name="Path 31" d="M1095.273,903.848c2.168,2.139,3.512,2.928,3.559,2.458.106-1.018-5.084-5.719-5.842-5.294-.215.117.481,1,2,2.555l.28.281" transform="translate(-1039.255 -896.203)" fill="#8acb8c"/>
        <path id="Path_32" data-name="Path 32" d="M1083.794,903.809c2.078,2.36,4.28,3.241,4.266,2.081-.021-1.621-4.926-5.769-5.7-4.823-.1.112-.279.62,1.2,2.46.073.084.168.2.238.282" transform="translate(-1031.713 -896.163)" fill="#8acb8c"/>
        <path id="Path_33" data-name="Path 33" d="M1083.794,903.879c2.079,2.36,4.281,3.241,4.266,2.081a4.435,4.435,0,0,0-1.425-2.363c-1.665-1.678-3.229-2.508-3.984-2.57-1.235.122,1.123,2.824,1.143,2.852" transform="translate(-1031.713 -896.232)" fill="#8acb8c"/>
        <path id="Path_34" data-name="Path 34" d="M1066.833,903.893c1.68,2.477,4.473,3.332,4.821,1.912.48-2.007-4.011-5.39-5.27-4.653-.2.114-.77.642.268,2.46.055.084.127.2.181.281" transform="translate(-1020.217 -896.248)" fill="#8acb8c"/>
        <path id="Path_35" data-name="Path 35" d="M1123.43,927.584c1.141,1.767,1.846,2.854,2.081,3.138a.242.242,0,0,0-.035-.112.383.383,0,0,0-.017-.045,39.421,39.421,0,0,0-3.151-5.08c-.349-.471-.708-.937-1.073-1.4-.025-.031-.062-.067-.083-.1a33.176,33.176,0,0,0,2.057,3.245c.066.1.158.244.221.347" transform="translate(-1059.21 -912.483)" fill="#8acb8c"/>
        <path id="Path_36" data-name="Path 36" d="M1116.65,927.5c1.484,2.379,3.089,3.8,3.247,2.873.254-1.567-3.849-7.262-4.629-6.416-.07.077-.34.588,1.172,3.2.067.1.147.245.21.347" transform="translate(-1055.001 -912.395)" fill="#8acb8c"/>
        <path id="Path_37" data-name="Path 37" d="M1101.53,927.518c1.452,2.63,3.891,4.055,4.354,2.542.611-1.977-3.182-6.814-4.771-6.087-.175.082-.982.611.234,3.2.056.1.128.245.183.347" transform="translate(-1044.73 -912.417)" fill="#8acb8c"/>
        <path id="Path_38" data-name="Path 38" d="M1079.512,927.513c1.292,2.939,4.652,4.259,5.37,2.106.8-2.415-2.916-6.583-4.983-5.572-.307.153-1.269.833-.528,3.119.045.1.1.245.141.347" transform="translate(-1029.451 -912.412)" fill="#8acb8c"/>
        <path id="Path_39" data-name="Path 39" d="M1051.994,927.525c.852,2.9,4.666,4.242,6,2.106,1.464-2.341-1.615-6.3-4.391-5.651-.353.084-2.087.625-1.693,3.2.025.1.056.246.087.347" transform="translate(-1010.17 -912.424)" fill="#8acb8c"/>
        <path id="Path_40" data-name="Path 40" d="M1139.96,956.446c.313.929,1.055,3.136,1.287,3.567a.264.264,0,0,0,0-.123,38.513,38.513,0,0,0-2.515-7.516.592.592,0,0,0-.06-.115c-.014.062-.045.171,1.149,3.787.044.121.094.281.136.4" transform="translate(-1071.607 -932.484)" fill="#8acb8c"/>
        <path id="Path_41" data-name="Path 41" d="M1131.663,956.385c.9,2.668,2.269,4.318,2.72,3.27.768-1.79-1.687-7.925-2.988-7.458-.321.115-.656,1.046.141,3.787.035.12.089.281.127.4" transform="translate(-1066.21 -932.423)" fill="#8acb8c"/>
        <path id="Path_42" data-name="Path 42" d="M1113.648,956.376c.942,3.022,3.24,4.62,4.174,2.9,1.268-2.346-1.566-7.86-3.609-7.028-.233.1-1.366.725-.681,3.73.036.121.081.282.115.4" transform="translate(-1053.665 -932.414)" fill="#8acb8c"/>
        <path id="Path_43" data-name="Path 43" d="M1088.071,956.381c.867,3.321,4.3,4.8,5.551,2.4,1.418-2.707-1.458-7.288-4.093-6.533-.339.1-2,.728-1.551,3.73.029.121.059.282.094.4" transform="translate(-1035.682 -932.419)" fill="#8acb8c"/>
        <path id="Path_44" data-name="Path 44" d="M1056.531,956.393c.659,3.345,4.623,4.83,6.428,2.4,1.923-2.574-.6-6.95-3.8-6.59-1.069.121-2.841,1.053-2.686,3.787.011.121.038.28.054.4" transform="translate(-1013.439 -932.431)" fill="#8acb8c"/>
        <path id="Path_45" data-name="Path 45" d="M1148.785,989.3c.05.782.22,3.375.343,3.851a.317.317,0,0,0,.035-.133c.026-.566.038-1.133.038-1.706a38.893,38.893,0,0,0-.505-6.285c-.013-.075-.026-.149-.038-.226a.679.679,0,0,1-.025-.127,28.592,28.592,0,0,0,.125,4.185c.006.134.016.31.027.442" transform="translate(-1078.629 -955.421)" fill="#8acb8c"/>
        <path id="Path_46" data-name="Path 46" d="M1138.723,989.241c.235,2.723,1.119,4.477,1.854,3.682,1.371-1.48.656-8.331-.873-8.33-.413,0-1.152.88-1.012,4.21.01.131.017.307.031.438" transform="translate(-1071.609 -955.366)" fill="#8acb8c"/>
        <path id="Path_47" data-name="Path 47" d="M1119.133,989.238c.325,3.265,2.316,4.964,3.674,3.142,1.837-2.473.429-8.207-1.9-7.766-.7.131-1.866,1.161-1.8,4.185.01.134.016.31.03.44" transform="translate(-1057.758 -955.363)" fill="#8acb8c"/>
        <path id="Path_48" data-name="Path 48" d="M1091.864,989.24c.365,3.449,3.3,5.1,5.147,2.893,2.219-2.662.408-7.932-2.583-7.517-.962.131-2.592,1.164-2.6,4.185,0,.134.019.31.032.44" transform="translate(-1038.463 -955.365)" fill="#8acb8c"/>
        <path id="Path_49" data-name="Path 49" d="M1058.541,989.231c.385,3.575,4.291,5.166,6.421,2.612,2.367-2.826.248-7.63-3.194-7.241-1.169.139-3.177,1.168-3.255,4.189,0,.134.012.307.029.44" transform="translate(-1014.885 -955.356)" fill="#8acb8c"/>
        <path id="Path_50" data-name="Path 50" d="M1020.713,989.231a4.2,4.2,0,0,0,7.46,2.3,4.284,4.284,0,0,0-3.7-6.934,4.215,4.215,0,0,0-3.779,4.189c0,.134.007.307.022.44" transform="translate(-988.122 -955.355)" fill="#8acb8c"/>
        <path id="Path_51" data-name="Path 51" d="M1144.958,1024.35c-.145.729-.621,3.143-.626,3.575a.316.316,0,0,0,.071-.121,38.714,38.714,0,0,0,1.277-5.363q.206-1.249.325-2.525a1.08,1.08,0,0,0,.01-.131,30.764,30.764,0,0,0-.972,4.15c-.023.124-.062.292-.084.415" transform="translate(-1075.613 -980.267)" fill="#8acb8c"/>
        <path id="Path_52" data-name="Path 52" d="M1135.931,1024.295c-.4,2.551.039,4.151.934,3.422,1.64-1.341,2.622-8,1.171-8.01-.482,0-1.418,1.11-2.035,4.172-.019.124-.051.291-.07.416" transform="translate(-1069.563 -980.212)" fill="#8acb8c"/>
        <path id="Path_53" data-name="Path 53" d="M1116.984,1024.295c-.292,2.846,1.1,4.451,2.707,3.123,2.43-2.016,2.615-7.707.247-7.71-.859,0-2.344,1.111-2.894,4.171-.02.125-.048.292-.059.417" transform="translate(-1056.233 -980.212)" fill="#8acb8c"/>
        <path id="Path_54" data-name="Path 54" d="M1090.37,1024.295c-.119,3.183,2.422,4.7,4.536,2.694,2.591-2.449,1.96-7.279-.944-7.282-1.18,0-3.093,1.111-3.563,4.171-.006.125-.02.292-.029.417" transform="translate(-1037.425 -980.212)" fill="#8acb8c"/>
        <path id="Path_55" data-name="Path 55" d="M1057.73,1024.295a3.418,3.418,0,0,0,5.987,2.436c2.563-2.558,1.309-7.024-1.964-7.024a4.278,4.278,0,0,0-4.012,4.171c0,.124-.011.292-.011.417" transform="translate(-1014.332 -980.212)" fill="#8acb8c"/>
        <path id="Path_56" data-name="Path 56" d="M1020.655,1024.292a4.076,4.076,0,0,0,7.186,2.155,4.011,4.011,0,0,0-3.361-6.719,4.3,4.3,0,0,0-3.843,4.148c.008.124.008.292.018.416" transform="translate(-988.084 -980.211)" fill="#8acb8c"/>
        <path id="Path_57" data-name="Path 57" d="M983.319,1024.278a4.1,4.1,0,0,0,7.4,1.848,4.2,4.2,0,0,0-4.38-6.349,3.93,3.93,0,0,0-3.053,4.085c.011.124.021.292.038.416" transform="translate(-961.65 -980.196)" fill="#8acb8c"/>
        <path id="Path_58" data-name="Path 58" d="M1131.688,1057.311c-1.388,2.851-1.445,3.029-1.485,3.147a.484.484,0,0,0,.1-.108c.55-.888,1.076-1.8,1.565-2.734a39.019,39.019,0,0,0,1.9-4.288c.01-.036.029-.083.038-.12-.08.076-.189.174-1.932,3.73-.05.113-.125.261-.183.374" transform="translate(-1065.615 -1003.917)" fill="#8acb8c"/>
        <path id="Path_59" data-name="Path 59" d="M1124.268,1057.269c-.782,1.86-1.046,3.528-.132,3.093,1.744-.835,4.442-6.753,3.269-7.2-.405-.156-1.576.72-2.969,3.73-.054.113-.118.261-.167.373" transform="translate(-1060.912 -1003.875)" fill="#8acb8c"/>
        <path id="Path_60" data-name="Path 60" d="M1107.727,1057.265c-.7,2.167-.177,3.864,1.556,2.894,2.666-1.49,4.347-6.591,2.311-7-.855-.174-2.579.872-3.738,3.73-.04.112-.094.258-.128.372" transform="translate(-1049.498 -1003.873)" fill="#8acb8c"/>
        <path id="Path_61" data-name="Path 61" d="M1083.859,1057.265c-.528,2.666,1.245,4.015,3.389,2.575,2.828-1.891,3.437-6.324.916-6.678-1.216-.174-3.324.871-4.215,3.73-.026.112-.071.258-.09.372" transform="translate(-1032.754 -1003.873)" fill="#8acb8c"/>
        <path id="Path_62" data-name="Path 62" d="M1054.271,1057.264c-.151,2.734,2.593,4.364,5.168,2.152,2.55-2.189,2.148-5.932-.672-6.254a4.312,4.312,0,0,0-4.455,3.73c-.015.112-.031.258-.041.372" transform="translate(-1011.879 -1003.872)" fill="#8acb8c"/>
        <path id="Path_63" data-name="Path 63" d="M1020.444,1057.251c.312,3.224,4.555,4.264,6.676,1.633a3.457,3.457,0,0,0-3.049-5.739,4,4,0,0,0-3.645,3.734c0,.112,0,.262.018.372" transform="translate(-987.935 -1003.859)" fill="#8acb8c"/>
        <path id="Path_64" data-name="Path 64" d="M986.238,1057.245c.764,3.261,5.01,4.283,6.775,1.631,1.806-2.7-.932-6.362-4.236-5.677a3.236,3.236,0,0,0-2.61,3.673c.021.112.043.261.071.372" transform="translate(-963.681 -1003.853)" fill="#8acb8c"/>
        <path id="Path_65" data-name="Path 65" d="M955.539,1057.214c1.161,3.291,5.066,4.314,6.25,1.631,1.272-2.9-1.989-6.662-4.857-5.584-.489.186-2.055.995-1.5,3.581.031.112.074.262.11.372" transform="translate(-941.859 -1003.822)" fill="#8acb8c"/>
        <path id="Path_66" data-name="Path 66" d="M1111.444,1086.309c-.745.868-1.562,1.665-2.241,2.589a.94.94,0,0,0,.115-.086c.218-.214.438-.428.655-.644a38.935,38.935,0,0,0,3.878-4.516c.173-.239.347-.479.515-.723.02-.03.045-.072.067-.1-.092.063-.092.063-2.725,3.171l-.263.311" transform="translate(-1050.755 -1024.877)" fill="#8acb8c"/>
        <path id="Path_67" data-name="Path 67" d="M1105.58,1086.286c-.909,1.193-1.784,2.591-1.277,2.6,1.25.026,5.762-5.276,5.141-6.034-.221-.277-1.4.329-3.627,3.119-.071.094-.168.217-.236.311" transform="translate(-1047.182 -1024.854)" fill="#8acb8c"/>
        <path id="Path_68" data-name="Path 68" d="M1092.383,1086.279c-.9,1.5-1.173,2.9.118,2.547,2.485-.684,5.779-5.267,4.307-5.977-.636-.31-2.419.47-4.225,3.119-.058.094-.139.217-.2.311" transform="translate(-1038.313 -1024.847)" fill="#8acb8c"/>
        <path id="Path_69" data-name="Path 69" d="M1072.989,1086.287c-.714,1.76-.158,3.171,1.777,2.386,2.74-1.116,4.743-4.867,3.066-5.736-1.014-.523-3.344.4-4.71,3.039-.042.094-.1.217-.134.31" transform="translate(-1024.918 -1024.856)" fill="#8acb8c"/>
        <path id="Path_70" data-name="Path 70" d="M1048.5,1086.269c-.379,2.238,1.64,3.536,4.035,1.779,2.5-1.84,2.652-4.989.248-5.261a4.25,4.25,0,0,0-4.217,3.171c-.019.094-.053.217-.066.311" transform="translate(-1007.766 -1024.838)" fill="#8acb8c"/>
        <path id="Path_71" data-name="Path 71" d="M1020.08,1086.263c.229,2.468,3.453,3.658,5.513,1.353,1.993-2.222.609-5.116-2.319-4.834a3.482,3.482,0,0,0-3.208,3.17c.006.094.006.217.014.311" transform="translate(-987.68 -1024.832)" fill="#8acb8c"/>
        <path id="Path_72" data-name="Path 72" d="M991.064,1086.224c.878,2.632,4.549,3.739,5.891,1.114,1.259-2.476-1.5-5.354-4.284-4.465a2.478,2.478,0,0,0-1.695,3.041c.026.094.057.218.088.311" transform="translate(-967.052 -1024.793)" fill="#8acb8c"/>
        <path id="Path_73" data-name="Path 73" d="M964.726,1086.2c1.358,2.492,4.732,3.686,5.44,1.354.785-2.608-2.789-5.867-5.042-4.6-.524.3-1.3,1.076-.56,2.932.05.094.113.218.162.311" transform="translate(-948.19 -1024.769)" fill="#8acb8c"/>
        <path id="Path_74" data-name="Path 74" d="M942.445,1086.189c1.567,2.186,4.469,3.543,4.809,1.779.488-2.509-3.622-6.4-5.294-5.022-.3.243-.861,1.015.276,2.93.064.095.148.219.208.312" transform="translate(-932.125 -1024.758)" fill="#8acb8c"/>
        <path id="Path_75" data-name="Path 75" d="M925.49,1086.246c1.633,1.964,4.02,3.4,4.082,2.126.106-2.066-4.22-6.518-5.323-5.477-.12.117-.649.811.991,3.04.073.093.172.218.25.312" transform="translate(-919.753 -1024.815)" fill="#8acb8c"/>
        <path id="Path_76" data-name="Path 76" d="M915.017,1086.263c1.516,1.716,3.211,3.01,3.245,2.477.067-1.075-4.541-6.311-5.237-5.961-.176.088-.209.832,1.723,3.172l.268.312" transform="translate(-911.882 -1024.831)" fill="#8acb8c"/>
        <path id="Path_77" data-name="Path 77" d="M914.421,1088.983c-2.315-2.42-5.006-5.817-5.12-5.963a39,39,0,0,0,5.12,5.963" transform="translate(-909.301 -1025.014)" fill="#8acb8c"/>
        <path id="Path_78" data-name="Path 78" d="M1085.384,1110.172c-.947.657-1.923,1.257-2.876,1.9.037-.016.087-.04.128-.06a38.052,38.052,0,0,0,3.929-2.537q1.259-.915,2.428-1.928a.777.777,0,0,0,.089-.081,6.347,6.347,0,0,0-.8.582c-1.133.856-1.684,1.262-2.562,1.886-.1.073-.235.166-.335.239" transform="translate(-1031.865 -1042.311)" fill="#8acb8c"/>
        <path id="Path_79" data-name="Path 79" d="M1081.227,1110.126c-2.065,1.61-2.119,1.77-2.153,1.875a.129.129,0,0,0,.013.029c.928.2,6.69-3.9,6.425-4.566-.078-.175-.681-.094-3.975,2.428-.093.073-.214.166-.309.234" transform="translate(-1029.435 -1042.27)" fill="#8acb8c"/>
        <path id="Path_80" data-name="Path 80" d="M1071.978,1110.149c-.471.45-1.934,1.9-1.181,1.915,1.356.016,6.5-3.561,5.774-4.513-.279-.372-1.856.122-4.343,2.363-.078.073-.18.166-.25.234" transform="translate(-1023.429 -1042.293)" fill="#8acb8c"/>
        <path id="Path_81" data-name="Path 81" d="M1058.278,1110.137c-.558.772-1.189,2.04,0,1.9,1.969-.222,5.682-3.374,4.672-4.412-.561-.581-2.64.03-4.5,2.274-.057.073-.126.166-.178.234" transform="translate(-1014.242 -1042.281)" fill="#8acb8c"/>
        <path id="Path_82" data-name="Path 82" d="M1040.673,1110.136c-.511,1.472.32,2.459,2.184,1.572,2.381-1.126,3.578-3.542,2.061-4.169-1.028-.425-3.16.284-4.153,2.363-.026.073-.068.166-.093.234" transform="translate(-1002.157 -1042.28)" fill="#8acb8c"/>
        <path id="Path_83" data-name="Path 83" d="M1019.594,1110.131c.156,1.944,2.467,2.742,4.187.835,1.523-1.7.593-3.749-1.607-3.537a2.793,2.793,0,0,0-2.588,2.468c0,.071,0,.166.008.234" transform="translate(-987.34 -1042.275)" fill="#8acb8c"/>
        <path id="Path_84" data-name="Path 84" d="M997.454,1110.1c.983,2.015,3.814,2.729,4.536.644.758-2.188-1.958-4.02-3.824-3.153a1.655,1.655,0,0,0-.818,2.275c.032.071.072.166.105.234" transform="translate(-971.502 -1042.246)" fill="#8acb8c"/>
        <path id="Path_85" data-name="Path 85" d="M976.97,1110.07c1.4,1.656,4.175,2.774,4.3,1.012.154-2.139-3.426-4.688-4.78-3.412-.273.258-.6.884.286,2.166.059.071.132.166.194.234" transform="translate(-956.638 -1042.214)" fill="#8acb8c"/>
        <path id="Path_86" data-name="Path 86" d="M959.369,1110.107c1.552,1.358,4.224,2.614,4.13,1.454-.162-1.888-4.481-5.038-5.441-3.963-.17.194-.421.811,1.052,2.275.081.071.182.166.259.234" transform="translate(-943.71 -1042.251)" fill="#8acb8c"/>
        <path id="Path_87" data-name="Path 87" d="M945.831,1110.051c1.766,1.308,3.963,2.295,3.926,1.756-.062-.8-5.372-5.392-6.054-4.355-.04.059-.325.63,1.818,2.363.091.072.218.167.311.235" transform="translate(-933.619 -1042.195)" fill="#8acb8c"/>
        <path id="Path_88" data-name="Path 88" d="M937.313,1110.13a12.306,12.306,0,0,0,3.536,1.9c-.076-.388-4.332-3.457-4.377-3.486-.964-.687-2.017-1.329-2.084-1.082,0,0,0,.55,2.584,2.428.1.072.235.167.342.235" transform="translate(-927.052 -1042.274)" fill="#8acb8c"/>
        <path id="Path_89" data-name="Path 89" d="M937.89,1112.145a59.639,59.639,0,0,1-6.449-4.524,38.843,38.843,0,0,0,6.449,4.524" transform="translate(-924.968 -1042.422)" fill="#8acb8c"/>
        <path id="Path_90" data-name="Path 90" d="M1054.695,1127.71c-1.517.561-2.563.855-3.4,1.09.038-.01.091-.022.13-.033.818-.213,1.621-.455,2.418-.718a38.237,38.237,0,0,0,4.977-2.053c.033-.014.077-.04.11-.055-1.315.48-2.546,1.125-3.849,1.625-.118.042-.273.1-.388.144" transform="translate(-1009.78 -1055.385)" fill="#8acb8c"/>
        <path id="Path_91" data-name="Path 91" d="M1052.474,1127.691c-.941.38-1.918.672-2.845,1.074.513.193,6.693-2.025,7.318-2.814a.258.258,0,0,0-.041-.037,32.118,32.118,0,0,0-4.07,1.633c-.111.042-.255.1-.361.144" transform="translate(-1008.599 -1055.366)" fill="#8acb8c"/>
        <path id="Path_92" data-name="Path 92" d="M1047.464,1127.669c-2.113,1.037-2.113,1.037-2.148,1.074a15.807,15.807,0,0,0,4.037-1.217c2-.863,2.613-1.467,2.492-1.6-.256-.288-2.564.846-4.085,1.6-.09.042-.21.1-.3.144" transform="translate(-1005.547 -1055.344)" fill="#8acb8c"/>
        <path id="Path_93" data-name="Path 93" d="M1040.2,1127.717c-1.493,1.028-1.333,1.067-1.236,1.09.915.213,5.618-1.926,5.316-2.726-.063-.184-.921-.465-3.865,1.493-.064.043-.147.1-.215.144" transform="translate(-1001.01 -1055.392)" fill="#8acb8c"/>
        <path id="Path_94" data-name="Path 94" d="M1030.93,1127.693c-.35.464-.791,1.22.09,1.074,1.724-.283,4.186-2.059,3.4-2.71-.438-.363-2.052-.069-3.381,1.493-.032.042-.079.1-.107.144" transform="translate(-995.067 -1055.368)" fill="#8acb8c"/>
        <path id="Path_95" data-name="Path 95" d="M1019.027,1127.686c.071,1.369,1.6,1.445,2.741.137.955-1.1.263-2.023-.953-1.906a1.924,1.924,0,0,0-1.788,1.625.885.885,0,0,0,0,.144" transform="translate(-986.942 -1055.361)" fill="#8acb8c"/>
        <path id="Path_96" data-name="Path 96" d="M1005.017,1127.652c.955,1.143,2.735,1.651,2.808.138s-2.138-2.457-2.991-1.612c-.318.319-.3.769.071,1.327.035.046.078.107.112.146" transform="translate(-976.743 -1055.328)" fill="#8acb8c"/>
        <path id="Path_97" data-name="Path 97" d="M991.5,1127.669c.913.6,3.128,1.555,2.995.849-.261-1.359-3.582-3.3-4.138-2.409-.119.181-.144.609.929,1.417.066.043.153.1.215.143" transform="translate(-966.62 -1055.345)" fill="#8acb8c"/>
        <path id="Path_98" data-name="Path 98" d="M979.732,1127.692c1.54.736,3.428,1.241,3.433,1.049a17.641,17.641,0,0,0-3.326-2.189c-1.784-.893-2.13-.594-2.161-.555-.014.018-.362.438,1.754,1.55.09.046.208.106.3.146" transform="translate(-957.666 -1055.368)" fill="#8acb8c"/>
        <path id="Path_99" data-name="Path 99" d="M970.535,1127.677a16.721,16.721,0,0,0,3.7,1.091c-.075-.14-4.875-2.331-4.922-2.352-1.3-.555-1.654-.567-1.714-.482s.2.576,2.579,1.6c.107.046.243.1.354.146" transform="translate(-950.55 -1055.353)" fill="#8acb8c"/>
        <path id="Path_100" data-name="Path 100" d="M964.725,1127.681a25.541,25.541,0,0,0,3.721,1.1l-6.679-2.659a2.886,2.886,0,0,0-.684-.217.151.151,0,0,1-.032.037,11.431,11.431,0,0,0,3.283,1.6c.119.046.272.1.391.146" transform="translate(-945.92 -1055.358)" fill="#8acb8c"/>
        <path id="Path_101" data-name="Path 101" d="M966.558,1128.858a43.876,43.876,0,0,1-7.492-2.811,38.771,38.771,0,0,0,7.492,2.811" transform="translate(-944.515 -1055.46)" fill="#8acb8c"/>
        <path id="Path_102" data-name="Path 102" d="M1021.523,1137.76c-1.669.145-2.971.145-3.4.147a38.937,38.937,0,0,0,6.289-.508c.535-.086,1.062-.184,1.591-.291.033-.009.089-.021.12-.026a41.883,41.883,0,0,1-4.172.634c-.126.014-.3.033-.429.045" transform="translate(-986.306 -1063.269)" fill="#8acb8c"/>
        <path id="Path_103" data-name="Path 103" d="M1021.253,1137.787c-1.533.146-2.738.149-3.128.149a32.345,32.345,0,0,0,7.6-.814,2.6,2.6,0,0,0-.57.083c-1.544.287-2.3.4-3.5.539-.117.014-.277.033-.4.043" transform="translate(-986.306 -1063.296)" fill="#8acb8c"/>
        <path id="Path_104" data-name="Path 104" d="M1020.742,1137.766a22.618,22.618,0,0,1-2.617.148,23.115,23.115,0,0,0,6.654-.814c-.121-.02-.133-.021-1.076.167-1.145.232-1.682.329-2.627.455-.1.014-.233.033-.335.043" transform="translate(-986.306 -1063.276)" fill="#8acb8c"/>
        <path id="Path_105" data-name="Path 105" d="M1020.039,1137.754a11.847,11.847,0,0,1-1.914.148h0a13.747,13.747,0,0,0,5.2-.793c0-.01-.01-.024-.01-.033a6.388,6.388,0,0,0-1.428.28c-.863.211-1.127.266-1.612.354-.069.014-.171.033-.24.043" transform="translate(-986.306 -1063.263)" fill="#8acb8c"/>
        <path id="Path_106" data-name="Path 106" d="M1019.172,1137.744a3.566,3.566,0,0,1-1.047.149c1.974,0,3.539-.586,3.391-.793-.021-.033-.134-.092-.7.062-.514.142-1,.37-1.512.539a1.305,1.305,0,0,1-.132.043" transform="translate(-986.306 -1063.253)" fill="#8acb8c"/>
        <path id="Path_107" data-name="Path 107" d="M1018.192,1137.754c-.016.146-.016.146-.067.149h0c.769,0,1.611-.456,1.364-.731-.21-.231-1.146-.049-1.291.539,0,.014-.006.031-.006.043" transform="translate(-986.306 -1063.263)" fill="#8acb8c"/>
        <path id="Path_108" data-name="Path 108" d="M1013.252,1137.747a3.36,3.36,0,0,0,.918.149c-.113,0-.127-.031-.191-.149a1.29,1.29,0,0,0-.842-.644c-.46-.116-.747.048-.525.3a1.389,1.389,0,0,0,.523.3.808.808,0,0,0,.116.043" transform="translate(-982.352 -1063.256)" fill="#8acb8c"/>
        <path id="Path_109" data-name="Path 109" d="M1007.568,1137.75a11.588,11.588,0,0,0,1.8.149,5.38,5.38,0,0,1-2.041-.442c-.457-.162-1.4-.5-1.578-.351,0,.1.32.347,1.588.6.071.014.164.033.231.043" transform="translate(-977.55 -1063.26)" fill="#8acb8c"/>
        <path id="Path_110" data-name="Path 110" d="M1002.563,1137.75a21.966,21.966,0,0,0,2.526.149,15.309,15.309,0,0,1-3.927-.546,7.244,7.244,0,0,0-1.453-.282c0,.011-.007.023-.007.035a7.422,7.422,0,0,0,2.532.6c.1.014.226.033.328.043" transform="translate(-973.271 -1063.259)" fill="#8acb8c"/>
        <path id="Path_111" data-name="Path 111" d="M998.671,1137.74c1.005.1,2.039.146,3.071.149a27.511,27.511,0,0,1-5.718-.646c-.662-.131-.879-.173-1.052-.187a12.541,12.541,0,0,0,3.309.642c.113.014.272.033.389.043" transform="translate(-969.924 -1063.25)" fill="#8acb8c"/>
        <path id="Path_112" data-name="Path 112" d="M996.109,1137.74c1.657.146,2.948.149,3.375.149h0a36.728,36.728,0,0,1-7.111-.731c-.443-.083-.513-.092-.592-.1a22.812,22.812,0,0,0,3.9.642c.131.014.295.033.43.043" transform="translate(-967.665 -1063.25)" fill="#8acb8c"/>
        <path id="Path_113" data-name="Path 113" d="M998.925,1137.941a39.189,39.189,0,0,1-7.933-.812,38.975,38.975,0,0,0,7.933.812" transform="translate(-967.107 -1063.302)" fill="#8acb8c"/>
      </g>
    </g>
    <path id="Path_114" data-name="Path 114" d="M966.6,1143.691c15.1,4.485,29.159,0,29.159,0v-9.861c-12.231,4.78-24.853,1.226-28.264.093-.585-.193-.895-.316-.895-.316Z" transform="translate(-59.702 -185.644)" fill="#4da04e"/>
  </g>
</svg>
