<svg xmlns="http://www.w3.org/2000/svg" width="166.214" height="157.378" viewBox="0 0 166.214 157.378">
  <g id="Group_21" data-name="Group 21" transform="translate(-116.421 -1352.594)">
    <g id="Group_19" data-name="Group 19" transform="translate(116.421 1352.594)">
      <g id="Group_18" data-name="Group 18" transform="translate(0 0)">
        <path id="Path_120" data-name="Path 120" d="M304.6,1389.159l-4.8-23.086,22.377-11.366,14.385,6.927,5.327,15.627v11.9l-16.337,39.6H315.431Z" transform="translate(-237.919 -1353.993)" fill="#4da04e"/>
        <path id="Path_121" data-name="Path 121" d="M171.79,1417.968s-32.461,9.06-38.319,20.245l-17.05,39.423,32.5,10.655,5.328-10.121-.531,75.115h91.626v-78.845l5.865,10.475,31.429-8.344-17.05-41.021s-12.687-15.983-39.246-17.583l-15.875,12.778-10.938,33-8.775-33-2.1.327-16.858-13.105" transform="translate(-116.421 -1395.908)" fill="#8acb8c"/>
        <path id="Path_122" data-name="Path 122" d="M330.664,1363.252c12.253,22.375.464,32.612.464,32.612l-11.721-8.432a16.949,16.949,0,0,0,4.548-7.769c2.693-9.982-2.6-20.619-13.195-22.411-4.756-.805-11.07,1.257-14.776,4.358-5.385,4.508-5.971,13.122-2.633,19.092.427.762,5.064,7.405,6.344,6.73l-16.031,8.432a33.4,33.4,0,0,1,3.581-33.146,25.79,25.79,0,0,1,21.044-10.122S322.935,1352.153,330.664,1363.252Z" transform="translate(-225.363 -1352.594)" fill="#c6ccc6"/>
        <path id="Path_123" data-name="Path 123" d="M280.5,1417.968" transform="translate(-225.134 -1395.908)"/>
        <path id="Path_124" data-name="Path 124" d="M323.4,1455.835l-6.769,3.562,15.615,30.328,16.137-30.1-5.27-3.792L332,1487.238Z" transform="translate(-249.074 -1420.997)" fill="#c6ccc6"/>
        <rect id="Rectangle_7" data-name="Rectangle 7" width="91.568" height="3.907" transform="translate(37.353 148.821)" fill="#fff"/>
        <rect id="Rectangle_8" data-name="Rectangle 8" width="22.908" height="3.551" transform="translate(95.92 64.112)" fill="#fff"/>
      </g>
      <path id="Path_125" data-name="Path 125" d="M120.638,1577.445l33.3,10.164-1.938,3.68-33.041-9.971Z" transform="translate(-118.106 -1501.569)" fill="#fff"/>
      <path id="Path_126" data-name="Path 126" d="M507.2,1581.406l31.632-8.983-1.621-3.9-31.666,9.934Z" transform="translate(-374.234 -1495.655)" fill="#fff"/>
    </g>
    <g id="Group_20" data-name="Group 20" transform="translate(214.391 1428.7)">
      <path id="Path_127" data-name="Path 127" d="M429.283,1579.141c.527,0,1.065,1.151,1.065,1.151a2.546,2.546,0,0,0-1.065.729,4.86,4.86,0,0,1,2.1,2.36,6.844,6.844,0,0,0-.346-2.245c1.957-.864,1.669-1.784,1.669-1.784l-1.727.288a1.907,1.907,0,0,0-2.015-1.508c-3.574.331-2.82,3.926-2.82,3.926A2.989,2.989,0,0,1,429.283,1579.141Z" transform="translate(-419.556 -1578.128)" fill="#fff"/>
      <path id="Path_128" data-name="Path 128" d="M430.432,1586.4c-2.648.461-20.952,4.633-20.952,4.633s-2.072-.6-2.475.432c0,0,2.316-.045.788,1.18l-1.047,1.094s.921,4.432,2.187,5.842c.806-1.324.834-3.453,1.813-4.288.4,1.784,1.7,5.266,2.36,5.9-.029.806-.086,4.576.979,6.332.259-1.41-.835-3.857.432-6.159-.777-1.755-2.935-7.77-2.59-9.728-1.209,1.151-3.224,3.626-3.051,4.979-.46-.662-1.381-1.928-.317-3.281a4.154,4.154,0,0,0,.921-1.755c1.151-.173,20.635-4.087,20.635-4.087s1.727,1.3,2.13.892S433.079,1585.938,430.432,1586.4Z" transform="translate(-406.746 -1583.563)" fill="#fff"/>
      <path id="Path_129" data-name="Path 129" d="M428.247,1599.23s3.261,16.186-8.921,28.384l0,.016c5.4-5.2,15.251-17,9.944-30.012Z" transform="translate(-415.08 -1591.041)" fill="#fff"/>
    </g>
  </g>
</svg>
