<svg xmlns="http://www.w3.org/2000/svg" width="98.965" height="96.708" viewBox="0 0 98.965 96.708">
  <g id="Group_10" data-name="Group 10" transform="translate(0.15 0.15)">
    <g id="Group_1" data-name="Group 1">
      <path id="Path_1" data-name="Path 1" d="M306.646,342.536H296.151a1.879,1.879,0,0,0-1.881,1.843V348.7a1.879,1.879,0,0,0,1.881,1.843h10.495a1.846,1.846,0,0,0,1.843-1.843v-4.326A1.846,1.846,0,0,0,306.646,342.536Z" transform="translate(-252.066 -298.338)" fill="#8acb8c" stroke="#4da04e" stroke-width="0.3"/>
      <path id="Path_2" data-name="Path 2" d="M263.615,442.885a40.331,40.331,0,0,0,28.324,0c-12.827,1.053-9.291-15.234-5.793-22.644a16.183,16.183,0,0,1-16.739,0C272.906,427.651,276.442,443.939,263.615,442.885Z" transform="translate(-228.445 -358.214)" fill="#8acb8c" stroke="#4da04e" stroke-width="0.3"/>
      <path id="Path_3" data-name="Path 3" d="M208.156,157.963a39.985,39.985,0,0,1,28.7,12.074l6.206-5.191a48.22,48.22,0,0,0-69.776,0l6.169,5.191A40.051,40.051,0,0,1,208.156,157.963Z" transform="translate(-158.843 -149.913)" fill="#8acb8c" stroke="#4da04e" stroke-width="0.3"/>
      <path id="Path_4" data-name="Path 4" d="M196.029,482.952a40.148,40.148,0,0,1-31.71-15.5l-6.771,4.364a48.223,48.223,0,0,0,77,0l-6.808-4.364A40.038,40.038,0,0,1,196.029,482.952Z" transform="translate(-146.716 -394.594)" fill="#8acb8c" stroke="#4da04e" stroke-width="0.3"/>
      <path id="Path_5" data-name="Path 5" d="M274.853,294.5A15.027,15.027,0,1,0,289.9,309.55,15.034,15.034,0,0,0,274.853,294.5Zm0,26.255A11.228,11.228,0,1,1,286.1,309.55,11.189,11.189,0,0,1,274.853,320.759Z" transform="translate(-225.539 -261.327)" fill="#8acb8c" stroke="#4da04e" stroke-width="0.3"/>
      <path id="Path_6" data-name="Path 6" d="M398.664,215.487l-7.9,6.62a38.352,38.352,0,0,1,6.583,9.63c2.369,4.927,4.89,12.714-4.251,10.457l-19.974-5.416a16.143,16.143,0,0,1,3.047,19.9c5.53-2.708,15.121-3.122,20.35-.715,5.718,2.708.113,11.7-2.934,15.836l8.689,5.567a49.31,49.31,0,0,0-3.611-61.877Z" transform="translate(-312.826 -200.441)" fill="#8acb8c" stroke="#4da04e" stroke-width="0.3"/>
      <path id="Path_7" data-name="Path 7" d="M125.307,255.961c5.191-2.407,14.82-1.994,20.35.715a16.143,16.143,0,0,1,3.047-19.9l-20.011,5.416c-9.1,2.257-6.583-5.529-4.213-10.457a39.235,39.235,0,0,1,6.545-9.63l-7.9-6.62a49.368,49.368,0,0,0-3.573,61.877L128.2,271.8C125.194,267.659,119.552,258.669,125.307,255.961Z" transform="translate(-110.336 -200.441)" fill="#8acb8c" stroke="#4da04e" stroke-width="0.3"/>
    </g>
  </g>
</svg>
