<svg xmlns="http://www.w3.org/2000/svg" width="27.504" height="16.264" viewBox="0 0 27.504 16.264">
  <g id="Group_2093" data-name="Group 2093" transform="translate(0)" opacity="0.6">
    <path id="Path_3391" data-name="Path 3391" d="M721.635,180.832h0a1.324,1.324,0,0,0,1.417-1.13c0-.613-.655-1.053-1.417-1.053s-1.3.44-1.3,1.053a1.206,1.206,0,0,0,1.3,1.13Zm15.085,0h0a1.215,1.215,0,0,0,1.3-1.13,1.156,1.156,0,0,0-1.3-1.053c-.76,0-1.417.44-1.417,1.053a1.325,1.325,0,0,0,1.417,1.13Zm-10.955-4.017h.76c.311,0,.535-.265.535-.7a.618.618,0,0,0-.535-.614h-3.578l-1.848-1.4c0-.258-.553-4.457-.553-6.207h13.667l2.714,6.912h-4.441l-.432.956-3.144-1.917.312-.53c.224-.174.12-.258,0-.349a.436.436,0,0,0-.537.091l-.864,1.485c0,.083,0,.265.1.265.225.084.431,0,.431-.091l.329-.348,3.041,1.751c-.76.871-1.745,2.183-2.5,3.054H726.4Zm-4.13,4.9h0a2.057,2.057,0,1,0-2.488-2.008,2.264,2.264,0,0,0,2.488,2.008Zm15.085,0h0a2.061,2.061,0,1,0-2.506-2.008,2.257,2.257,0,0,0,2.506,2.008Zm0-4.456a2.5,2.5,0,1,1,0,4.9c-1.745,0-3.042-1.053-3.042-2.448s1.3-2.448,3.042-2.448Zm-18.229-7.609a1.468,1.468,0,0,0-1.3-.174c-.329.349-.76.788-.76.788-.1.084-.1.962,0,.962h0v2.88h0l-.224-1.744h0s0-.788-.1-.878a5.675,5.675,0,0,1-.865-.7,1.062,1.062,0,0,0-1.088.349c-.224.174-.224.522,0,.613a9.367,9.367,0,0,0,1.52.174l.1.44h.12l.208,1.744h-.76v6.381h2.938v-1.311h-.122a3.477,3.477,0,0,1,3.474-2.357,3.212,3.212,0,0,1,3.474,2.887,2.026,2.026,0,0,1-.1.781h8.346a2.026,2.026,0,0,1-.1-.781,3.212,3.212,0,0,1,3.474-2.887c1.831,0,3.456,1.311,3.456,2.887a2.025,2.025,0,0,1-.1.781h1.418l-.882-4.63-2.816-1.137-2.712-6.821h4.337c.12,0,.225-.174.225-.258a.212.212,0,0,0-.225-.174H739.1a3.767,3.767,0,0,0-2.712-1.576h-17.9a4.38,4.38,0,0,0-2.817,1.576h-.1c-.1,0-.224.084-.224.174s.121.258.224.258h4.112v6.123l-2.159.084.207-1.569h0c.12,0,.12-.349.12-.349a5.616,5.616,0,0,0,1.3-.181.374.374,0,0,0,0-.607.865.865,0,0,0-.864-.174,6.08,6.08,0,0,0-.76.523c-.121.084-.121.7-.121.788h0l-.207,1.569h-.329l-.1-2.88s.1,0,.1-.09l.1-.44a4.152,4.152,0,0,0,1.522-.349c.328-.084.328-.523,0-.7Zm3.144,7.609c1.728,0,3.041,1.046,3.041,2.448s-1.313,2.448-3.041,2.448-3.041-1.053-3.041-2.448,1.313-2.448,3.041-2.448Z" transform="translate(-713.985 -165.887)" fill="#00953a" fill-rule="evenodd"/>
  </g>
</svg>
