<?xml version="1.0" encoding="UTF-8" standalone="no"?>
<!-- Created with Inkscape (http://www.inkscape.org/) -->

<svg
   xmlns:dc="http://purl.org/dc/elements/1.1/"
   xmlns:cc="http://creativecommons.org/ns#"
   xmlns:rdf="http://www.w3.org/1999/02/22-rdf-syntax-ns#"
   xmlns:svg="http://www.w3.org/2000/svg"
   xmlns="http://www.w3.org/2000/svg"
   xmlns:sodipodi="http://sodipodi.sourceforge.net/DTD/sodipodi-0.dtd"
   xmlns:inkscape="http://www.inkscape.org/namespaces/inkscape"
   width="600"
   height="100"
   viewBox="0 0 158.75 26.458334"
   version="1.1"
   id="svg4221"
   inkscape:export-filename="C:\Users\chrono7\ipay88_mygolf2uLogoWhite_Final.png"
   inkscape:export-xdpi="96"
   inkscape:export-ydpi="96"
   inkscape:version="0.92.0 r15299"
   sodipodi:docname="mygolf2u-logo_ipay88_merchantLogo.svg">
  <defs
     id="defs4215" />
  <sodipodi:namedview
     id="base"
     pagecolor="#ffffff"
     bordercolor="#666666"
     borderopacity="1.0"
     inkscape:pageopacity="1"
     inkscape:pageshadow="2"
     inkscape:zoom="0.98994949"
     inkscape:cx="162.9592"
     inkscape:cy="11.234631"
     inkscape:document-units="mm"
     inkscape:current-layer="g4317"
     showgrid="true"
     units="px"
     inkscape:pagecheckerboard="false"
     showguides="false"
     inkscape:window-width="1920"
     inkscape:window-height="1017"
     inkscape:window-x="-8"
     inkscape:window-y="239"
     inkscape:window-maximized="1">
    <inkscape:grid
       type="xygrid"
       id="grid4471" />
  </sodipodi:namedview>
  <metadata
     id="metadata4218">
    <rdf:RDF>
      <cc:Work
         rdf:about="">
        <dc:format>image/svg+xml</dc:format>
        <dc:type
           rdf:resource="http://purl.org/dc/dcmitype/StillImage" />
        <dc:title></dc:title>
      </cc:Work>
    </rdf:RDF>
  </metadata>
  <g
     inkscape:label="Layer 1"
     inkscape:groupmode="layer"
     id="layer1"
     transform="translate(0,-270.54165)">
    <g
       id="g4317"
       transform="translate(-21.544643,3.4017857)">
      <g
         id="g4461"
         transform="matrix(0.8505556,0,0,0.8505556,19.40179,42.790459)">
        <g
           id="g3796"
           transform="matrix(0.20066157,0,0,-0.20066157,84.010471,284.63778)">
          <path
             d="m 0,0 c 0,-0.304 -0.091,-0.569 -0.273,-0.797 -0.182,-0.227 -0.485,-0.417 -0.91,-0.568 -0.425,-0.153 -1,-0.265 -1.729,-0.342 -0.728,-0.074 -1.653,-0.113 -2.775,-0.113 -1.153,0 -2.092,0.039 -2.821,0.113 -0.728,0.077 -1.312,0.189 -1.751,0.342 -0.44,0.151 -0.744,0.341 -0.911,0.568 -0.166,0.228 -0.25,0.493 -0.25,0.797 v 24.068 c 0,1.365 -0.129,2.609 -0.386,3.731 -0.258,1.122 -0.653,2.085 -1.184,2.888 -0.531,0.804 -1.198,1.426 -2.002,1.867 -0.803,0.438 -1.766,0.659 -2.888,0.659 -1.366,0 -2.745,-0.531 -4.141,-1.592 -1.395,-1.062 -2.911,-2.609 -4.549,-4.642 L -26.57,0 c 0,-0.304 -0.092,-0.569 -0.273,-0.797 -0.182,-0.227 -0.493,-0.417 -0.933,-0.568 -0.439,-0.153 -1.023,-0.265 -1.751,-0.342 -0.729,-0.074 -1.639,-0.113 -2.73,-0.113 -1.122,0 -2.048,0.039 -2.776,0.113 -0.727,0.077 -1.312,0.189 -1.752,0.342 -0.44,0.151 -0.75,0.341 -0.932,0.568 -0.182,0.228 -0.273,0.493 -0.273,0.797 v 24.068 c 0,1.365 -0.129,2.609 -0.387,3.731 -0.258,1.122 -0.645,2.085 -1.16,2.888 -0.516,0.804 -1.182,1.426 -2.002,1.867 -0.819,0.438 -1.774,0.659 -2.866,0.659 -1.396,0 -2.791,-0.531 -4.185,-1.592 -1.396,-1.062 -2.897,-2.609 -4.504,-4.642 V 0 c 0,-0.304 -0.092,-0.569 -0.274,-0.797 -0.181,-0.227 -0.493,-0.417 -0.933,-0.568 -0.44,-0.153 -1.023,-0.265 -1.752,-0.342 -0.727,-0.074 -1.653,-0.113 -2.775,-0.113 -1.122,0 -2.047,0.039 -2.775,0.113 -0.728,0.077 -1.312,0.189 -1.751,0.342 -0.44,0.151 -0.75,0.341 -0.933,0.568 -0.182,0.228 -0.273,0.493 -0.273,0.797 v 40.584 c 0,0.303 0.075,0.568 0.228,0.796 0.15,0.227 0.424,0.417 0.818,0.568 0.394,0.152 0.902,0.266 1.525,0.342 0.621,0.075 1.402,0.113 2.342,0.113 0.971,0 1.774,-0.038 2.412,-0.113 0.637,-0.076 1.129,-0.19 1.479,-0.342 0.348,-0.151 0.599,-0.341 0.75,-0.568 0.152,-0.228 0.228,-0.493 0.228,-0.796 v -4.687 c 2.244,2.427 4.481,4.247 6.711,5.459 2.229,1.214 4.557,1.821 6.983,1.821 1.668,0 3.169,-0.175 4.504,-0.524 1.335,-0.348 2.526,-0.848 3.572,-1.501 1.047,-0.652 1.949,-1.433 2.707,-2.342 0.758,-0.911 1.395,-1.927 1.911,-3.049 1.212,1.303 2.404,2.426 3.572,3.367 1.167,0.939 2.32,1.706 3.457,2.297 1.137,0.592 2.275,1.031 3.412,1.32 1.137,0.288 2.299,0.432 3.481,0.432 2.699,0 4.974,-0.455 6.824,-1.365 1.851,-0.911 3.345,-2.146 4.482,-3.708 1.137,-1.563 1.949,-3.39 2.434,-5.482 C -0.243,30.528 0,28.314 0,25.979 Z"
             style="fill:#231f20;fill-opacity:1;fill-rule:nonzero;stroke:none"
             id="path3798"
             inkscape:connector-curvature="0" />
        </g>
        <g
           id="g3800"
           transform="matrix(0.20066157,0,0,-0.20066157,88.530926,284.94818)">
          <path
             d="M 10.548441,0 5.6344407,-14.377 c -0.273,-0.759 -1.016,-1.304 -2.229,-1.638 -1.214,-0.334 -2.98799993,-0.502 -5.3229999,-0.502 -1.2130002,0 -2.1840002,0.055 -2.9120004,0.161 -0.727,0.106 -1.274,0.28 -1.638,0.522 -0.364,0.243 -0.562,0.547 -0.591,0.91 -0.031,0.364 0.06,0.805 0.273,1.32 L -1.3715592,0 c -0.394,0.182 -0.7510002,0.462 -1.0700002,0.842 -0.318,0.379 -0.553,0.779 -0.705,1.205 L -17.11356,39.355 c -0.395,1.061 -0.592,1.873 -0.592,2.434 0,0.562 0.182,1.001 0.546,1.319 0.365,0.319 0.979,0.538 1.843,0.661 0.865,0.121 2.009,0.181 3.434,0.181 1.305,0 2.3360002,-0.022 3.0950002,-0.068 0.758,-0.045 1.349,-0.159 1.7740002,-0.341 0.424,-0.183 0.744,-0.463 0.955,-0.842 0.212,-0.38 0.425,-0.918 0.637,-1.615 L 4.1334408,13.922 h 0.136 L 13.004441,41.63 c 0.183,0.788 0.417,1.311 0.705,1.569 0.289,0.258 0.767,0.447 1.435,0.57 0.665999,0.121 1.833999,0.181 3.501999,0.181 1.303,0 2.389,-0.06 3.254,-0.181 0.864,-0.123 1.502,-0.35 1.91,-0.683 0.41,-0.335 0.614,-0.781 0.614,-1.343 0,-0.561 -0.121,-1.221 -0.363,-1.978 z"
             style="fill:#231f20;fill-opacity:1;fill-rule:nonzero;stroke:none"
             id="path3802"
             inkscape:connector-curvature="0" />
        </g>
        <g
           id="g3804"
           transform="matrix(0.20066157,0,0,-0.20066157,104.39663,274.96958)">
          <path
             d="m 0,0 c 0,-0.88 -0.038,-1.638 -0.113,-2.275 -0.076,-0.637 -0.182,-1.145 -0.32,-1.525 -0.135,-0.379 -0.302,-0.644 -0.5,-0.796 -0.197,-0.152 -0.431,-0.227 -0.705,-0.227 -0.394,0 -1.032,0.273 -1.911,0.819 -0.879,0.546 -2.047,1.138 -3.503,1.775 -1.456,0.636 -3.193,1.228 -5.21,1.774 -2.016,0.546 -4.36,0.818 -7.029,0.818 -2.852,0 -5.43,-0.493 -7.733,-1.478 -2.307,-0.986 -4.278,-2.381 -5.915,-4.186 -1.638,-1.804 -2.898,-3.973 -3.777,-6.506 -0.88,-2.532 -1.319,-5.331 -1.319,-8.394 0,-3.366 0.447,-6.331 1.343,-8.895 0.893,-2.563 2.144,-4.709 3.753,-6.437 1.607,-1.73 3.541,-3.034 5.8,-3.913 2.259,-0.881 4.754,-1.32 7.484,-1.32 1.336,0 2.654,0.152 3.959,0.455 1.303,0.303 2.516,0.758 3.639,1.365 v 13.65 h -11.146 c -0.546,0 -0.971,0.341 -1.275,1.024 -0.302,0.681 -0.454,1.841 -0.454,3.48 0,0.849 0.037,1.562 0.113,2.138 0.076,0.576 0.189,1.039 0.341,1.387 0.153,0.349 0.334,0.607 0.546,0.774 0.213,0.167 0.455,0.25 0.729,0.25 h 19.882 c 0.485,0 0.918,-0.083 1.297,-0.25 0.378,-0.167 0.712,-0.417 1,-0.75 0.289,-0.334 0.508,-0.736 0.66,-1.206 0.151,-0.471 0.227,-1.009 0.227,-1.615 v -23.431 c 0,-0.91 -0.158,-1.707 -0.477,-2.39 -0.319,-0.682 -0.971,-1.22 -1.956,-1.614 -0.987,-0.396 -2.206,-0.805 -3.663,-1.23 -1.455,-0.423 -2.965,-0.789 -4.527,-1.09 -1.562,-0.304 -3.139,-0.532 -4.731,-0.683 -1.593,-0.151 -3.193,-0.227 -4.8,-0.227 -4.702,0 -8.911,0.674 -12.626,2.024 -3.716,1.35 -6.862,3.305 -9.44,5.869 -2.579,2.563 -4.55,5.687 -5.915,9.373 -1.365,3.685 -2.047,7.862 -2.047,12.534 0,4.824 0.727,9.153 2.184,12.99 1.455,3.836 3.517,7.097 6.187,9.782 2.669,2.684 5.891,4.738 9.668,6.165 3.776,1.425 7.985,2.138 12.625,2.138 2.549,0 4.869,-0.175 6.961,-0.524 2.093,-0.349 3.921,-0.773 5.483,-1.273 C -5.649,7.848 -4.353,7.31 -3.321,6.733 -2.29,6.156 -1.569,5.656 -1.16,5.232 -0.75,4.807 -0.455,4.208 -0.272,3.435 -0.091,2.661 0,1.517 0,0"
             style="fill:#7fcc2a;fill-opacity:1;fill-rule:nonzero;stroke:none"
             id="path3806"
             inkscape:connector-curvature="0" />
        </g>
        <g
           id="g3808"
           transform="matrix(0.20066157,0,0,-0.20066157,112.56771,280.57516)">
          <path
             d="m 0,0 c 0,2.002 -0.16,3.845 -0.478,5.528 -0.319,1.684 -0.858,3.147 -1.615,4.391 -0.759,1.243 -1.767,2.214 -3.026,2.912 -1.258,0.696 -2.844,1.046 -4.754,1.046 -1.698,0 -3.185,-0.312 -4.459,-0.933 -1.274,-0.622 -2.32,-1.532 -3.14,-2.73 -0.819,-1.198 -1.432,-2.639 -1.841,-4.321 -0.411,-1.684 -0.615,-3.603 -0.615,-5.756 0,-2.002 0.166,-3.845 0.5,-5.529 0.334,-1.682 0.871,-3.147 1.616,-4.389 0.743,-1.245 1.75,-2.207 3.025,-2.89 1.274,-0.683 2.85,-1.024 4.731,-1.024 1.73,0 3.232,0.311 4.505,0.932 1.274,0.622 2.321,1.525 3.139,2.707 0.819,1.184 1.426,2.617 1.82,4.301 C -0.198,-4.072 0,-2.154 0,0 m 11.783,0.454 c 0,-3.457 -0.455,-6.612 -1.365,-9.463 -0.91,-2.851 -2.29,-5.308 -4.14,-7.37 -1.85,-2.063 -4.171,-3.655 -6.961,-4.777 -2.791,-1.121 -6.05,-1.684 -9.782,-1.684 -3.61,0 -6.749,0.501 -9.418,1.502 -2.669,1 -4.883,2.456 -6.641,4.367 -1.76,1.911 -3.065,4.262 -3.914,7.052 -0.849,2.791 -1.273,5.976 -1.273,9.556 0,3.457 0.462,6.619 1.387,9.486 0.925,2.865 2.312,5.322 4.163,7.37 1.849,2.047 4.163,3.632 6.938,4.754 2.776,1.122 6.029,1.684 9.759,1.684 3.64,0 6.794,-0.494 9.464,-1.479 2.668,-0.986 4.875,-2.433 6.619,-4.345 1.744,-1.911 3.041,-4.261 3.891,-7.052 0.848,-2.791 1.273,-5.991 1.273,-9.601"
             style="fill:#7fcc2a;fill-opacity:1;fill-rule:nonzero;stroke:none"
             id="path3810"
             inkscape:connector-curvature="0" />
        </g>
        <g
           id="g3812"
           transform="matrix(0.20066157,0,0,-0.20066157,119.04965,284.63778)">
          <path
             d="m 0,0 c 0,-0.304 -0.092,-0.569 -0.273,-0.797 -0.182,-0.227 -0.495,-0.417 -0.933,-0.568 -0.44,-0.153 -1.023,-0.265 -1.752,-0.342 -0.728,-0.074 -1.653,-0.113 -2.775,-0.113 -1.122,0 -2.047,0.039 -2.775,0.113 -0.729,0.077 -1.312,0.189 -1.752,0.342 -0.44,0.151 -0.751,0.341 -0.932,0.568 -0.183,0.228 -0.273,0.493 -0.273,0.797 v 59.829 c 0,0.303 0.09,0.575 0.273,0.818 0.181,0.244 0.492,0.448 0.932,0.615 0.44,0.167 1.023,0.296 1.752,0.386 0.728,0.091 1.653,0.137 2.775,0.137 1.122,0 2.047,-0.046 2.775,-0.137 0.729,-0.09 1.312,-0.219 1.752,-0.386 0.438,-0.167 0.751,-0.371 0.933,-0.615 C -0.092,60.404 0,60.132 0,59.829 Z"
             style="fill:#7fcc2a;fill-opacity:1;fill-rule:nonzero;stroke:none"
             id="path3814"
             inkscape:connector-curvature="0" />
        </g>
        <g
           id="g3816"
           transform="matrix(0.20066157,0,0,-0.20066157,126.25287,273.39015)">
          <path
             d="m 0,0 c 0,-0.88 -0.031,-1.585 -0.092,-2.115 -0.061,-0.531 -0.152,-0.942 -0.273,-1.229 -0.121,-0.289 -0.258,-0.486 -0.409,-0.592 -0.152,-0.106 -0.319,-0.159 -0.5,-0.159 -0.213,0 -0.449,0.053 -0.705,0.159 -0.258,0.106 -0.578,0.219 -0.956,0.341 -0.38,0.121 -0.827,0.235 -1.342,0.341 -0.517,0.107 -1.122,0.16 -1.821,0.16 -0.818,0 -1.523,-0.13 -2.115,-0.387 -0.592,-0.258 -1.085,-0.667 -1.479,-1.228 -0.394,-0.562 -0.682,-1.29 -0.864,-2.184 -0.182,-0.895 -0.273,-1.995 -0.273,-3.298 v -3.732 h 7.416 c 0.273,0 0.523,-0.075 0.751,-0.227 0.227,-0.152 0.416,-0.402 0.568,-0.75 0.152,-0.349 0.266,-0.828 0.342,-1.434 0.074,-0.606 0.113,-1.35 0.113,-2.229 0,-1.668 -0.152,-2.859 -0.455,-3.572 -0.303,-0.713 -0.744,-1.068 -1.319,-1.068 h -7.416 v -32.85 c 0,-0.303 -0.091,-0.569 -0.274,-0.797 -0.181,-0.227 -0.485,-0.417 -0.909,-0.568 -0.426,-0.152 -1.016,-0.265 -1.774,-0.342 -0.759,-0.074 -1.684,-0.113 -2.776,-0.113 -1.091,0 -2.009,0.039 -2.751,0.113 -0.746,0.077 -1.336,0.19 -1.775,0.342 -0.44,0.151 -0.744,0.341 -0.91,0.568 -0.168,0.228 -0.251,0.494 -0.251,0.797 v 32.85 h -5.096 c -0.576,0 -1.009,0.355 -1.297,1.068 -0.288,0.713 -0.431,1.904 -0.431,3.572 0,0.879 0.037,1.623 0.114,2.229 0.074,0.606 0.181,1.085 0.317,1.434 0.138,0.348 0.319,0.598 0.546,0.75 0.228,0.152 0.493,0.227 0.797,0.227 h 5.05 v 3.413 c 0,2.76 0.273,5.179 0.819,7.256 0.546,2.078 1.403,3.807 2.571,5.188 1.167,1.379 2.654,2.418 4.458,3.116 1.805,0.697 3.936,1.047 6.393,1.047 1.183,0 2.304,-0.1 3.366,-0.296 C -3.58,5.604 -2.746,5.391 -2.14,5.163 -1.532,4.936 -1.123,4.724 -0.91,4.526 -0.698,4.329 -0.524,4.041 -0.388,3.662 -0.251,3.282 -0.153,2.798 -0.092,2.206 -0.031,1.615 0,0.879 0,0"
             style="fill:#7fcc2a;fill-opacity:1;fill-rule:nonzero;stroke:none"
             id="path3818"
             inkscape:connector-curvature="0" />
        </g>
        <g
           id="g3820"
           transform="matrix(0.20066157,0,0,-0.20066157,134.83448,283.97132)">
          <path
             d="m 0,0 c 0,-0.881 -0.039,-1.631 -0.114,-2.252 -0.076,-0.622 -0.19,-1.131 -0.341,-1.524 -0.153,-0.395 -0.35,-0.676 -0.592,-0.842 -0.243,-0.168 -0.516,-0.25 -0.818,-0.25 h -33.851 c -0.667,0 -1.244,0.059 -1.728,0.181 -0.486,0.122 -0.881,0.356 -1.183,0.706 -0.305,0.348 -0.524,0.856 -0.66,1.524 -0.137,0.667 -0.205,1.531 -0.205,2.593 0,1.002 0.046,1.858 0.137,2.571 0.09,0.712 0.257,1.349 0.501,1.91 0.242,0.562 0.551,1.108 0.932,1.639 0.379,0.53 0.871,1.115 1.478,1.752 l 10.192,10.919 c 2.031,2.123 3.669,4.056 4.913,5.801 1.243,1.744 2.214,3.336 2.912,4.777 0.698,1.44 1.175,2.767 1.433,3.981 0.257,1.212 0.388,2.366 0.388,3.458 0,1.001 -0.161,1.949 -0.478,2.843 -0.319,0.895 -0.79,1.676 -1.411,2.344 -0.622,0.666 -1.403,1.189 -2.343,1.569 -0.94,0.379 -2.048,0.569 -3.322,0.569 -1.79,0 -3.374,-0.228 -4.754,-0.683 -1.381,-0.454 -2.594,-0.963 -3.64,-1.524 -1.047,-0.561 -1.919,-1.077 -2.616,-1.546 -0.698,-0.471 -1.244,-0.706 -1.638,-0.706 -0.272,0 -0.507,0.091 -0.705,0.273 -0.198,0.182 -0.357,0.484 -0.477,0.91 -0.122,0.424 -0.221,0.993 -0.296,1.706 -0.076,0.712 -0.113,1.584 -0.113,2.616 0,0.698 0.022,1.281 0.067,1.751 0.046,0.47 0.114,0.88 0.205,1.229 0.091,0.349 0.212,0.652 0.364,0.91 0.151,0.258 0.417,0.568 0.796,0.933 0.379,0.364 1.076,0.826 2.093,1.387 1.016,0.562 2.268,1.108 3.753,1.638 1.486,0.53 3.124,0.979 4.914,1.343 1.789,0.363 3.654,0.546 5.597,0.546 3.063,0 5.739,-0.387 8.03,-1.16 2.289,-0.774 4.192,-1.851 5.709,-3.231 1.517,-1.381 2.646,-3.018 3.39,-4.914 0.743,-1.895 1.114,-3.935 1.114,-6.119 0,-1.91 -0.182,-3.792 -0.545,-5.642 -0.364,-1.85 -1.123,-3.844 -2.275,-5.982 -1.153,-2.139 -2.776,-4.505 -4.869,-7.098 -2.092,-2.594 -4.868,-5.604 -8.325,-9.031 l -6.871,-7.053 h 23.204 c 0.303,0 0.583,-0.091 0.841,-0.272 0.258,-0.183 0.478,-0.463 0.66,-0.843 0.182,-0.379 0.319,-0.88 0.409,-1.5 C -0.046,1.584 0,0.849 0,0"
             style="fill:#231f20;fill-opacity:1;fill-rule:nonzero;stroke:none"
             id="path3822"
             inkscape:connector-curvature="0" />
        </g>
        <g
           id="g3824"
           transform="matrix(0.20066157,0,0,-0.20066157,144.45704,284.63778)">
          <path
             d="M 0,0 C 0,-0.304 -0.076,-0.569 -0.228,-0.797 -0.38,-1.024 -0.646,-1.214 -1.023,-1.365 -1.403,-1.518 -1.904,-1.63 -2.525,-1.707 -3.147,-1.781 -3.929,-1.82 -4.869,-1.82 c -1,0 -1.813,0.039 -2.433,0.113 -0.623,0.077 -1.115,0.189 -1.479,0.342 -0.365,0.151 -0.622,0.341 -0.774,0.568 -0.152,0.228 -0.228,0.493 -0.228,0.797 v 4.687 c -2.244,-2.428 -4.527,-4.248 -6.847,-5.461 -2.319,-1.212 -4.724,-1.82 -7.211,-1.82 -2.791,0 -5.134,0.455 -7.028,1.365 -1.898,0.91 -3.43,2.154 -4.596,3.731 -1.168,1.576 -2.002,3.404 -2.503,5.482 -0.5,2.078 -0.75,4.664 -0.75,7.757 v 24.843 c 0,0.303 0.083,0.568 0.25,0.796 0.166,0.227 0.47,0.417 0.91,0.568 0.439,0.152 1.03,0.266 1.775,0.342 0.742,0.075 1.66,0.113 2.752,0.113 1.122,0 2.048,-0.038 2.775,-0.113 0.728,-0.076 1.312,-0.19 1.752,-0.342 0.439,-0.151 0.75,-0.341 0.933,-0.568 0.181,-0.228 0.272,-0.493 0.272,-0.796 V 17.653 c 0,-2.124 0.137,-3.747 0.409,-4.869 0.274,-1.122 0.691,-2.085 1.252,-2.888 0.561,-0.804 1.275,-1.426 2.138,-1.866 0.864,-0.44 1.873,-0.66 3.026,-0.66 1.455,0 2.919,0.53 4.39,1.593 1.471,1.061 3.041,2.608 4.709,4.641 v 26.98 c 0,0.303 0.084,0.568 0.251,0.796 0.166,0.227 0.47,0.417 0.91,0.568 0.44,0.152 1.024,0.266 1.751,0.342 0.729,0.075 1.653,0.113 2.776,0.113 1.122,0 2.047,-0.038 2.775,-0.113 0.727,-0.076 1.304,-0.19 1.728,-0.342 0.425,-0.151 0.729,-0.341 0.911,-0.568 C -0.091,41.152 0,40.887 0,40.584 Z"
             style="fill:#231f20;fill-opacity:1;fill-rule:nonzero;stroke:none"
             id="path3826"
             inkscape:connector-curvature="0" />
        </g>
      </g>
      <g
         id="g4469"
         transform="translate(11.112501)">
        <g
           id="g3828"
           transform="matrix(0.30946463,0,0,-0.30946463,56.750857,268.86598)">
          <path
             d="M 0,0 C 1.245,0 2.516,-2.524 2.516,-2.524 1.156,-2.861 0,-4.124 0,-4.124 3.602,-5.891 4.963,-9.299 4.963,-9.299 5.235,-7.532 4.147,-4.376 4.147,-4.376 8.77,-2.482 8.09,-0.463 8.09,-0.463 L 4.011,-1.094 c 0,0 -0.738,3.507 -4.758,3.307 C -9.188,1.487 -7.408,-6.396 -7.408,-6.396 -6.638,0.421 0,0 0,0"
             style="fill:#7fcc2a;fill-opacity:1;fill-rule:nonzero;stroke:none"
             id="path3830"
             inkscape:connector-curvature="0" />
        </g>
        <g
           id="g3832"
           transform="matrix(0.30946463,0,0,-0.30946463,66.953505,270.10294)">
          <path
             d="m 0,0 c -6.253,-1.011 -49.486,-10.162 -49.486,-10.162 0,0 -4.894,1.325 -5.846,-0.947 0,0 5.471,0.099 1.861,-2.588 l -2.472,-2.399 c 0,0 2.175,-9.719 5.166,-12.812 1.903,2.903 1.971,7.574 4.282,9.404 0.952,-3.913 4.011,-11.55 5.574,-12.938 -0.068,-1.768 -0.204,-10.037 2.311,-13.886 0.612,3.093 -1.971,8.457 1.02,13.507 -1.835,3.85 -6.933,17.042 -6.118,21.334 -2.855,-2.526 -7.613,-7.953 -7.206,-10.92 -1.087,1.452 -3.262,4.229 -0.747,7.195 1.359,1.894 1.699,2.021 2.175,3.851 2.719,0.379 48.738,8.963 48.738,8.963 0,0 4.079,-2.841 5.031,-1.957 C 5.234,-3.472 6.254,1.01 0,0"
             style="fill:#7fcc2a;fill-opacity:1;fill-rule:nonzero;stroke:none"
             id="path3834"
             inkscape:connector-curvature="0" />
        </g>
        <g
           id="g3836"
           transform="matrix(0.30946463,0,0,-0.30946463,59.265259,273.73612)">
          <path
             d="m 0,0 c 0,0 7.702,-35.496 -21.071,-62.248 l -0.004,-0.037 c 12.758,11.402 36.021,37.287 23.487,65.819 z"
             style="fill:#7fcc2a;fill-opacity:1;fill-rule:nonzero;stroke:none"
             id="path3838"
             inkscape:connector-curvature="0" />
        </g>
      </g>
    </g>
  </g>
</svg>
