<?xml version="1.0" encoding="UTF-8" standalone="no"?>
<svg
   xmlns:dc="http://purl.org/dc/elements/1.1/"
   xmlns:cc="http://creativecommons.org/ns#"
   xmlns:rdf="http://www.w3.org/1999/02/22-rdf-syntax-ns#"
   xmlns:svg="http://www.w3.org/2000/svg"
   xmlns="http://www.w3.org/2000/svg"
   xmlns:sodipodi="http://sodipodi.sourceforge.net/DTD/sodipodi-0.dtd"
   xmlns:inkscape="http://www.inkscape.org/namespaces/inkscape"
   id="Group_727"
   data-name="Group 727"
   width="94.896"
   height="103"
   viewBox="0 0 94.896 103"
   version="1.1"
   sodipodi:docname="new-game.svg"
   inkscape:version="0.92.4 (5da689c313, 2019-01-14)">
  <metadata
     id="metadata900">
    <rdf:RDF>
      <cc:Work
         rdf:about="">
        <dc:format>image/svg+xml</dc:format>
        <dc:type
           rdf:resource="http://purl.org/dc/dcmitype/StillImage" />
      </cc:Work>
    </rdf:RDF>
  </metadata>
  <sodipodi:namedview
     pagecolor="#ffffff"
     bordercolor="#666666"
     borderopacity="1"
     objecttolerance="10"
     gridtolerance="10"
     guidetolerance="10"
     inkscape:pageopacity="0"
     inkscape:pageshadow="2"
     inkscape:window-width="1600"
     inkscape:window-height="837"
     id="namedview898"
     showgrid="false"
     inkscape:zoom="2.2912621"
     inkscape:cx="47.448002"
     inkscape:cy="51.5"
     inkscape:window-x="1912"
     inkscape:window-y="1084"
     inkscape:window-maximized="1"
     inkscape:current-layer="Group_727" />
  <defs
     id="defs690">
    <style
       id="style676">
      .cls-1 {
        fill: url(#linear-gradient);
      }

      .cls-2 {
        fill: #fff;
      }

      .cls-10, .cls-11, .cls-12, .cls-13, .cls-14, .cls-15, .cls-16, .cls-17, .cls-18, .cls-19, .cls-2, .cls-20, .cls-21, .cls-22, .cls-23, .cls-24, .cls-25, .cls-26, .cls-27, .cls-28, .cls-29, .cls-3, .cls-30, .cls-31, .cls-32, .cls-33, .cls-34, .cls-35, .cls-36, .cls-37, .cls-38, .cls-39, .cls-4, .cls-40, .cls-41, .cls-42, .cls-43, .cls-44, .cls-45, .cls-46, .cls-47, .cls-48, .cls-49, .cls-5, .cls-50, .cls-51, .cls-52, .cls-53, .cls-54, .cls-55, .cls-56, .cls-57, .cls-58, .cls-59, .cls-6, .cls-60, .cls-61, .cls-62, .cls-63, .cls-64, .cls-65, .cls-66, .cls-67, .cls-68, .cls-69, .cls-7, .cls-70, .cls-71, .cls-72, .cls-73, .cls-74, .cls-75, .cls-76, .cls-77, .cls-78, .cls-79, .cls-8, .cls-9 {
        mix-blend-mode: multiply;
        isolation: isolate;
      }

      .cls-3 {
        fill: #fdfdfd;
      }

      .cls-4 {
        fill: #fbfbfb;
      }

      .cls-5 {
        fill: #f9f9fa;
      }

      .cls-6 {
        fill: #f8f8f8;
      }

      .cls-7 {
        fill: #f6f7f7;
      }

      .cls-8 {
        fill: #f5f5f6;
      }

      .cls-9 {
        fill: #f4f4f5;
      }

      .cls-10 {
        fill: #f3f3f4;
      }

      .cls-11 {
        fill: #f2f2f3;
      }

      .cls-12 {
        fill: #f0f1f2;
      }

      .cls-13 {
        fill: #eff0f1;
      }

      .cls-14 {
        fill: #eeeff0;
      }

      .cls-15 {
        fill: #edeeef;
      }

      .cls-16 {
        fill: #ecedee;
      }

      .cls-17 {
        fill: #ebeced;
      }

      .cls-18 {
        fill: #eaebec;
      }

      .cls-19 {
        fill: #e9eaeb;
      }

      .cls-20 {
        fill: #e8e9ea;
      }

      .cls-21 {
        fill: #e7e8e9;
      }

      .cls-22 {
        fill: #e6e7e8;
      }

      .cls-23 {
        fill: #e5e6e7;
      }

      .cls-24 {
        fill: #e4e5e6;
      }

      .cls-25 {
        fill: #e3e4e5;
      }

      .cls-26 {
        fill: #e2e3e4;
      }

      .cls-27 {
        fill: #e1e2e3;
      }

      .cls-28 {
        fill: #e0e1e2;
      }

      .cls-29 {
        fill: #dfe0e1;
      }

      .cls-30 {
        fill: #dedfe0;
      }

      .cls-31 {
        fill: #dddedf;
      }

      .cls-32 {
        fill: #dcddde;
      }

      .cls-33 {
        fill: #dbdcdd;
      }

      .cls-34 {
        fill: #dadbdd;
      }

      .cls-35 {
        fill: #d9dadc;
      }

      .cls-36 {
        fill: #d8d9db;
      }

      .cls-37 {
        fill: #d7d8da;
      }

      .cls-38 {
        fill: #d6d7d9;
      }

      .cls-39 {
        fill: #d5d6d8;
      }

      .cls-40 {
        fill: #d4d5d7;
      }

      .cls-41 {
        fill: #d3d4d6;
      }

      .cls-42 {
        fill: #d2d3d5;
      }

      .cls-43 {
        fill: #d1d2d4;
      }

      .cls-44 {
        fill: #d0d2d3;
      }

      .cls-45 {
        fill: #cfd1d2;
      }

      .cls-46 {
        fill: #ced0d1;
      }

      .cls-47 {
        fill: #cdcfd0;
      }

      .cls-48 {
        fill: #cccecf;
      }

      .cls-49 {
        fill: #cbcdcf;
      }

      .cls-50 {
        fill: #caccce;
      }

      .cls-51 {
        fill: #c9cbcd;
      }

      .cls-52 {
        fill: #c8cacc;
      }

      .cls-53, .cls-80 {
        fill: #c7c9cb;
      }

      .cls-54 {
        fill: #c6c8ca;
      }

      .cls-55 {
        fill: #c5c7c9;
      }

      .cls-56 {
        fill: #c4c6c8;
      }

      .cls-57 {
        fill: #c3c5c7;
      }

      .cls-58 {
        fill: #c2c4c6;
      }

      .cls-59 {
        fill: #c1c3c5;
      }

      .cls-60 {
        fill: #c0c2c4;
      }

      .cls-61 {
        fill: #bfc1c3;
      }

      .cls-62 {
        fill: #bec0c3;
      }

      .cls-63 {
        fill: #bdbfc2;
      }

      .cls-64 {
        fill: #bcbec1;
      }

      .cls-65 {
        fill: #bbbdc0;
      }

      .cls-66 {
        fill: #babdbf;
      }

      .cls-67 {
        fill: #b9bcbe;
      }

      .cls-68 {
        fill: #b8bbbd;
      }

      .cls-69 {
        fill: #b7babc;
      }

      .cls-70 {
        fill: #b6b9bb;
      }

      .cls-71 {
        fill: #b5b8ba;
      }

      .cls-72 {
        fill: #b4b7b9;
      }

      .cls-73 {
        fill: #b3b6b8;
      }

      .cls-74 {
        fill: #b3b5b7;
      }

      .cls-75 {
        fill: #b2b4b6;
      }

      .cls-76 {
        fill: #b1b3b6;
      }

      .cls-77 {
        fill: #b0b2b5;
      }

      .cls-78 {
        fill: #afb1b4;
      }

      .cls-79, .cls-84 {
        fill: #aeb0b3;
      }

      .cls-81 {
        fill: #818386;
      }

      .cls-82 {
        fill: #e0e1e3;
      }

      .cls-83 {
        fill: url(#radial-gradient);
      }

      .cls-85 {
        fill: #363535;
        font-size: 18px;
        font-family: Calibri-Bold, Calibri;
        font-weight: 700;
        opacity: 0.8;
      }
    </style>
    <linearGradient
       id="linear-gradient"
       y1="0.5"
       x2="1"
       y2="0.5"
       gradientUnits="objectBoundingBox">
      <stop
         offset="0"
         stop-color="#cede93"
         id="stop678" />
      <stop
         offset="0.5"
         stop-color="#a8cb62"
         id="stop680" />
      <stop
         offset="1"
         stop-color="#73ab2a"
         id="stop682" />
    </linearGradient>
    <radialGradient
       id="radial-gradient"
       cx="0.669"
       cy="0.169"
       r="1.129"
       gradientUnits="objectBoundingBox"
       gradientTransform="translate(0)">
      <stop
         offset="0"
         stop-color="#fff"
         id="stop685" />
      <stop
         offset="1"
         stop-color="#76787b"
         id="stop687" />
    </radialGradient>
  </defs>
  <path
     id="Path_1351"
     data-name="Path 1351"
     class="cls-1"
     d="M335.271,458.281c-2.605-3.628-103.074,2.922-64.9,6.454s14.479,3.543-30,10.943h78.777s25.754-.531,5.151-7C314.929,465.732,282.369,460.539,335.271,458.281Z"
     transform="translate(-240.375 -409.019)" />
  <g
     id="Group_724"
     data-name="Group 724"
     transform="translate(49.604 60.263)">
    <path
       id="Path_1352"
       data-name="Path 1352"
       class="cls-2"
       d="M588.464,533.766c0,.459-3.925.831-8.768.831s-8.767-.372-8.767-.831,3.926-.831,8.767-.831S588.464,533.307,588.464,533.766Z"
       transform="translate(-570.929 -532.935)" />
    <path
       id="Path_1353"
       data-name="Path 1353"
       class="cls-3"
       d="M588.871,533.814c0,.454-3.883.822-8.673.822s-8.672-.368-8.672-.822,3.883-.822,8.672-.822S588.871,533.36,588.871,533.814Z"
       transform="translate(-571.431 -532.983)" />
    <path
       id="Path_1354"
       data-name="Path 1354"
       class="cls-4"
       d="M589.277,533.861c0,.449-3.84.813-8.577.813s-8.577-.364-8.577-.813,3.84-.813,8.577-.813S589.277,533.412,589.277,533.861Z"
       transform="translate(-571.933 -533.03)" />
    <path
       id="Path_1355"
       data-name="Path 1355"
       class="cls-5"
       d="M589.683,533.909c0,.444-3.8.8-8.483.8s-8.482-.36-8.482-.8,3.8-.8,8.482-.8S589.683,533.465,589.683,533.909Z"
       transform="translate(-572.433 -533.078)" />
    <path
       id="Path_1356"
       data-name="Path 1356"
       class="cls-6"
       d="M590.09,533.956c0,.439-3.755.795-8.388.795s-8.387-.356-8.387-.795,3.755-.795,8.387-.795S590.09,533.517,590.09,533.956Z"
       transform="translate(-572.935 -533.125)" />
    <path
       id="Path_1357"
       data-name="Path 1357"
       class="cls-7"
       d="M590.5,534c0,.434-3.713.785-8.293.785s-8.292-.352-8.292-.785,3.713-.786,8.292-.786S590.5,533.57,590.5,534Z"
       transform="translate(-573.437 -533.173)" />
    <path
       id="Path_1358"
       data-name="Path 1358"
       class="cls-8"
       d="M590.9,534.051c0,.429-3.67.777-8.2.777s-8.2-.348-8.2-.777,3.67-.777,8.2-.777S590.9,533.622,590.9,534.051Z"
       transform="translate(-573.938 -533.22)" />
    <path
       id="Path_1359"
       data-name="Path 1359"
       class="cls-9"
       d="M591.309,534.1c0,.424-3.627.767-8.1.767s-8.1-.344-8.1-.767,3.628-.768,8.1-.768S591.309,533.675,591.309,534.1Z"
       transform="translate(-574.439 -533.268)" />
    <path
       id="Path_1360"
       data-name="Path 1360"
       class="cls-10"
       d="M591.715,534.147c0,.419-3.585.758-8.007.758s-8.007-.34-8.007-.758,3.585-.759,8.007-.759S591.715,533.728,591.715,534.147Z"
       transform="translate(-574.941 -533.316)" />
    <path
       id="Path_1361"
       data-name="Path 1361"
       class="cls-11"
       d="M592.122,534.194c0,.414-3.542.749-7.912.749s-7.912-.335-7.912-.749,3.543-.75,7.912-.75S592.122,533.779,592.122,534.194Z"
       transform="translate(-575.442 -533.363)" />
    <path
       id="Path_1362"
       data-name="Path 1362"
       class="cls-12"
       d="M592.529,534.241c0,.409-3.5.741-7.818.741s-7.817-.331-7.817-.741,3.5-.741,7.817-.741S592.529,533.832,592.529,534.241Z"
       transform="translate(-575.944 -533.41)" />
    <path
       id="Path_1363"
       data-name="Path 1363"
       class="cls-13"
       d="M592.935,534.289c0,.4-3.457.732-7.722.732s-7.722-.328-7.722-.732,3.458-.732,7.722-.732S592.935,533.885,592.935,534.289Z"
       transform="translate(-576.445 -533.458)" />
    <path
       id="Path_1364"
       data-name="Path 1364"
       class="cls-14"
       d="M593.34,534.337c0,.4-3.415.722-7.627.722s-7.627-.323-7.627-.722,3.415-.723,7.627-.723S593.34,533.937,593.34,534.337Z"
       transform="translate(-576.946 -533.506)" />
    <path
       id="Path_1365"
       data-name="Path 1365"
       class="cls-15"
       d="M593.747,534.384c0,.394-3.372.714-7.532.714s-7.532-.32-7.532-.714,3.372-.714,7.532-.714S593.747,533.99,593.747,534.384Z"
       transform="translate(-577.448 -533.553)" />
    <path
       id="Path_1366"
       data-name="Path 1366"
       class="cls-16"
       d="M594.154,534.431c0,.389-3.33.7-7.437.7s-7.437-.315-7.437-.7,3.33-.7,7.437-.7S594.154,534.042,594.154,534.431Z"
       transform="translate(-577.949 -533.6)" />
    <path
       id="Path_1367"
       data-name="Path 1367"
       class="cls-17"
       d="M594.56,534.479c0,.384-3.287.7-7.342.7s-7.342-.311-7.342-.7,3.287-.7,7.342-.7S594.56,534.095,594.56,534.479Z"
       transform="translate(-578.451 -533.648)" />
    <path
       id="Path_1368"
       data-name="Path 1368"
       class="cls-18"
       d="M594.966,534.526c0,.379-3.244.687-7.247.687s-7.247-.307-7.247-.687,3.245-.687,7.247-.687S594.966,534.146,594.966,534.526Z"
       transform="translate(-578.952 -533.695)" />
    <path
       id="Path_1369"
       data-name="Path 1369"
       class="cls-19"
       d="M595.373,534.574c0,.374-3.2.678-7.152.678s-7.152-.3-7.152-.678,3.2-.678,7.152-.678S595.373,534.2,595.373,534.574Z"
       transform="translate(-579.453 -533.743)" />
    <path
       id="Path_1370"
       data-name="Path 1370"
       class="cls-20"
       d="M595.779,534.622c0,.369-3.159.669-7.057.669s-7.057-.3-7.057-.669,3.16-.669,7.057-.669S595.779,534.252,595.779,534.622Z"
       transform="translate(-579.955 -533.791)" />
    <path
       id="Path_1371"
       data-name="Path 1371"
       class="cls-21"
       d="M596.186,534.669c0,.364-3.117.66-6.962.66s-6.962-.3-6.962-.66,3.117-.66,6.962-.66S596.186,534.3,596.186,534.669Z"
       transform="translate(-580.456 -533.838)" />
    <path
       id="Path_1372"
       data-name="Path 1372"
       class="cls-22"
       d="M596.593,534.716c0,.359-3.074.65-6.867.65s-6.867-.291-6.867-.65,3.074-.651,6.867-.651S596.593,534.356,596.593,534.716Z"
       transform="translate(-580.958 -533.885)" />
    <path
       id="Path_1373"
       data-name="Path 1373"
       class="cls-23"
       d="M597,534.763c0,.354-3.032.642-6.772.642s-6.772-.287-6.772-.642,3.032-.641,6.772-.641S597,534.409,597,534.763Z"
       transform="translate(-581.459 -533.933)" />
    <path
       id="Path_1374"
       data-name="Path 1374"
       class="cls-24"
       d="M597.4,534.812c0,.349-2.989.632-6.677.632s-6.677-.283-6.677-.632,2.989-.633,6.677-.633S597.4,534.462,597.4,534.812Z"
       transform="translate(-581.96 -533.981)" />
    <path
       id="Path_1375"
       data-name="Path 1375"
       class="cls-25"
       d="M597.812,534.859c0,.344-2.947.623-6.582.623s-6.582-.279-6.582-.623,2.947-.624,6.582-.624S597.812,534.514,597.812,534.859Z"
       transform="translate(-582.462 -534.028)" />
    <path
       id="Path_1376"
       data-name="Path 1376"
       class="cls-26"
       d="M598.218,534.906c0,.34-2.9.615-6.487.615s-6.486-.275-6.486-.615,2.9-.615,6.486-.615S598.218,534.566,598.218,534.906Z"
       transform="translate(-582.964 -534.075)" />
    <path
       id="Path_1377"
       data-name="Path 1377"
       class="cls-27"
       d="M598.624,534.954c0,.334-2.862.606-6.392.606s-6.392-.271-6.392-.606,2.862-.606,6.392-.606S598.624,534.619,598.624,534.954Z"
       transform="translate(-583.464 -534.123)" />
    <path
       id="Path_1378"
       data-name="Path 1378"
       class="cls-28"
       d="M599.03,535c0,.33-2.819.6-6.3.6s-6.3-.267-6.3-.6,2.819-.6,6.3-.6S599.03,534.672,599.03,535Z"
       transform="translate(-583.966 -534.171)" />
    <path
       id="Path_1379"
       data-name="Path 1379"
       class="cls-29"
       d="M599.437,535.049c0,.324-2.777.588-6.2.588s-6.2-.263-6.2-.588,2.777-.588,6.2-.588S599.437,534.724,599.437,535.049Z"
       transform="translate(-584.468 -534.218)" />
    <path
       id="Path_1380"
       data-name="Path 1380"
       class="cls-30"
       d="M599.843,535.1c0,.32-2.734.578-6.107.578s-6.106-.259-6.106-.578,2.734-.579,6.106-.579S599.843,534.776,599.843,535.1Z"
       transform="translate(-584.969 -534.265)" />
    <path
       id="Path_1381"
       data-name="Path 1381"
       class="cls-31"
       d="M600.25,535.144c0,.314-2.692.57-6.012.57s-6.011-.255-6.011-.57,2.692-.57,6.011-.57S600.25,534.829,600.25,535.144Z"
       transform="translate(-585.471 -534.313)" />
    <path
       id="Path_1382"
       data-name="Path 1382"
       class="cls-32"
       d="M600.656,535.191c0,.31-2.649.561-5.917.561s-5.917-.251-5.917-.561,2.649-.561,5.917-.561S600.656,534.881,600.656,535.191Z"
       transform="translate(-585.972 -534.36)" />
    <path
       id="Path_1383"
       data-name="Path 1383"
       class="cls-33"
       d="M601.062,535.239c0,.3-2.606.551-5.822.551s-5.821-.247-5.821-.551,2.607-.552,5.821-.552S601.062,534.934,601.062,535.239Z"
       transform="translate(-586.473 -534.408)" />
    <path
       id="Path_1384"
       data-name="Path 1384"
       class="cls-34"
       d="M601.469,535.287c0,.3-2.564.542-5.727.542s-5.726-.243-5.726-.542,2.564-.543,5.726-.543S601.469,534.987,601.469,535.287Z"
       transform="translate(-586.975 -534.456)" />
    <path
       id="Path_1385"
       data-name="Path 1385"
       class="cls-35"
       d="M601.876,535.334c0,.295-2.521.533-5.632.533s-5.631-.239-5.631-.533,2.521-.534,5.631-.534S601.876,535.039,601.876,535.334Z"
       transform="translate(-587.477 -534.503)" />
    <path
       id="Path_1386"
       data-name="Path 1386"
       class="cls-36"
       d="M602.281,535.381c0,.29-2.479.524-5.537.524s-5.536-.235-5.536-.524,2.479-.525,5.536-.525S602.281,535.091,602.281,535.381Z"
       transform="translate(-587.977 -534.55)" />
    <path
       id="Path_1387"
       data-name="Path 1387"
       class="cls-37"
       d="M602.688,535.429c0,.285-2.436.516-5.442.516s-5.441-.231-5.441-.516,2.436-.516,5.441-.516S602.688,535.144,602.688,535.429Z"
       transform="translate(-588.479 -534.598)" />
    <path
       id="Path_1388"
       data-name="Path 1388"
       class="cls-38"
       d="M603.095,535.477c0,.28-2.393.506-5.346.506s-5.346-.227-5.346-.506,2.394-.507,5.346-.507S603.095,535.2,603.095,535.477Z"
       transform="translate(-588.981 -534.646)" />
    <path
       id="Path_1389"
       data-name="Path 1389"
       class="cls-39"
       d="M603.5,535.524c0,.275-2.351.5-5.251.5s-5.251-.223-5.251-.5,2.351-.5,5.251-.5S603.5,535.249,603.5,535.524Z"
       transform="translate(-589.482 -534.693)" />
    <path
       id="Path_1390"
       data-name="Path 1390"
       class="cls-40"
       d="M603.908,535.571c0,.27-2.309.489-5.157.489s-5.156-.219-5.156-.489,2.309-.489,5.156-.489S603.908,535.3,603.908,535.571Z"
       transform="translate(-589.984 -534.74)" />
    <path
       id="Path_1391"
       data-name="Path 1391"
       class="cls-41"
       d="M604.314,535.619c0,.265-2.266.48-5.062.48s-5.061-.215-5.061-.48,2.266-.48,5.061-.48S604.314,535.354,604.314,535.619Z"
       transform="translate(-590.485 -534.788)" />
    <path
       id="Path_1392"
       data-name="Path 1392"
       class="cls-42"
       d="M604.72,535.667c0,.26-2.223.47-4.966.47s-4.966-.211-4.966-.47,2.224-.471,4.966-.471S604.72,535.406,604.72,535.667Z"
       transform="translate(-590.987 -534.836)" />
    <path
       id="Path_1393"
       data-name="Path 1393"
       class="cls-43"
       d="M605.127,535.714c0,.255-2.181.461-4.872.461s-4.871-.206-4.871-.461,2.181-.462,4.871-.462S605.127,535.459,605.127,535.714Z"
       transform="translate(-591.488 -534.883)" />
    <path
       id="Path_1394"
       data-name="Path 1394"
       class="cls-44"
       d="M605.533,535.761c0,.25-2.138.453-4.776.453s-4.776-.2-4.776-.453,2.139-.453,4.776-.453S605.533,535.511,605.533,535.761Z"
       transform="translate(-591.99 -534.93)" />
    <path
       id="Path_1395"
       data-name="Path 1395"
       class="cls-45"
       d="M605.939,535.809c0,.245-2.1.443-4.681.443s-4.681-.2-4.681-.443,2.1-.443,4.681-.443S605.939,535.564,605.939,535.809Z"
       transform="translate(-592.491 -534.978)" />
    <path
       id="Path_1396"
       data-name="Path 1396"
       class="cls-46"
       d="M606.346,535.856c0,.24-2.053.434-4.586.434s-4.586-.194-4.586-.434,2.054-.435,4.586-.435S606.346,535.616,606.346,535.856Z"
       transform="translate(-592.992 -535.025)" />
    <path
       id="Path_1397"
       data-name="Path 1397"
       class="cls-47"
       d="M606.752,535.9c0,.235-2.011.425-4.491.425s-4.491-.19-4.491-.425,2.011-.426,4.491-.426S606.752,535.669,606.752,535.9Z"
       transform="translate(-593.494 -535.073)" />
    <path
       id="Path_1398"
       data-name="Path 1398"
       class="cls-48"
       d="M607.159,535.951c0,.23-1.968.416-4.4.416s-4.4-.186-4.4-.416,1.968-.416,4.4-.416S607.159,535.721,607.159,535.951Z"
       transform="translate(-593.996 -535.121)" />
    <path
       id="Path_1399"
       data-name="Path 1399"
       class="cls-49"
       d="M607.565,536c0,.225-1.926.407-4.3.407s-4.3-.182-4.3-.407,1.926-.408,4.3-.408S607.565,535.773,607.565,536Z"
       transform="translate(-594.497 -535.168)" />
    <path
       id="Path_1400"
       data-name="Path 1400"
       class="cls-50"
       d="M607.971,536.046c0,.22-1.883.4-4.206.4s-4.206-.179-4.206-.4,1.883-.4,4.206-.4S607.971,535.825,607.971,536.046Z"
       transform="translate(-594.998 -535.215)" />
    <path
       id="Path_1401"
       data-name="Path 1401"
       class="cls-51"
       d="M608.378,536.094c0,.215-1.84.389-4.111.389s-4.111-.174-4.111-.389,1.841-.39,4.111-.39S608.378,535.878,608.378,536.094Z"
       transform="translate(-595.5 -535.263)" />
    <path
       id="Path_1402"
       data-name="Path 1402"
       class="cls-52"
       d="M608.784,536.141c0,.21-1.8.38-4.016.38s-4.016-.17-4.016-.38,1.8-.38,4.016-.38S608.784,535.931,608.784,536.141Z"
       transform="translate(-596.001 -535.311)" />
    <path
       id="Path_1403"
       data-name="Path 1403"
       class="cls-53"
       d="M609.191,536.189c0,.2-1.756.371-3.921.371s-3.921-.166-3.921-.371,1.756-.372,3.921-.372S609.191,535.983,609.191,536.189Z"
       transform="translate(-596.502 -535.358)" />
    <path
       id="Path_1404"
       data-name="Path 1404"
       class="cls-54"
       d="M609.6,536.236c0,.2-1.713.362-3.826.362s-3.826-.162-3.826-.362,1.713-.362,3.826-.362S609.6,536.035,609.6,536.236Z"
       transform="translate(-597.004 -535.405)" />
    <path
       id="Path_1405"
       data-name="Path 1405"
       class="cls-55"
       d="M610,536.284c0,.2-1.67.353-3.731.353s-3.731-.158-3.731-.353,1.671-.354,3.731-.354S610,536.088,610,536.284Z"
       transform="translate(-597.505 -535.453)" />
    <path
       id="Path_1406"
       data-name="Path 1406"
       class="cls-56"
       d="M610.41,536.331c0,.19-1.628.344-3.636.344s-3.636-.154-3.636-.344,1.628-.344,3.636-.344S610.41,536.141,610.41,536.331Z"
       transform="translate(-598.006 -535.501)" />
    <path
       id="Path_1407"
       data-name="Path 1407"
       class="cls-57"
       d="M610.816,536.379c0,.185-1.585.335-3.541.335s-3.541-.15-3.541-.335,1.585-.336,3.541-.336S610.816,536.193,610.816,536.379Z"
       transform="translate(-598.508 -535.548)" />
    <path
       id="Path_1408"
       data-name="Path 1408"
       class="cls-58"
       d="M611.224,536.426c0,.18-1.543.326-3.446.326s-3.445-.146-3.445-.326,1.543-.327,3.445-.327S611.224,536.245,611.224,536.426Z"
       transform="translate(-599.01 -535.595)" />
    <path
       id="Path_1409"
       data-name="Path 1409"
       class="cls-59"
       d="M611.629,536.474c0,.175-1.5.317-3.351.317s-3.351-.142-3.351-.317,1.5-.318,3.351-.318S611.629,536.3,611.629,536.474Z"
       transform="translate(-599.51 -535.643)" />
    <path
       id="Path_1410"
       data-name="Path 1410"
       class="cls-60"
       d="M612.035,536.521a17.339,17.339,0,0,1-6.511,0,17.325,17.325,0,0,1,6.511,0Z"
       transform="translate(-600.012 -535.69)" />
    <path
       id="Path_1411"
       data-name="Path 1411"
       class="cls-61"
       d="M612.442,536.569a16.83,16.83,0,0,1-6.321,0,16.823,16.823,0,0,1,6.321,0Z"
       transform="translate(-600.514 -535.738)" />
    <path
       id="Path_1412"
       data-name="Path 1412"
       class="cls-62"
       d="M612.848,536.616a16.327,16.327,0,0,1-6.131,0,16.327,16.327,0,0,1,6.131,0Z"
       transform="translate(-601.015 -535.786)" />
    <path
       id="Path_1413"
       data-name="Path 1413"
       class="cls-63"
       d="M613.255,536.663a15.814,15.814,0,0,1-5.941,0,15.818,15.818,0,0,1,5.941,0Z"
       transform="translate(-601.517 -535.833)" />
    <path
       id="Path_1414"
       data-name="Path 1414"
       class="cls-64"
       d="M613.661,536.711a15.308,15.308,0,0,1-5.751,0,15.308,15.308,0,0,1,5.751,0Z"
       transform="translate(-602.018 -535.88)" />
    <path
       id="Path_1415"
       data-name="Path 1415"
       class="cls-65"
       d="M614.067,536.759a14.811,14.811,0,0,1-5.561,0,14.8,14.8,0,0,1,5.561,0Z"
       transform="translate(-602.519 -535.928)" />
    <path
       id="Path_1416"
       data-name="Path 1416"
       class="cls-66"
       d="M614.474,536.806a14.309,14.309,0,0,1-5.371,0,14.3,14.3,0,0,1,5.371,0Z"
       transform="translate(-603.021 -535.976)" />
    <path
       id="Path_1417"
       data-name="Path 1417"
       class="cls-67"
       d="M614.881,536.854a13.8,13.8,0,0,1-5.181,0,13.79,13.79,0,0,1,5.181,0Z"
       transform="translate(-603.523 -536.023)" />
    <path
       id="Path_1418"
       data-name="Path 1418"
       class="cls-68"
       d="M615.286,536.9a13.285,13.285,0,0,1-4.991,0,13.285,13.285,0,0,1,4.991,0Z"
       transform="translate(-604.023 -536.07)" />
    <path
       id="Path_1419"
       data-name="Path 1419"
       class="cls-69"
       d="M615.693,536.948a12.79,12.79,0,0,1-4.8,0,12.78,12.78,0,0,1,4.8,0Z"
       transform="translate(-604.525 -536.118)" />
    <path
       id="Path_1420"
       data-name="Path 1420"
       class="cls-70"
       d="M616.1,537a12.277,12.277,0,0,1-4.611,0,12.277,12.277,0,0,1,4.611,0Z"
       transform="translate(-605.027 -536.166)" />
    <path
       id="Path_1421"
       data-name="Path 1421"
       class="cls-71"
       d="M616.506,537.043a11.77,11.77,0,0,1-4.421,0,11.77,11.77,0,0,1,4.421,0Z"
       transform="translate(-605.528 -536.213)" />
    <path
       id="Path_1422"
       data-name="Path 1422"
       class="cls-72"
       d="M616.913,537.091a11.271,11.271,0,0,1-4.231,0,11.264,11.264,0,0,1,4.231,0Z"
       transform="translate(-606.03 -536.261)" />
    <path
       id="Path_1423"
       data-name="Path 1423"
       class="cls-73"
       d="M617.319,537.139a10.765,10.765,0,0,1-4.041,0,10.748,10.748,0,0,1,4.041,0Z"
       transform="translate(-606.531 -536.308)" />
    <path
       id="Path_1424"
       data-name="Path 1424"
       class="cls-74"
       d="M617.725,537.186a10.25,10.25,0,0,1-3.851,0,10.244,10.244,0,0,1,3.851,0Z"
       transform="translate(-607.032 -536.355)" />
    <path
       id="Path_1425"
       data-name="Path 1425"
       class="cls-75"
       d="M618.132,537.234a9.746,9.746,0,0,1-3.661,0,9.739,9.739,0,0,1,3.661,0Z"
       transform="translate(-607.534 -536.403)" />
    <path
       id="Path_1426"
       data-name="Path 1426"
       class="cls-76"
       d="M618.538,537.281a9.237,9.237,0,0,1-3.47,0,9.241,9.241,0,0,1,3.47,0Z"
       transform="translate(-608.036 -536.451)" />
    <path
       id="Path_1427"
       data-name="Path 1427"
       class="cls-77"
       d="M618.944,537.328a8.737,8.737,0,0,1-3.28,0,8.73,8.73,0,0,1,3.28,0Z"
       transform="translate(-608.537 -536.498)" />
    <path
       id="Path_1428"
       data-name="Path 1428"
       class="cls-78"
       d="M619.351,537.376a8.227,8.227,0,0,1-3.091,0,8.217,8.217,0,0,1,3.091,0Z"
       transform="translate(-609.038 -536.545)" />
    <path
       id="Path_1429"
       data-name="Path 1429"
       class="cls-79"
       d="M619.757,537.424a7.725,7.725,0,0,1-2.9,0,7.715,7.715,0,0,1,2.9,0Z"
       transform="translate(-609.54 -536.593)" />
  </g>
  <g
     id="Group_725"
     data-name="Group 725"
     transform="translate(53.164)">
    <path
       id="Path_1430"
       data-name="Path 1430"
       class="cls-80"
       d="M622.076,214.814V195.775c10.5,11.562,21-.865,31.5,10.7C643.079,201.257,632.578,220.03,622.076,214.814Z"
       transform="translate(-619.199 -194.807)" />
    <path
       id="Path_1431"
       data-name="Path 1431"
       class="cls-81"
       d="M605.954,190.669a.968.968,0,0,0-1.936,0,.99.99,0,0,0,.013.129v42.993h1.909V190.8A.971.971,0,0,0,605.954,190.669Z"
       transform="translate(-604.018 -189.701)" />
    <path
       id="Path_1432"
       data-name="Path 1432"
       class="cls-82"
       d="M734.825,234.186s-3.763-2.02-10.062-1.149A94.083,94.083,0,0,1,734.825,234.186Z"
       transform="translate(-705.526 -225.949)" />
  </g>
  <path
     id="Path_1433"
     data-name="Path 1433"
     class="cls-83"
     d="M568.633,427.67a9.695,9.695,0,1,1-9.694-9.695A9.694,9.694,0,0,1,568.633,427.67Z"
     transform="translate(-502.96 -376.028)" />
  <g
     id="Group_726"
     data-name="Group 726"
     transform="translate(46.369 42.182)">
    <path
       id="Path_1434"
       data-name="Path 1434"
       class="cls-84"
       d="M603.261,537.674a3.606,3.606,0,0,1-.71-.081c.018-.008.021-.01.352.025.258.028.514.054.812.066-.092,0-.263,0-.453-.011"
       transform="translate(-594.141 -518.766)" />
    <path
       id="Path_1435"
       data-name="Path 1435"
       class="cls-84"
       d="M590.116,535.71a2.245,2.245,0,0,1-.693-.236l.006-.009a14.12,14.12,0,0,1,1.462.345.826.826,0,0,1-.2-.006,4.9,4.9,0,0,1-.577-.094"
       transform="translate(-583.105 -516.982)" />
    <path
       id="Path_1436"
       data-name="Path 1436"
       class="cls-84"
       d="M580.06,532.57a4.733,4.733,0,0,1-.681-.37c.073,0,1.257.568,1.263.573v.008a.348.348,0,0,1-.1-.02c-.05-.016-.134-.042-.3-.109-.063-.026-.124-.053-.185-.081"
       transform="translate(-574.661 -514.237)" />
    <path
       id="Path_1437"
       data-name="Path 1437"
       class="cls-84"
       d="M606.555,537.6a3.227,3.227,0,0,1-.576-.106,1.3,1.3,0,0,1,.271.046c.2.04.262.049.347.064l-.041,0"
       transform="translate(-597.023 -518.691)" />
    <path
       id="Path_1438"
       data-name="Path 1438"
       class="cls-84"
       d="M593.124,534.627a1.673,1.673,0,0,1-.621-.259,8.445,8.445,0,0,1,1.466.418c-.02.007-.032.012-.237-.022a6.109,6.109,0,0,1-.609-.136"
       transform="translate(-585.694 -516.053)" />
    <path
       id="Path_1439"
       data-name="Path 1439"
       class="cls-84"
       d="M580.292,530.507c-.426-.2-.668-.4-.594-.418a5.558,5.558,0,0,1,1.352.65c-.012.019-.068.013-.207-.024a3.616,3.616,0,0,1-.551-.207"
       transform="translate(-574.919 -512.462)" />
    <path
       id="Path_1440"
       data-name="Path 1440"
       class="cls-84"
       d="M570.347,525.511a3.281,3.281,0,0,1-.627-.545c.028,0,.092.027.663.446.424.312.505.386.505.412-.014.008-.046-.006-.112-.04a3.4,3.4,0,0,1-.429-.274"
       transform="translate(-566.541 -508.156)" />
    <path
       id="Path_1441"
       data-name="Path 1441"
       class="cls-84"
       d="M609.111,537.944a1.012,1.012,0,0,1-.117-.04,1.077,1.077,0,0,1,.137.047l-.02-.006"
       transform="translate(-599.558 -519.032)" />
    <path
       id="Path_1442"
       data-name="Path 1442"
       class="cls-84"
       d="M598.185,534.123c-.368-.143-.528-.266-.476-.289a6.622,6.622,0,0,1,1.235.509c-.009,0-.02.008-.22-.044-.082-.023-.3-.083-.539-.176"
       transform="translate(-590.063 -515.608)" />
    <path
       id="Path_1443"
       data-name="Path 1443"
       class="cls-84"
       d="M584.975,528.975c-.372-.207-.546-.407-.443-.435a3.206,3.206,0,0,1,1.27.724c-.015.039-.2-.021-.267-.041a3.44,3.44,0,0,1-.56-.248"
       transform="translate(-578.969 -511.158)" />
    <path
       id="Path_1444"
       data-name="Path 1444"
       class="cls-84"
       d="M572.321,522.992c-.37-.279-.543-.544-.427-.566.2-.036,1.256.8,1.168.918-.029.041-.171-.018-.232-.043a2.61,2.61,0,0,1-.509-.31"
       transform="translate(-568.339 -506.019)" />
    <path
       id="Path_1445"
       data-name="Path 1445"
       class="cls-84"
       d="M562.436,516.328c-.3-.322-.535-.678-.45-.68.133,0,1.066,1.047.977,1.1-.023.014-.091-.032-.131-.059a2.812,2.812,0,0,1-.4-.364"
       transform="translate(-560.025 -500.322)" />
    <path
       id="Path_1446"
       data-name="Path 1446"
       class="cls-84"
       d="M558.048,511.246c.059.1.144.235.261.409l-.261-.409"
       transform="translate(-556.729 -496.621)" />
    <path
       id="Path_1447"
       data-name="Path 1447"
       class="cls-84"
       d="M603.85,534.353c-.261-.165-.331-.284-.266-.3a.474.474,0,0,1,.235.105c.172.121.551.451.552.452s-.012,0-.148-.06a3.849,3.849,0,0,1-.373-.2"
       transform="translate(-594.991 -515.797)" />
    <path
       id="Path_1448"
       data-name="Path 1448"
       class="cls-84"
       d="M592.618,528.29c-.309-.237-.376-.427-.228-.438.328-.024,1.063.721.973.79-.042.032-.214-.042-.27-.067a2.534,2.534,0,0,1-.475-.285"
       transform="translate(-585.537 -510.581)" />
    <path
       id="Path_1449"
       data-name="Path 1449"
       class="cls-84"
       d="M579.512,521.227c-.337-.313-.38-.568-.192-.57.323,0,1.18.826,1.009.977-.063.055-.254-.032-.316-.06a2.194,2.194,0,0,1-.5-.347"
       transform="translate(-574.518 -504.533)" />
    <path
       id="Path_1450"
       data-name="Path 1450"
       class="cls-84"
       d="M566.915,513.567c-.3-.358-.393-.7-.174-.685.332.026,1.1,1,.9,1.143-.067.049-.209-.029-.271-.063a1.9,1.9,0,0,1-.457-.4"
       transform="translate(-563.935 -497.996)" />
    <path
       id="Path_1451"
       data-name="Path 1451"
       class="cls-84"
       d="M557.126,505.465c-.26-.423-.362-.831-.2-.779.27.083.892,1.234.7,1.3-.046.014-.115-.042-.156-.076a1.922,1.922,0,0,1-.348-.44"
       transform="translate(-555.72 -491.102)" />
    <path
       id="Path_1452"
       data-name="Path 1452"
       class="cls-84"
       d="M551.722,496.63l-.176-.564-.011-.045c.056.066.509,1.354.518,1.424-.013-.013-.013-.013-.035-.062-.089-.226-.22-.522-.3-.753"
       transform="translate(-551.254 -483.822)" />
    <path
       id="Path_1453"
       data-name="Path 1453"
       class="cls-84"
       d="M608.555,535.214c-.11-.2-.065-.288-.011-.277s.084.077.1.138c.038.124.025.255.057.38l-.023-.038a2.01,2.01,0,0,1-.127-.2"
       transform="translate(-599.132 -516.538)" />
    <path
       id="Path_1454"
       data-name="Path 1454"
       class="cls-84"
       d="M601.687,528.6c-.181-.264-.119-.45.058-.417.325.062.591.714.466.806-.054.04-.175-.047-.227-.084a1.341,1.341,0,0,1-.3-.306"
       transform="translate(-593.324 -510.854)" />
    <path
       id="Path_1455"
       data-name="Path 1455"
       class="cls-84"
       d="M590.35,520.567c-.257-.36-.146-.6.126-.544.442.09.86.859.641,1.005-.1.068-.289-.041-.36-.081a1.5,1.5,0,0,1-.406-.379"
       transform="translate(-583.762 -503.993)" />
    <path
       id="Path_1456"
       data-name="Path 1456"
       class="cls-84"
       d="M577.148,511.787c-.286-.436-.148-.739.167-.656.515.134.929,1.024.653,1.168-.124.064-.312-.042-.382-.082a1.491,1.491,0,0,1-.438-.431"
       transform="translate(-572.655 -496.514)" />
    <path
       id="Path_1457"
       data-name="Path 1457"
       class="cls-84"
       d="M564.556,502.662c-.235-.439-.165-.838.134-.761.452.114.916,1.156.584,1.311-.114.054-.259-.041-.322-.081a1.387,1.387,0,0,1-.4-.469"
       transform="translate(-562.081 -488.757)" />
    <path
       id="Path_1458"
       data-name="Path 1458"
       class="cls-84"
       d="M554.825,493.353c-.182-.5-.124-.956.106-.836.357.186.662,1.374.366,1.428-.071.013-.143-.053-.186-.093a1.408,1.408,0,0,1-.286-.5"
       transform="translate(-553.929 -480.86)" />
    <path
       id="Path_1459"
       data-name="Path 1459"
       class="cls-84"
       d="M549.826,483.8c-.078-.5-.077-.97,0-.912a3.053,3.053,0,0,1,.185,1.541c-.024,0-.049-.062-.064-.1a2.817,2.817,0,0,1-.123-.532"
       transform="translate(-549.768 -472.776)" />
    <path
       id="Path_1460"
       data-name="Path 1460"
       class="cls-84"
       d="M609.912,536.408c.218-.324.232-.225.232-.224,0,.019-.015.1-.29.308.02-.028.04-.056.058-.084"
       transform="translate(-600.281 -517.573)" />
    <path
       id="Path_1461"
       data-name="Path 1461"
       class="cls-84"
       d="M609.528,529.936c0-.333.222-.459.337-.326.17.194-.055.732-.19.731-.046,0-.075-.064-.092-.1a.826.826,0,0,1-.055-.3"
       transform="translate(-600.007 -512.016)" />
    <path
       id="Path_1462"
       data-name="Path 1462"
       class="cls-84"
       d="M602.9,521.295c-.1-.4.184-.617.446-.454.358.225.342.914.056.974-.12.025-.236-.084-.279-.124a.9.9,0,0,1-.223-.4"
       transform="translate(-594.416 -504.642)" />
    <path
       id="Path_1463"
       data-name="Path 1463"
       class="cls-84"
       d="M591.6,511.438c-.171-.477.167-.75.535-.582.494.226.6,1.007.26,1.15a.513.513,0,0,1-.453-.11,1.043,1.043,0,0,1-.342-.458"
       transform="translate(-584.898 -496.252)" />
    <path
       id="Path_1464"
       data-name="Path 1464"
       class="cls-84"
       d="M578.159,501.127c-.19-.513.143-.9.584-.671.514.263.682,1.122.25,1.275a.539.539,0,0,1-.458-.107,1.1,1.1,0,0,1-.375-.5"
       transform="translate(-573.59 -487.495)" />
    <path
       id="Path_1465"
       data-name="Path 1465"
       class="cls-84"
       d="M565.376,490.752c-.162-.551.13-.982.523-.768.485.265.62,1.257.189,1.4a.432.432,0,0,1-.379-.1,1.071,1.071,0,0,1-.334-.525"
       transform="translate(-562.851 -478.7)" />
    <path
       id="Path_1466"
       data-name="Path 1466"
       class="cls-84"
       d="M555.6,480.485c-.086-.57.156-1.043.431-.843.389.283.391,1.456,0,1.495a.273.273,0,0,1-.216-.108,1.074,1.074,0,0,1-.219-.544"
       transform="translate(-554.653 -470.014)" />
    <path
       id="Path_1467"
       data-name="Path 1467"
       class="cls-84"
       d="M550.561,470.329c.024-.55.186-1.02.308-.9.2.2.045,1.591-.177,1.565-.042,0-.068-.069-.083-.107a1.612,1.612,0,0,1-.049-.562"
       transform="translate(-550.432 -461.452)" />
    <path
       id="Path_1468"
       data-name="Path 1468"
       class="cls-84"
       d="M550.328,461.789c.094-.419.236-.975.361-1.385-.1.315-.336,1.247-.371,1.436l.01-.052"
       transform="translate(-550.23 -453.88)" />
    <path
       id="Path_1469"
       data-name="Path 1469"
       class="cls-84"
       d="M609.873,537.5a1.939,1.939,0,0,1,.314-.123v0a1.285,1.285,0,0,1-.334.129l.019-.008"
       transform="translate(-600.281 -518.586)" />
    <path
       id="Path_1470"
       data-name="Path 1470"
       class="cls-84"
       d="M613.248,531.948c.279-.338.485-.371.486-.26,0,.231-.664.659-.713.622-.015-.01.012-.055.033-.093a2.709,2.709,0,0,1,.194-.269"
       transform="translate(-602.939 -513.758)" />
    <path
       id="Path_1471"
       data-name="Path 1471"
       class="cls-84"
       d="M613.55,523.407c.112-.413.476-.571.612-.347.178.293-.26.932-.5.873-.074-.019-.1-.1-.118-.139a.754.754,0,0,1,.005-.388"
       transform="translate(-603.364 -506.468)" />
    <path
       id="Path_1472"
       data-name="Path 1472"
       class="cls-84"
       d="M607.252,512.948c0-.527.5-.724.772-.421.326.364.051,1.058-.317,1.058a.4.4,0,0,1-.3-.166.771.771,0,0,1-.158-.47"
       transform="translate(-598.094 -497.578)" />
    <path
       id="Path_1473"
       data-name="Path 1473"
       class="cls-84"
       d="M596.235,501.459a.543.543,0,0,1,.887-.533c.453.367.323,1.19-.193,1.223a.594.594,0,0,1-.419-.165.885.885,0,0,1-.276-.524"
       transform="translate(-588.827 -487.83)" />
    <path
       id="Path_1474"
       data-name="Path 1474"
       class="cls-84"
       d="M582.567,489.75a.606.606,0,0,1,.946-.648c.543.372.448,1.264-.143,1.345a.652.652,0,0,1-.483-.147.9.9,0,0,1-.32-.549"
       transform="translate(-577.332 -477.901)" />
    <path
       id="Path_1475"
       data-name="Path 1475"
       class="cls-84"
       d="M569.46,478.365c-.066-.62.434-1.047.864-.737.494.356.394,1.3-.151,1.426a.511.511,0,0,1-.439-.126.881.881,0,0,1-.274-.563"
       transform="translate(-566.318 -468.273)" />
    <path
       id="Path_1476"
       data-name="Path 1476"
       class="cls-84"
       d="M559.531,467.382c.019-.632.443-1.087.745-.8.388.372.131,1.472-.347,1.491a.3.3,0,0,1-.245-.124.853.853,0,0,1-.153-.569"
       transform="translate(-557.975 -459)" />
    <path
       id="Path_1477"
       data-name="Path 1477"
       class="cls-84"
       d="M554.394,457.643c.135-.57.479-1.014.6-.778.186.352-.273,1.518-.551,1.4-.042-.017-.057-.056-.074-.1a1.01,1.01,0,0,1,.022-.526"
       transform="translate(-553.619 -450.85)" />
    <path
       id="Path_1478"
       data-name="Path 1478"
       class="cls-84"
       d="M554.387,449.308a3.889,3.889,0,0,1,.456-.779,5.518,5.518,0,0,1-.67,1.339c-.009-.017-.009-.021.011-.087a3.711,3.711,0,0,1,.2-.474"
       transform="translate(-553.466 -443.897)" />
    <path
       id="Path_1479"
       data-name="Path 1479"
       class="cls-84"
       d="M609.871,538.154l.03,0a.444.444,0,0,1-.047.007l.017,0"
       transform="translate(-600.281 -519.238)" />
    <path
       id="Path_1480"
       data-name="Path 1480"
       class="cls-84"
       d="M613.735,534.209c.573-.286.631-.256.614-.213a3.1,3.1,0,0,1-1.167.491c0-.008,0-.008.136-.072s.121-.057.416-.206"
       transform="translate(-603.08 -515.724)" />
    <path
       id="Path_1481"
       data-name="Path 1481"
       class="cls-84"
       d="M620.317,526.505c.336-.38.656-.448.68-.289.049.327-.828.869-.925.767-.027-.029-.006-.085.01-.127a1.5,1.5,0,0,1,.236-.351"
       transform="translate(-608.86 -509.139)" />
    <path
       id="Path_1482"
       data-name="Path 1482"
       class="cls-84"
       d="M620.47,516.069c.2-.5.7-.638.823-.323.159.411-.467,1.084-.756.948a.243.243,0,0,1-.12-.167.773.773,0,0,1,.052-.458"
       transform="translate(-609.149 -500.263)" />
    <path
       id="Path_1483"
       data-name="Path 1483"
       class="cls-84"
       d="M614.35,503.951c.09-.585.68-.768.961-.419a.752.752,0,0,1-.518,1.154.436.436,0,0,1-.335-.2.753.753,0,0,1-.108-.532"
       transform="translate(-604.052 -489.988)" />
    <path
       id="Path_1484"
       data-name="Path 1484"
       class="cls-84"
       d="M603.562,491.066a.644.644,0,0,1,1.12-.469.735.735,0,0,1-.5,1.241.65.65,0,0,1-.393-.2.817.817,0,0,1-.222-.573"
       transform="translate(-594.991 -479.08)" />
    <path
       id="Path_1485"
       data-name="Path 1485"
       class="cls-84"
       d="M590.133,478.21a.711.711,0,0,1,1.19-.57.772.772,0,0,1-.4,1.338.717.717,0,0,1-.516-.18.817.817,0,0,1-.27-.588"
       transform="translate(-583.702 -468.208)" />
    <path
       id="Path_1486"
       data-name="Path 1486"
       class="cls-84"
       d="M576.658,465.968c.025-.7.8-1.091,1.217-.608a.832.832,0,0,1-.626,1.349.589.589,0,0,1-.364-.155.752.752,0,0,1-.227-.586"
       transform="translate(-572.373 -457.866)" />
    <path
       id="Path_1487"
       data-name="Path 1487"
       class="cls-84"
       d="M566.508,455.155c.119-.639.768-1.035,1.038-.632.3.447-.215,1.371-.721,1.3a.354.354,0,0,1-.219-.126.65.65,0,0,1-.1-.543"
       transform="translate(-563.827 -448.799)" />
    <path
       id="Path_1488"
       data-name="Path 1488"
       class="cls-84"
       d="M561.264,446.3c.229-.538.712-.921.82-.65.146.364-.489,1.317-.808,1.213a.138.138,0,0,1-.085-.091.678.678,0,0,1,.073-.472"
       transform="translate(-559.358 -441.399)" />
    <path
       id="Path_1489"
       data-name="Path 1489"
       class="cls-84"
       d="M561.258,439.113c.273-.367.63-.725.65-.651.038.149-.809,1.207-.906,1.13-.014-.011-.006-.039,0-.072a1.872,1.872,0,0,1,.252-.408"
       transform="translate(-559.206 -435.426)" />
    <path
       id="Path_1490"
       data-name="Path 1490"
       class="cls-84"
       d="M612.027,536.346c.661-.152.661-.152.7-.138a4.648,4.648,0,0,1-1.489.29,1.464,1.464,0,0,1,.207-.034c.134-.023.291-.052.582-.118"
       transform="translate(-601.444 -517.602)" />
    <path
       id="Path_1491"
       data-name="Path 1491"
       class="cls-84"
       d="M623.3,530.107c.549-.328.749-.324.71-.219a2.282,2.282,0,0,1-1.257.624c-.014-.023.06-.079.108-.117.167-.124.346-.234.439-.289"
       transform="translate(-611.121 -512.24)" />
    <path
       id="Path_1492"
       data-name="Path 1492"
       class="cls-84"
       d="M629.529,520.4c.374-.428.792-.521.794-.262,0,.4-.876,1.016-1.046.848-.043-.042-.023-.115-.01-.165a1.4,1.4,0,0,1,.262-.422"
       transform="translate(-616.587 -503.978)" />
    <path
       id="Path_1493"
       data-name="Path 1493"
       class="cls-84"
       d="M629.54,508.275c.257-.546.811-.664.937-.308.159.445-.509,1.224-.881,1.028a.294.294,0,0,1-.14-.2.838.838,0,0,1,.084-.52"
       transform="translate(-616.751 -493.694)" />
    <path
       id="Path_1494"
       data-name="Path 1494"
       class="cls-84"
       d="M623.493,494.7c.142-.605.834-.819,1.1-.341s-.207,1.268-.722,1.154a.491.491,0,0,1-.307-.231.789.789,0,0,1-.075-.582"
       transform="translate(-611.727 -482.209)" />
    <path
       id="Path_1495"
       data-name="Path 1495"
       class="cls-84"
       d="M612.848,480.652a.7.7,0,0,1,1.221-.429.774.774,0,0,1-.625,1.266.683.683,0,0,1-.408-.225.824.824,0,0,1-.187-.612"
       transform="translate(-602.794 -470.332)" />
    <path
       id="Path_1496"
       data-name="Path 1496"
       class="cls-84"
       d="M599.666,466.875a.75.75,0,0,1,1.331-.457.786.786,0,0,1-.64,1.277.755.755,0,0,1-.461-.208.791.791,0,0,1-.23-.613"
       transform="translate(-591.715 -458.699)" />
    <path
       id="Path_1497"
       data-name="Path 1497"
       class="cls-84"
       d="M586.4,454.419c.094-.688,1-.991,1.366-.458a.819.819,0,0,1-.862,1.191.638.638,0,0,1-.5-.733"
       transform="translate(-580.558 -448.235)" />
    <path
       id="Path_1498"
       data-name="Path 1498"
       class="cls-84"
       d="M575.869,444.413c.19-.6.973-.915,1.213-.487.256.454-.428,1.221-.963,1.081a.378.378,0,0,1-.183-.107.481.481,0,0,1-.067-.487"
       transform="translate(-571.682 -439.861)" />
    <path
       id="Path_1499"
       data-name="Path 1499"
       class="cls-84"
       d="M570.385,436.668c.3-.481.876-.788.955-.506.1.37-.678,1.14-.995.981a.158.158,0,0,1-.064-.069c-.012-.039-.049-.16.1-.406"
       transform="translate(-567.003 -433.409)" />
    <path
       id="Path_1500"
       data-name="Path 1500"
       class="cls-84"
       d="M570.312,430.849c.322-.3.764-.594.76-.5-.006.177-.976,1-1.049.886-.007-.012,0-.035.006-.052a1.239,1.239,0,0,1,.282-.331"
       transform="translate(-566.793 -428.596)" />
    <path
       id="Path_1501"
       data-name="Path 1501"
       class="cls-84"
       d="M622.839,533.743a1.85,1.85,0,0,1,.69-.178,3.288,3.288,0,0,1-1.456.47.042.042,0,0,0-.005-.007.814.814,0,0,1,.2-.083c.183-.066.554-.195.574-.2"
       transform="translate(-610.549 -515.378)" />
    <path
       id="Path_1502"
       data-name="Path 1502"
       class="cls-84"
       d="M633.844,525.477c.459-.322.731-.38.719-.25-.007.072-.132.265-.556.526-.278.171-.664.321-.7.247-.019-.038.058-.119.1-.163a3.425,3.425,0,0,1,.44-.36"
       transform="translate(-619.992 -508.321)" />
    <path
       id="Path_1503"
       data-name="Path 1503"
       class="cls-84"
       d="M639.89,513.941c.367-.45.765-.541.807-.285.072.452-.8,1.156-1.04.988-.073-.05-.049-.165-.037-.22a1.321,1.321,0,0,1,.27-.484"
       transform="translate(-625.293 -498.529)" />
    <path
       id="Path_1504"
       data-name="Path 1504"
       class="cls-84"
       d="M639.8,500.253c.254-.545.819-.708.957-.278.173.533-.495,1.257-.866,1.1a.339.339,0,0,1-.182-.252.943.943,0,0,1,.092-.569"
       transform="translate(-625.37 -486.94)" />
    <path
       id="Path_1505"
       data-name="Path 1505"
       class="cls-84"
       d="M633.728,485.458c.158-.628.85-.812,1.121-.3.292.55-.2,1.334-.741,1.182a.55.55,0,0,1-.315-.264.872.872,0,0,1-.065-.618"
       transform="translate(-620.327 -474.441)" />
    <path
       id="Path_1506"
       data-name="Path 1506"
       class="cls-84"
       d="M623.125,470.469a.681.681,0,0,1,1.227-.376.769.769,0,0,1-.571,1.275.706.706,0,0,1-.48-.264.856.856,0,0,1-.176-.634"
       transform="translate(-611.432 -461.792)" />
    <path
       id="Path_1507"
       data-name="Path 1507"
       class="cls-84"
       d="M610.085,456.287a.748.748,0,1,1,.679.844.789.789,0,0,1-.462-.23.8.8,0,0,1-.217-.615"
       transform="translate(-600.472 -449.862)" />
    <path
       id="Path_1508"
       data-name="Path 1508"
       class="cls-84"
       d="M597.127,444.55a.782.782,0,0,1,1.338-.349c.351.476-.141,1.124-.785,1.037a.685.685,0,0,1-.375-.168.572.572,0,0,1-.178-.52"
       transform="translate(-589.574 -440.04)" />
    <path
       id="Path_1509"
       data-name="Path 1509"
       class="cls-84"
       d="M586.609,435.488c.215-.533,1.058-.754,1.254-.329.2.442-.533,1.026-1.049.833a.479.479,0,0,1-.137-.082.363.363,0,0,1-.068-.423"
       transform="translate(-580.708 -432.469)" />
    <path
       id="Path_1510"
       data-name="Path 1510"
       class="cls-84"
       d="M580.758,429.046c.292-.356.945-.633,1-.356.06.337-.783.914-1.063.727a.189.189,0,0,1-.039-.044c-.014-.036-.053-.132.107-.327"
       transform="translate(-575.718 -427.123)" />
    <path
       id="Path_1511"
       data-name="Path 1511"
       class="cls-84"
       d="M580.541,424.806a2.375,2.375,0,0,1,.778-.358,2.339,2.339,0,0,1-1.074.636c-.009-.009,0-.024,0-.038a.95.95,0,0,1,.292-.24"
       transform="translate(-575.386 -423.65)" />
    <path
       id="Path_1512"
       data-name="Path 1512"
       class="cls-84"
       d="M633.16,530.487c.479-.23.572-.24.6-.224a2.739,2.739,0,0,1-1.35.644c0-.021,0-.034.2-.144.215-.114.437-.221.549-.277"
       transform="translate(-619.242 -512.604)" />
    <path
       id="Path_1513"
       data-name="Path 1513"
       class="cls-84"
       d="M644.072,520.433c.352-.3.624-.427.62-.288-.01.271-1.033,1.093-1.152.926-.032-.044.057-.157.1-.216a3.611,3.611,0,0,1,.427-.422"
       transform="translate(-628.595 -504.056)" />
    <path
       id="Path_1514"
       data-name="Path 1514"
       class="cls-84"
       d="M650.236,507.335c.321-.456.663-.549.714-.306.086.4-.646,1.289-.922,1.119-.091-.055-.064-.205-.051-.277a1.55,1.55,0,0,1,.258-.536"
       transform="translate(-634 -492.967)" />
    <path
       id="Path_1515"
       data-name="Path 1515"
       class="cls-84"
       d="M650.1,492.253c.22-.539.693-.7.857-.294.208.515-.3,1.361-.723,1.209a.389.389,0,0,1-.214-.305,1.122,1.122,0,0,1,.08-.61"
       transform="translate(-634.037 -480.216)" />
    <path
       id="Path_1516"
       data-name="Path 1516"
       class="cls-84"
       d="M643.921,476.42c.125-.6.706-.784,1-.311.344.547-.027,1.386-.561,1.265a.583.583,0,0,1-.363-.308,1.012,1.012,0,0,1-.08-.645"
       transform="translate(-628.902 -466.856)" />
    <path
       id="Path_1517"
       data-name="Path 1517"
       class="cls-84"
       d="M633.206,460.805a.608.608,0,0,1,1.134-.31c.422.537.124,1.329-.47,1.247a.755.755,0,0,1-.47-.29.964.964,0,0,1-.194-.647"
       transform="translate(-619.91 -453.707)" />
    <path
       id="Path_1518"
       data-name="Path 1518"
       class="cls-84"
       d="M620.177,447.219c.032-.588.782-.756,1.215-.27a.616.616,0,0,1-.465,1.071.846.846,0,0,1-.519-.239.769.769,0,0,1-.231-.563"
       transform="translate(-608.958 -442.329)" />
    <path
       id="Path_1519"
       data-name="Path 1519"
       class="cls-84"
       d="M607.4,436.438a.71.71,0,0,1,1.256-.193c.3.425-.124.913-.705.814a.761.761,0,0,1-.361-.162.523.523,0,0,1-.19-.459"
       transform="translate(-598.216 -433.322)" />
    <path
       id="Path_1520"
       data-name="Path 1520"
       class="cls-84"
       d="M597.183,428.584c.184-.441.975-.565,1.143-.18.163.369-.466.775-.934.6a.5.5,0,0,1-.131-.074.29.29,0,0,1-.079-.349"
       transform="translate(-589.605 -426.784)" />
    <path
       id="Path_1521"
       data-name="Path 1521"
       class="cls-84"
       d="M591.228,423.594c.285-.272.944-.447.924-.19s-.783.654-1.011.431c-.015-.028-.059-.1.087-.24"
       transform="translate(-584.534 -422.669)" />
    <path
       id="Path_1522"
       data-name="Path 1522"
       class="cls-84"
       d="M590.828,421.153a3.826,3.826,0,0,1,.7-.194,3.378,3.378,0,0,1-.99.35.043.043,0,0,1,.009-.017,1,1,0,0,1,.279-.139"
       transform="translate(-584.044 -420.719)" />
    <path
       id="Path_1523"
       data-name="Path 1523"
       class="cls-84"
       d="M641.815,526.6a2.444,2.444,0,0,1,.448-.276.06.06,0,0,1,0,.009,3.953,3.953,0,0,1-1.2.806c.007-.023.021-.044.237-.195.184-.128.4-.272.507-.346"
       transform="translate(-626.524 -509.298)" />
    <path
       id="Path_1524"
       data-name="Path 1524"
       class="cls-84"
       d="M652.746,514.966c.268-.292.451-.433.458-.351.018.2-.842,1.169-.978,1.1-.047-.024.076-.2.13-.274a5.8,5.8,0,0,1,.39-.477"
       transform="translate(-635.893 -499.434)" />
    <path
       id="Path_1525"
       data-name="Path 1525"
       class="cls-84"
       d="M659.249,500.578c.213-.388.452-.565.511-.379.111.356-.482,1.423-.714,1.282-.082-.049-.042-.249-.027-.325a2.364,2.364,0,0,1,.229-.578"
       transform="translate(-641.594 -487.272)" />
    <path
       id="Path_1526"
       data-name="Path 1526"
       class="cls-84"
       d="M659.253,484.387c.143-.49.465-.673.64-.362.261.466-.084,1.484-.461,1.361-.157-.052-.2-.272-.224-.355a1.491,1.491,0,0,1,.045-.643"
       transform="translate(-641.758 -473.608)" />
    <path
       id="Path_1527"
       data-name="Path 1527"
       class="cls-84"
       d="M652.841,467.689c.053-.538.444-.737.75-.379.4.471.272,1.412-.193,1.4-.245-.008-.388-.268-.435-.354a1.283,1.283,0,0,1-.122-.664"
       transform="translate(-636.415 -459.533)" />
    <path
       id="Path_1528"
       data-name="Path 1528"
       class="cls-84"
       d="M641.854,452.383c-.016-.508.444-.685.849-.325.493.437.459,1.227-.055,1.241a.742.742,0,0,1-.561-.31,1.072,1.072,0,0,1-.233-.605"
       transform="translate(-627.182 -446.704)" />
    <path
       id="Path_1529"
       data-name="Path 1529"
       class="cls-84"
       d="M628.74,439.718c-.034-.482.531-.613.977-.227s.389.938-.1.97a.86.86,0,0,1-.611-.24.825.825,0,0,1-.268-.5"
       transform="translate(-616.157 -436.109)" />
    <path
       id="Path_1530"
       data-name="Path 1530"
       class="cls-84"
       d="M616.085,430.123c0-.414.643-.505,1.026-.145.327.307.172.694-.281.7a.878.878,0,0,1-.522-.17.526.526,0,0,1-.224-.389"
       transform="translate(-605.519 -428.113)" />
    <path
       id="Path_1531"
       data-name="Path 1531"
       class="cls-84"
       d="M606.107,423.72c.1-.327.789-.373.965-.065.153.268-.268.519-.683.408a.575.575,0,0,1-.171-.077.242.242,0,0,1-.112-.267"
       transform="translate(-597.122 -422.811)" />
    <path
       id="Path_1532"
       data-name="Path 1532"
       class="cls-84"
       d="M600.445,420.418c.22-.158.763-.233.721-.065a.724.724,0,0,1-.772.211c-.015-.016-.061-.066.051-.145"
       transform="translate(-592.31 -420.13)" />
    <path
       id="Path_1533"
       data-name="Path 1533"
       class="cls-84"
       d="M600.093,419.874l.179-.022c-.07.009-.114.015-.253.04-.1.017-.226.038-.266.038l.007-.005h0c.1-.016.229-.037.328-.05"
       transform="translate(-591.789 -419.788)" />
    <path
       id="Path_1534"
       data-name="Path 1534"
       class="cls-84"
       d="M658.9,509.035c.086-.135.17-.273.261-.405v0l-.038.068c-.207.348-.5.8-.729,1.134l-.027.035c0-.011,0-.015.189-.307q.172-.264.343-.529"
       transform="translate(-641.063 -494.422)" />
    <path
       id="Path_1535"
       data-name="Path 1535"
       class="cls-84"
       d="M665.7,493.544c.12-.334.228-.525.264-.464.088.153-.357,1.513-.471,1.442-.045-.029.009-.278.026-.36a5.434,5.434,0,0,1,.182-.618"
       transform="translate(-647.042 -481.341)" />
    <path
       id="Path_1536"
       data-name="Path 1536"
       class="cls-84"
       d="M666.045,476.58c.052-.412.192-.622.314-.469.253.324.149,1.595-.126,1.528-.076-.018-.138-.15-.18-.388a2.549,2.549,0,0,1-.008-.67"
       transform="translate(-647.504 -467.042)" />
    <path
       id="Path_1537"
       data-name="Path 1537"
       class="cls-84"
       d="M659.247,459.8c-.028-.415.148-.608.384-.42.417.332.577,1.411.213,1.442-.091.008-.237-.05-.414-.376a1.749,1.749,0,0,1-.182-.647"
       transform="translate(-641.802 -452.955)" />
    <path
       id="Path_1538"
       data-name="Path 1538"
       class="cls-84"
       d="M647.95,445.27c-.083-.382.127-.547.453-.354.508.3.79,1.109.423,1.213-.074.021-.279.033-.586-.3a1.377,1.377,0,0,1-.29-.555"
       transform="translate(-632.292 -440.792)" />
    <path
       id="Path_1539"
       data-name="Path 1539"
       class="cls-84"
       d="M634.763,433.722c-.107-.342.172-.466.564-.25.5.277.739.826.394.918-.08.021-.3.041-.639-.227a1.056,1.056,0,0,1-.318-.441"
       transform="translate(-621.202 -431.148)" />
    <path
       id="Path_1540"
       data-name="Path 1540"
       class="cls-84"
       d="M622.172,425.521c-.084-.268.247-.348.632-.152s.526.506.28.6a.752.752,0,0,1-.637-.135.681.681,0,0,1-.275-.313"
       transform="translate(-610.625 -424.335)" />
    <path
       id="Path_1541"
       data-name="Path 1541"
       class="cls-84"
       d="M612.409,420.81c-.012-.2.524-.188.744.014.128.117.047.233-.174.249a.811.811,0,0,1-.409-.083c-.042-.024-.156-.088-.161-.18"
       transform="translate(-602.429 -420.473)" />
    <path
       id="Path_1542"
       data-name="Path 1542"
       class="cls-84"
       d="M607.064,419.469a.642.642,0,0,1,.092-.01c.1,0,.24-.005.343-.005.014,0,.059,0,.043.02a.76.76,0,0,1-.48.04c-.036-.015-.039-.028-.009-.04l.011,0"
       transform="translate(-597.909 -419.453)" />
    <path
       id="Path_1543"
       data-name="Path 1543"
       class="cls-84"
       d="M669.173,487.893c.01-.056.016-.111.024-.167l-.062.415-.1.5c.006-.029.015-.067.021-.095.018-.085.071-.34.116-.651"
       transform="translate(-650.034 -476.849)" />
    <path
       id="Path_1544"
       data-name="Path 1544"
       class="cls-84"
       d="M669.079,468.911a1.985,1.985,0,0,1,0-.492l.012,0a4.868,4.868,0,0,1,.167,1.569c-.018-.014-.044-.034-.1-.4-.013-.086-.052-.349-.077-.672"
       transform="translate(-650.058 -460.615)" />
    <path
       id="Path_1545"
       data-name="Path 1545"
       class="cls-84"
       d="M662.092,452.957c-.089-.308-.076-.482.033-.422.262.145.715,1.307.543,1.4-.028.016-.118.009-.328-.368a3.377,3.377,0,0,1-.249-.606"
       transform="translate(-644.147 -447.255)" />
    <path
       id="Path_1546"
       data-name="Path 1546"
       class="cls-84"
       d="M650.675,439.4c-.125-.253-.109-.4.041-.352.368.111,1.009,1.014.816,1.149-.021.015-.148.074-.5-.295a2.232,2.232,0,0,1-.355-.5"
       transform="translate(-634.528 -435.919)" />
    <path
       id="Path_1547"
       data-name="Path 1547"
       class="cls-84"
       d="M637.432,429.133c-.133-.187-.118-.293.04-.265.41.074,1.109.735.9.853-.025.014-.164.067-.558-.212a1.8,1.8,0,0,1-.383-.375"
       transform="translate(-623.39 -427.364)" />
    <path
       id="Path_1548"
       data-name="Path 1548"
       class="cls-84"
       d="M624.841,422.529c-.1-.1-.1-.155-.013-.159.259-.012.984.358.9.5-.031.049-.2.062-.546-.108a1.458,1.458,0,0,1-.337-.234"
       transform="translate(-612.817 -421.905)" />
    <path
       id="Path_1549"
       data-name="Path 1549"
       class="cls-84"
       d="M615.2,419.726a.139.139,0,0,1-.041-.026v0a2.919,2.919,0,0,1,.488.061c.1.023.208.064.2.093s-.121.048-.422-.039a1.787,1.787,0,0,1-.224-.085"
       transform="translate(-604.742 -419.656)" />
  </g>
</svg>
