<svg id="Group_705" data-name="Group 705" xmlns="http://www.w3.org/2000/svg" width="93.176" height="51.714" viewBox="0 0 93.176 51.714">
  <defs>
    <style>
      .cls-1 {
        fill: #9cdeb0;
      }

      .cls-2 {
        fill: #ade49c;
      }

      .cls-3 {
        fill: #bae6b0;
      }

      .cls-4 {
        fill: #5dc446;
      }

      .cls-5 {
        fill: #a3dc92;
      }

      .cls-6 {
        fill: #b5e4a7;
      }
    </style>
  </defs>
  <g id="Group_617" data-name="Group 617" transform="translate(18.964 0.297)">
    <path id="Path_747" data-name="Path 747" class="cls-1" d="M236.367,281.682h2.422a1.465,1.465,0,0,1,1.185.466,2,2,0,0,1,.394,1.326,2.051,2.051,0,0,1-.429,1.382,1.638,1.638,0,0,1-1.31.5h-.8v2.167h-1.463Zm1.463,2.488h.357a.79.79,0,0,0,.592-.181.652.652,0,0,0,.17-.464.739.739,0,0,0-.148-.466.671.671,0,0,0-.556-.191h-.414Z" transform="translate(-226.882 -281.682)"/>
    <path id="Path_748" data-name="Path 748" class="cls-1" d="M245.7,285.751l-1.25-.163a2,2,0,0,1,.2-.639,1.232,1.232,0,0,1,.385-.4,1.394,1.394,0,0,1,.495-.191,3.27,3.27,0,0,1,.682-.068,4.382,4.382,0,0,1,.945.082,1.132,1.132,0,0,1,.595.34,1.249,1.249,0,0,1,.263.507,2.212,2.212,0,0,1,.1.627v1.868a2.81,2.81,0,0,0,.03.468,2.436,2.436,0,0,0,.134.432h-1.228a1.683,1.683,0,0,1-.1-.249,2.044,2.044,0,0,1-.045-.268,1.745,1.745,0,0,1-.511.438,1.775,1.775,0,0,1-.807.175,1.184,1.184,0,0,1-.928-.35,1.241,1.241,0,0,1-.317-.864,1.3,1.3,0,0,1,.228-.792,1.434,1.434,0,0,1,.843-.462q.736-.183.955-.257a3.741,3.741,0,0,0,.463-.193.667.667,0,0,0-.1-.418.437.437,0,0,0-.351-.119.774.774,0,0,0-.483.127A.729.729,0,0,0,245.7,285.751Zm1.135.853a5.3,5.3,0,0,1-.563.21,1.193,1.193,0,0,0-.5.259.485.485,0,0,0,0,.611.4.4,0,0,0,.317.121.7.7,0,0,0,.407-.131.733.733,0,0,0,.267-.321,1.293,1.293,0,0,0,.079-.492Z" transform="translate(-231.116 -282.772)"/>
    <path id="Path_749" data-name="Path 749" class="cls-1" d="M252.672,284.381H253.9v.693a1.678,1.678,0,0,1,.365-.62.668.668,0,0,1,.465-.169,1.189,1.189,0,0,1,.633.223l-.405,1.155a.869.869,0,0,0-.366-.12.439.439,0,0,0-.4.263,3.217,3.217,0,0,0-.2,1.385v1.418h-1.315Z" transform="translate(-235.536 -282.772)"/>
    <path id="Path_750" data-name="Path 750" class="cls-1" d="M216.151,300.664h2.727a1.313,1.313,0,0,1,1.046.418,1.52,1.52,0,0,1,.365,1.036,1.5,1.5,0,0,1-.26.887,1.163,1.163,0,0,1-.508.391,1.288,1.288,0,0,1,.747.52,1.663,1.663,0,0,1,.239.925,1.9,1.9,0,0,1-.17.816,1.439,1.439,0,0,1-.466.574,1.335,1.335,0,0,1-.553.191,5.241,5.241,0,0,1-.652.08h-2.514Zm1.469,2.289h.633a.625.625,0,0,0,.474-.145.6.6,0,0,0,.134-.42.561.561,0,0,0-.134-.4.617.617,0,0,0-.465-.144h-.643Zm0,2.294h.743a.7.7,0,0,0,.531-.166.625.625,0,0,0,.154-.444.573.573,0,0,0-.153-.416.73.73,0,0,0-.535-.158h-.739Z" transform="translate(-216.151 -289.633)"/>
    <path id="Path_751" data-name="Path 751" class="cls-1" d="M225.129,305.489a2.394,2.394,0,0,1,.527-1.6,1.966,1.966,0,0,1,2.974.11,2.461,2.461,0,0,1,.421,1.462,2.4,2.4,0,0,1-.523,1.6,1.979,1.979,0,0,1-2.776.105A2.307,2.307,0,0,1,225.129,305.489Zm1.312,0a1.5,1.5,0,0,0,.184.836.536.536,0,0,0,.929,0,1.562,1.562,0,0,0,.182-.857,1.474,1.474,0,0,0-.183-.818.538.538,0,0,0-.454-.269.555.555,0,0,0-.472.273A1.485,1.485,0,0,0,226.441,305.485Z" transform="translate(-220.917 -290.723)"/>
    <path id="Path_752" data-name="Path 752" class="cls-1" d="M235.622,303.362h1.225v3.994l0,.188a2.117,2.117,0,0,1-.137.758,1.6,1.6,0,0,1-.363.583,1.323,1.323,0,0,1-.576.323,2.922,2.922,0,0,1-.8.1,2,2,0,0,1-1.413-.382,1.381,1.381,0,0,1-.384-1.024c0-.053,0-.125.007-.215l1.27.179a.469.469,0,0,0,.511.427.494.494,0,0,0,.423-.188,1.131,1.131,0,0,0,.14-.653v-.64a1.484,1.484,0,0,1-.386.41,1.163,1.163,0,0,1-.653.2,1.253,1.253,0,0,1-1.106-.741,2.8,2.8,0,0,1-.3-1.39,2.493,2.493,0,0,1,.386-1.505,1.2,1.2,0,0,1,1.009-.518,1.189,1.189,0,0,1,.658.167,1.592,1.592,0,0,1,.484.554Zm-1.231,2.051a1.176,1.176,0,0,0,.158.679.486.486,0,0,0,.415.221.492.492,0,0,0,.41-.229,1.185,1.185,0,0,0,.165-.691,1.212,1.212,0,0,0-.174-.707.508.508,0,0,0-.424-.245.46.46,0,0,0-.4.225A1.4,1.4,0,0,0,234.391,305.414Z" transform="translate(-225.14 -290.723)"/>
    <path id="Path_753" data-name="Path 753" class="cls-1" d="M244.991,305.879h-2.624a1.212,1.212,0,0,0,.17.581.577.577,0,0,0,.5.275.635.635,0,0,0,.366-.119.968.968,0,0,0,.229-.267l1.289.147a2.13,2.13,0,0,1-.713.914,2.169,2.169,0,0,1-1.2.277,2.051,2.051,0,0,1-1.067-.237,1.767,1.767,0,0,1-.645-.753,2.7,2.7,0,0,1-.256-1.213,2.419,2.419,0,0,1,.513-1.605,1.747,1.747,0,0,1,1.416-.613,2.112,2.112,0,0,1,1.158.275,1.716,1.716,0,0,1,.647.8,3.524,3.524,0,0,1,.222,1.358Zm-1.331-.776a1.237,1.237,0,0,0-.2-.673.534.534,0,0,0-.435-.2.563.563,0,0,0-.5.306,1.312,1.312,0,0,0-.151.569Z" transform="translate(-229.36 -290.723)"/>
    <path id="Path_754" data-name="Path 754" class="cls-1" d="M248.54,303.431h1.38l.7,2.816.655-2.816h1.289l-1.355,4.519a2.966,2.966,0,0,1-.472,1.044,1.321,1.321,0,0,1-1.038.382,6.148,6.148,0,0,1-.874-.1l-.1-1.131a1.7,1.7,0,0,0,.63.112.531.531,0,0,0,.374-.132,1.046,1.046,0,0,0,.243-.47Z" transform="translate(-233.343 -290.792)"/>
    <path id="Path_755" data-name="Path 755" class="cls-1" d="M249.465,320.476h2.726a1.317,1.317,0,0,1,1.047.418,1.523,1.523,0,0,1,.365,1.036,1.5,1.5,0,0,1-.26.888,1.16,1.16,0,0,1-.508.391,1.285,1.285,0,0,1,.747.52,1.662,1.662,0,0,1,.24.926,1.9,1.9,0,0,1-.17.816,1.45,1.45,0,0,1-.466.574,1.342,1.342,0,0,1-.553.191,5.328,5.328,0,0,1-.653.079h-2.514Zm1.469,2.29h.633a.626.626,0,0,0,.474-.145.6.6,0,0,0,.134-.42.562.562,0,0,0-.134-.4.618.618,0,0,0-.465-.144h-.643Zm0,2.294h.743a.705.705,0,0,0,.53-.165.626.626,0,0,0,.154-.445.572.572,0,0,0-.153-.416.731.731,0,0,0-.535-.157h-.739Z" transform="translate(-233.834 -297.931)"/>
    <path id="Path_756" data-name="Path 756" class="cls-1" d="M258.887,320.476H260.2v1.1h-1.309Zm0,1.609H260.2v4.229h-1.309Z" transform="translate(-238.835 -297.931)"/>
    <path id="Path_757" data-name="Path 757" class="cls-1" d="M262.082,323.175h1.225v.693a1.676,1.676,0,0,1,.366-.619.668.668,0,0,1,.465-.169,1.186,1.186,0,0,1,.633.223l-.4,1.155a.868.868,0,0,0-.366-.12.438.438,0,0,0-.4.263,3.223,3.223,0,0,0-.2,1.386V327.4h-1.315Z" transform="translate(-240.531 -299.022)"/>
    <path id="Path_758" data-name="Path 758" class="cls-1" d="M270.638,320.476v5.838h-1.225v-.625a1.837,1.837,0,0,1-.469.538,1.134,1.134,0,0,1-.63.183,1.162,1.162,0,0,1-1.066-.656,3.219,3.219,0,0,1-.368-1.6,2.7,2.7,0,0,1,.407-1.609,1.231,1.231,0,0,1,1.034-.557,1.2,1.2,0,0,1,.555.127,1.3,1.3,0,0,1,.442.382v-2.023Zm-1.311,3.711a1.309,1.309,0,0,0-.171-.743.509.509,0,0,0-.431-.245.45.45,0,0,0-.382.235,1.5,1.5,0,0,0-.154.789,1.408,1.408,0,0,0,.159.758.462.462,0,0,0,.394.241.492.492,0,0,0,.418-.243A1.436,1.436,0,0,0,269.327,324.187Z" transform="translate(-243.078 -297.931)"/>
    <path id="Path_759" data-name="Path 759" class="cls-1" d="M275.288,320.476H276.6v1.1h-1.309Zm0,1.609H276.6v4.229h-1.309Z" transform="translate(-247.541 -297.931)"/>
    <path id="Path_760" data-name="Path 760" class="cls-1" d="M282.061,325.692h-2.624a1.217,1.217,0,0,0,.17.581.579.579,0,0,0,.5.275.638.638,0,0,0,.366-.119.975.975,0,0,0,.229-.267l1.289.147a2.138,2.138,0,0,1-.714.914,2.172,2.172,0,0,1-1.2.276,2.048,2.048,0,0,1-1.067-.237,1.76,1.76,0,0,1-.645-.753,2.7,2.7,0,0,1-.256-1.213,2.421,2.421,0,0,1,.513-1.6,1.746,1.746,0,0,1,1.417-.613,2.1,2.1,0,0,1,1.157.275,1.716,1.716,0,0,1,.647.8,3.511,3.511,0,0,1,.222,1.358Zm-1.331-.776a1.239,1.239,0,0,0-.2-.673.535.535,0,0,0-.435-.2.564.564,0,0,0-.5.307,1.312,1.312,0,0,0-.151.57Z" transform="translate(-249.037 -299.022)"/>
    <path id="Path_761" data-name="Path 761" class="cls-1" d="M270.885,339.65h3.9V340.9h-2.444v.928h2.267v1.19h-2.267v1.151h2.514v1.322h-3.974Z" transform="translate(-245.204 -305.962)"/>
    <path id="Path_762" data-name="Path 762" class="cls-1" d="M280.45,343.719l-1.25-.163a1.989,1.989,0,0,1,.2-.639,1.228,1.228,0,0,1,.385-.4,1.407,1.407,0,0,1,.495-.191,3.274,3.274,0,0,1,.682-.067,4.378,4.378,0,0,1,.945.082,1.13,1.13,0,0,1,.595.34,1.256,1.256,0,0,1,.263.508,2.209,2.209,0,0,1,.1.627v1.867a2.8,2.8,0,0,0,.031.468,2.419,2.419,0,0,0,.134.432H281.8a1.682,1.682,0,0,1-.1-.249,2.052,2.052,0,0,1-.045-.268,1.528,1.528,0,0,1-1.318.613,1.186,1.186,0,0,1-.928-.35,1.245,1.245,0,0,1-.317-.864,1.306,1.306,0,0,1,.228-.793,1.439,1.439,0,0,1,.843-.462q.736-.183.955-.257a3.839,3.839,0,0,0,.463-.193.668.668,0,0,0-.1-.418.437.437,0,0,0-.35-.119.77.77,0,0,0-.483.127A.724.724,0,0,0,280.45,343.719Zm1.135.853a5.182,5.182,0,0,1-.563.21,1.191,1.191,0,0,0-.5.26.485.485,0,0,0,0,.611.4.4,0,0,0,.317.121.7.7,0,0,0,.407-.132.731.731,0,0,0,.267-.321,1.294,1.294,0,0,0,.079-.492Z" transform="translate(-249.562 -307.053)"/>
    <path id="Path_763" data-name="Path 763" class="cls-1" d="M289.816,342.349h1.225v3.994l0,.187a2.13,2.13,0,0,1-.137.758,1.6,1.6,0,0,1-.363.583,1.329,1.329,0,0,1-.576.323,2.925,2.925,0,0,1-.8.1,2,2,0,0,1-1.413-.382,1.379,1.379,0,0,1-.384-1.024c0-.052,0-.124.007-.215l1.27.18a.469.469,0,0,0,.511.426.494.494,0,0,0,.423-.187,1.134,1.134,0,0,0,.14-.653v-.64a1.488,1.488,0,0,1-.386.41,1.164,1.164,0,0,1-.652.2,1.252,1.252,0,0,1-1.106-.74,2.806,2.806,0,0,1-.3-1.39,2.491,2.491,0,0,1,.386-1.5,1.2,1.2,0,0,1,1.009-.518,1.19,1.19,0,0,1,.658.167,1.59,1.59,0,0,1,.484.553Zm-1.231,2.051a1.174,1.174,0,0,0,.158.679.486.486,0,0,0,.415.221.494.494,0,0,0,.41-.229,1.186,1.186,0,0,0,.165-.691,1.215,1.215,0,0,0-.174-.707.51.51,0,0,0-.424-.245.46.46,0,0,0-.4.225A1.406,1.406,0,0,0,288.584,344.4Z" transform="translate(-253.906 -307.053)"/>
    <path id="Path_764" data-name="Path 764" class="cls-1" d="M295.811,339.65h1.312v5.838h-1.312Z" transform="translate(-258.435 -305.962)"/>
    <path id="Path_765" data-name="Path 765" class="cls-1" d="M302.591,344.866h-2.624a1.215,1.215,0,0,0,.17.581.578.578,0,0,0,.5.275A.639.639,0,0,0,301,345.6a.969.969,0,0,0,.229-.267l1.289.147a2.137,2.137,0,0,1-.714.914,2.174,2.174,0,0,1-1.2.276,2.047,2.047,0,0,1-1.067-.237,1.761,1.761,0,0,1-.645-.753,2.7,2.7,0,0,1-.256-1.213,2.418,2.418,0,0,1,.513-1.6,1.745,1.745,0,0,1,1.416-.613,2.107,2.107,0,0,1,1.158.275,1.716,1.716,0,0,1,.647.8,3.513,3.513,0,0,1,.222,1.358Zm-1.331-.776a1.234,1.234,0,0,0-.2-.673.533.533,0,0,0-.435-.2.564.564,0,0,0-.5.307,1.311,1.311,0,0,0-.151.57Z" transform="translate(-259.934 -307.053)"/>
    <path id="Path_766" data-name="Path 766" class="cls-1" d="M316.165,364.821h-1.654l-.23.964h-1.487l1.772-5.838h1.588l1.772,5.838H316.4Zm-.3-1.262-.52-2.1-.515,2.1Z" transform="translate(-267.449 -314.463)"/>
    <path id="Path_767" data-name="Path 767" class="cls-1" d="M323.225,359.947h1.312v5.838h-1.312Z" transform="translate(-272.986 -314.463)"/>
    <path id="Path_768" data-name="Path 768" class="cls-1" d="M326.412,359.947h1.322v2.022a1.333,1.333,0,0,1,.445-.382,1.2,1.2,0,0,1,.551-.127,1.233,1.233,0,0,1,1.032.556,2.656,2.656,0,0,1,.409,1.595,3.661,3.661,0,0,1-.186,1.22,1.7,1.7,0,0,1-.517.789,1.167,1.167,0,0,1-1.361.078,1.852,1.852,0,0,1-.47-.538v.625h-1.225Zm1.312,3.711a1.446,1.446,0,0,0,.166.79.491.491,0,0,0,.419.245.464.464,0,0,0,.394-.241,1.53,1.53,0,0,0,.16-.811,1.361,1.361,0,0,0-.156-.736.449.449,0,0,0-.378-.235.51.51,0,0,0-.435.244A1.32,1.32,0,0,0,327.724,363.658Z" transform="translate(-274.678 -314.463)"/>
    <path id="Path_769" data-name="Path 769" class="cls-1" d="M335.367,364.016l-1.25-.163a2,2,0,0,1,.2-.639,1.234,1.234,0,0,1,.385-.4,1.4,1.4,0,0,1,.495-.191,3.281,3.281,0,0,1,.682-.067,4.386,4.386,0,0,1,.945.081,1.131,1.131,0,0,1,.595.341,1.249,1.249,0,0,1,.263.507,2.211,2.211,0,0,1,.1.627v1.868a2.806,2.806,0,0,0,.03.468,2.44,2.44,0,0,0,.134.432h-1.228a1.678,1.678,0,0,1-.1-.249,2.032,2.032,0,0,1-.045-.268,1.743,1.743,0,0,1-.511.438,1.775,1.775,0,0,1-.807.175,1.185,1.185,0,0,1-.928-.35,1.243,1.243,0,0,1-.317-.864,1.3,1.3,0,0,1,.228-.792,1.435,1.435,0,0,1,.843-.462q.736-.183.955-.257a3.916,3.916,0,0,0,.463-.193.668.668,0,0,0-.1-.418.437.437,0,0,0-.351-.119.774.774,0,0,0-.483.127A.729.729,0,0,0,335.367,364.016Zm1.135.853a5.187,5.187,0,0,1-.563.21,1.193,1.193,0,0,0-.5.259.485.485,0,0,0,0,.611.4.4,0,0,0,.317.121.7.7,0,0,0,.407-.131.733.733,0,0,0,.267-.321,1.294,1.294,0,0,0,.079-.492Z" transform="translate(-278.712 -315.554)"/>
    <path id="Path_770" data-name="Path 770" class="cls-1" d="M343.408,359.947v1.609h.72v1.187h-.72v1.5a.982.982,0,0,0,.042.357.229.229,0,0,0,.225.135,1.194,1.194,0,0,0,.4-.1l.1,1.119a3.475,3.475,0,0,1-.907.131,1.316,1.316,0,0,1-.72-.155.9.9,0,0,1-.342-.471,3.376,3.376,0,0,1-.111-1.025v-1.487h-.482v-1.187h.482v-.776Z" transform="translate(-282.747 -314.463)"/>
    <path id="Path_771" data-name="Path 771" class="cls-1" d="M346.926,362.646h1.225v.693a1.669,1.669,0,0,1,.366-.619.665.665,0,0,1,.465-.169,1.187,1.187,0,0,1,.633.223l-.405,1.155a.867.867,0,0,0-.366-.12.438.438,0,0,0-.4.263,3.219,3.219,0,0,0-.2,1.385v1.418h-1.315Z" transform="translate(-285.566 -315.554)"/>
    <path id="Path_772" data-name="Path 772" class="cls-1" d="M351.607,364.773a2.392,2.392,0,0,1,.527-1.595,1.966,1.966,0,0,1,2.974.109,2.463,2.463,0,0,1,.421,1.462,2.4,2.4,0,0,1-.523,1.6,1.979,1.979,0,0,1-2.776.105A2.307,2.307,0,0,1,351.607,364.773Zm1.312,0a1.5,1.5,0,0,0,.184.836.536.536,0,0,0,.93,0,1.56,1.56,0,0,0,.182-.856,1.476,1.476,0,0,0-.183-.819.538.538,0,0,0-.454-.268.557.557,0,0,0-.473.273A1.487,1.487,0,0,0,352.919,364.769Z" transform="translate(-288.051 -315.554)"/>
    <path id="Path_773" data-name="Path 773" class="cls-1" d="M359.413,365.7l1.3-.151a.812.812,0,0,0,.225.41.576.576,0,0,0,.386.124.563.563,0,0,0,.408-.14.334.334,0,0,0,.112-.258.3.3,0,0,0-.147-.27,2.274,2.274,0,0,0-.563-.167,4.863,4.863,0,0,1-.947-.273,1.049,1.049,0,0,1-.447-.423,1.393,1.393,0,0,1,.015-1.4,1.191,1.191,0,0,1,.54-.452,2.365,2.365,0,0,1,.923-.149,2.619,2.619,0,0,1,.9.115,1.164,1.164,0,0,1,.486.359,1.982,1.982,0,0,1,.323.657l-1.241.151a.544.544,0,0,0-.161-.3.564.564,0,0,0-.373-.128.454.454,0,0,0-.323.1.315.315,0,0,0-.1.237.258.258,0,0,0,.129.235,1.725,1.725,0,0,0,.559.144,3.217,3.217,0,0,1,.971.254,1.139,1.139,0,0,1,.487.465,1.338,1.338,0,0,1,.169.665,1.533,1.533,0,0,1-.179.712,1.29,1.29,0,0,1-.563.55,2.233,2.233,0,0,1-1.047.205,2.1,2.1,0,0,1-1.333-.33A1.539,1.539,0,0,1,359.413,365.7Z" transform="translate(-292.195 -315.554)"/>
    <path id="Path_774" data-name="Path 774" class="cls-1" d="M366.582,365.7l1.3-.151a.812.812,0,0,0,.225.41.576.576,0,0,0,.386.124.563.563,0,0,0,.408-.14.334.334,0,0,0,.112-.258.3.3,0,0,0-.147-.27,2.274,2.274,0,0,0-.563-.167,4.864,4.864,0,0,1-.947-.273,1.049,1.049,0,0,1-.447-.423,1.393,1.393,0,0,1,.015-1.4,1.191,1.191,0,0,1,.54-.452,2.365,2.365,0,0,1,.923-.149,2.619,2.619,0,0,1,.9.115,1.163,1.163,0,0,1,.486.359,1.989,1.989,0,0,1,.323.657l-1.241.151a.544.544,0,0,0-.161-.3.564.564,0,0,0-.373-.128.454.454,0,0,0-.323.1.315.315,0,0,0-.1.237.259.259,0,0,0,.128.235,1.732,1.732,0,0,0,.56.144,3.217,3.217,0,0,1,.971.254,1.14,1.14,0,0,1,.487.465,1.339,1.339,0,0,1,.169.665,1.533,1.533,0,0,1-.179.712,1.293,1.293,0,0,1-.563.55,2.233,2.233,0,0,1-1.047.205,2.1,2.1,0,0,1-1.333-.33A1.536,1.536,0,0,1,366.582,365.7Z" transform="translate(-296 -315.554)"/>
  </g>
  <rect id="Rectangle_289" data-name="Rectangle 289" class="cls-2" width="60.611" height="6.304" transform="translate(0 45.314)"/>
  <rect id="Rectangle_290" data-name="Rectangle 290" class="cls-3" width="40.551" height="6.304" transform="translate(0 33.985)"/>
  <rect id="Rectangle_291" data-name="Rectangle 291" class="cls-4" width="30.305" height="6.304" transform="translate(0 22.657)"/>
  <rect id="Rectangle_292" data-name="Rectangle 292" class="cls-5" width="16.352" height="6.304" transform="translate(0 11.328)"/>
  <rect id="Rectangle_293" data-name="Rectangle 293" class="cls-6" width="25.229" height="6.304" transform="translate(0 0)"/>
</svg>
