<svg xmlns="http://www.w3.org/2000/svg" width="23.741" height="24.333" viewBox="0 0 23.741 24.333">
  <g id="Group_2074" data-name="Group 2074" transform="translate(-92.413 -769.321)">
    <path id="Path_2990" data-name="Path 2990" d="M353.659,364.269a2.74,2.74,0,0,1-5.48,0Z" transform="translate(-247.069 426.176)" fill="none" stroke="#89bb2b" stroke-linecap="round" stroke-linejoin="round" stroke-width="1"/>
    <path id="Path_2991" data-name="Path 2991" d="M357.381,355.007a1.68,1.68,0,0,1-.5,1.194,1.715,1.715,0,0,1-1.213.5H341.956a1.695,1.695,0,1,1,0-3.39v-6.78a6.773,6.773,0,0,1,3.639-5.985c.051-.025.1-.046.154-.071a3.017,3.017,0,0,1-.087-.718,3.15,3.15,0,0,1,6.3,0,3.019,3.019,0,0,1-.087.718c.051.025.1.046.154.071a6.8,6.8,0,0,1,1.848,1.427,4.885,4.885,0,0,0,1.791,9.456v1.882A1.7,1.7,0,0,1,357.381,355.007Z" transform="translate(-244.961 433.745)" fill="none" stroke="#89bb2b" stroke-linecap="round" stroke-linejoin="round" stroke-width="1"/>
    <path id="Path_2992" data-name="Path 2992" d="M364.4,348.419a4.952,4.952,0,1,1-4.948-4.892A4.922,4.922,0,0,1,364.4,348.419Z" transform="translate(-248.748 431.858)" fill="none" stroke="#89bb2b" stroke-linecap="round" stroke-linejoin="round" stroke-width="1"/>
    <path id="Path_2993" data-name="Path 2993" d="M361.241,338.147a3.68,3.68,0,0,1,2.4,2.119" transform="translate(-250.538 433.332)" fill="none" stroke="#89bb2b" stroke-linecap="round" stroke-linejoin="round" stroke-width="1"/>
    <path id="Path_2994" data-name="Path 2994" d="M363.288,336a3.68,3.68,0,0,1,2.4,2.12" transform="translate(-251.082 433.921)" fill="none" stroke="#89bb2b" stroke-linecap="round" stroke-linejoin="round" stroke-width="1"/>
    <path id="Path_2995" data-name="Path 2995" d="M341.666,338.147a3.68,3.68,0,0,0-2.4,2.119" transform="translate(-244.703 433.332)" fill="none" stroke="#89bb2b" stroke-linecap="round" stroke-linejoin="round" stroke-width="1"/>
    <path id="Path_2996" data-name="Path 2996" d="M339.619,336a3.68,3.68,0,0,0-2.4,2.12" transform="translate(-244.159 433.921)" fill="none" stroke="#89bb2b" stroke-linecap="round" stroke-linejoin="round" stroke-width="1"/>
  </g>
</svg>
