<svg id="Icon" xmlns="http://www.w3.org/2000/svg" width="21.269" height="19.707" viewBox="0 0 21.269 19.707">
  <path id="Shape" d="M5.187,12.45C2.327,12.45,0,9.657,0,6.225S2.327,0,5.187,0s5.187,2.793,5.187,6.225S8.048,12.45,5.187,12.45Zm0-10.894A3.26,3.26,0,0,0,2.619,2.918,5.385,5.385,0,0,0,1.556,6.225,5.383,5.383,0,0,0,2.619,9.532a3.26,3.26,0,0,0,2.569,1.362A3.26,3.26,0,0,0,7.756,9.532,5.383,5.383,0,0,0,8.819,6.225,5.385,5.385,0,0,0,7.756,2.918,3.26,3.26,0,0,0,5.187,1.556Z" transform="translate(5.447)" fill="#89bb2b"/>
  <path id="Shape-2" data-name="Shape" d="M15.381,0a.782.782,0,0,0-.156,1.556,5.053,5.053,0,0,1,4.451,4.669H1.593A5.094,5.094,0,0,1,6.043,1.56.782.782,0,0,0,5.888,0,6.731,6.731,0,0,0,0,7a.778.778,0,0,0,.778.778H20.49A.778.778,0,0,0,21.269,7,6.731,6.731,0,0,0,15.381,0Z" transform="translate(0 11.927)" fill="#89bb2b"/>
</svg>
